CommissionerLoud-ExtraLightItalic.ufo
<glyph name="numbersign" format="2">
  <advance width="674.6210526315789"/>
  <unicode hex="0023"/>
  <outline>
    <contour>
      <point x="1.8105263157894746" y="163.18947368421053" type="line"/>
      <point x="61.326315789473696" y="164.35789473684213"/>
      <point x="129.0842105263158" y="165.5263157894737"/>
      <point x="166.02105263157893" y="165.69473684210527" type="curve"/>
      <point x="414.6736842105263" y="165.69473684210527" type="line"/>
      <point x="451.4421052631579" y="165.5263157894737"/>
      <point x="519.1999999999999" y="164.35789473684213"/>
      <point x="578.5473684210526" y="163.18947368421053" type="curve"/>
      <point x="587.1578947368422" y="207.31578947368422" type="line"/>
      <point x="527.7263157894737" y="206.14736842105262"/>
      <point x="459.8842105263158" y="204.97894736842105"/>
      <point x="423.0315789473684" y="204.81052631578947" type="curve"/>
      <point x="174.37894736842105" y="204.81052631578947" type="line"/>
      <point x="137.5263157894737" y="204.97894736842105"/>
      <point x="69.85263157894737" y="206.14736842105262"/>
      <point x="10.421052631578949" y="207.31578947368422" type="curve"/>
    </contour>
    <contour>
      <point x="70.36842105263158" y="0.0" type="curve"/>
      <point x="121.09473684210526" y="0.0" type="line"/>
      <point x="148.50526315789472" y="67.16842105263157"/>
      <point x="172.0842105263158" y="125.7578947368421"/>
      <point x="206.32631578947368" y="209.8421052631579" type="curve"/>
      <point x="302.4842105263158" y="438.3473684210526" type="line"/>
      <point x="340.5684210526315" y="525.8526315789475"/>
      <point x="365.31578947368416" y="583.3473684210526"/>
      <point x="396.4" y="654.6842105263158" type="curve"/>
      <point x="346.09473684210525" y="654.6842105263158" type="line"/>
      <point x="318.4315789473684" y="585.8421052631578"/>
      <point x="294.1894736842105" y="526.4315789473684"/>
      <point x="258.11578947368423" y="438.34736842105264" type="curve"/>
      <point x="161.95789473684212" y="209.8421052631579" type="line"/>
      <point x="125.70526315789475" y="126.50526315789475"/>
      <point x="99.36842105263158" y="66.83157894736841"/>
    </contour>
    <contour>
      <point x="120.63157894736842" y="444.3684210526316" type="line"/>
      <point x="180.14736842105265" y="445.53684210526313"/>
      <point x="247.98947368421054" y="446.70526315789476"/>
      <point x="284.84210526315786" y="446.87368421052633" type="curve"/>
      <point x="533.4947368421052" y="446.87368421052633" type="line"/>
      <point x="570.3473684210526" y="446.70526315789476"/>
      <point x="638.0210526315789" y="445.53684210526313"/>
      <point x="697.3684210526314" y="444.3684210526316" type="curve"/>
      <point x="706.0631578947368" y="488.4947368421052" type="line"/>
      <point x="646.5473684210526" y="487.3263157894737"/>
      <point x="578.7894736842105" y="486.1578947368421"/>
      <point x="541.8526315789474" y="485.9894736842105" type="curve"/>
      <point x="293.19999999999993" y="485.9894736842105" type="line"/>
      <point x="256.43157894736845" y="486.1578947368421"/>
      <point x="188.67368421052632" y="487.3263157894737"/>
      <point x="129.32631578947368" y="488.4947368421052" type="curve"/>
    </contour>
    <contour>
      <point x="302.89473684210526" y="0.0" type="curve"/>
      <point x="353.621052631579" y="0.0" type="line"/>
      <point x="381.0315789473684" y="67.16842105263157"/>
      <point x="404.6105263157895" y="125.7578947368421"/>
      <point x="438.8526315789474" y="209.8421052631579" type="curve"/>
      <point x="535.0105263157895" y="438.3473684210526" type="line"/>
      <point x="573.0947368421054" y="525.8526315789475"/>
      <point x="597.8421052631578" y="583.3473684210526"/>
      <point x="628.9263157894736" y="654.6842105263158" type="curve"/>
      <point x="578.6210526315789" y="654.6842105263158" type="line"/>
      <point x="550.957894736842" y="585.8421052631578"/>
      <point x="526.7157894736843" y="526.4315789473684"/>
      <point x="490.64210526315793" y="438.34736842105264" type="curve"/>
      <point x="394.4842105263158" y="209.8421052631579" type="line"/>
      <point x="358.23157894736846" y="126.50526315789475"/>
      <point x="331.8947368421052" y="66.83157894736841"/>
    </contour>
  </outline>
</glyph>
<glyph name="ampersand" format="2">
  <advance width="718.0919540229885"/>
  <unicode hex="0026"/>
  <outline>
    <contour>
      <point x="581.4367816091954" y="0.0" type="curve"/>
      <point x="646.4827586206897" y="0.0" type="line"/>
      <point x="600.2758620689655" y="55.12643678160919"/>
      <point x="555.6206896551724" y="108.51724137931035"/>
      <point x="508.3333333333333" y="165.35632183908046" type="curve"/>
      <point x="320.01149425287355" y="396.88505747126436" type="line" smooth="yes"/>
      <point x="267.58620689655174" y="461.4942528735632"/>
      <point x="248.24137931034483" y="515.9195402298851"/>
      <point x="261.6896551724138" y="578.9770114942528" type="curve" smooth="yes"/>
      <point x="275.95402298850576" y="643.2988505747126"/>
      <point x="322.6436781609195" y="681.8850574712644"/>
      <point x="393.49425287356325" y="683.8850574712644" type="curve"/>
      <point x="455.735632183908" y="681.7011494252874"/>
      <point x="498.08045977011494" y="634.5632183908045"/>
      <point x="484.0" y="564.6091954022988" type="curve" smooth="yes"/>
      <point x="471.91954022988506" y="506.0229885057471"/>
      <point x="388.1494252873564" y="463.2068965517242"/>
      <point x="302.7471264367817" y="412.22988505747117" type="curve"/>
      <point x="327.55172413793105" y="379.5862068965517" type="line"/>
      <point x="410.8965517241379" y="431.5862068965518"/>
      <point x="513.528735632184" y="484.6091954022989"/>
      <point x="528.1609195402299" y="557.1379310344828" type="curve" smooth="yes"/>
      <point x="547.5287356321838" y="652.6091954022988"/>
      <point x="481.66666666666663" y="725.3678160919541"/>
      <point x="394.3103448275862" y="725.3678160919541" type="curve" smooth="yes"/>
      <point x="307.91954022988506" y="725.3678160919541"/>
      <point x="234.60919540229887" y="673.8390804597701"/>
      <point x="215.42528735632183" y="585.0804597701149" type="curve" smooth="yes"/>
      <point x="197.79310344827587" y="500.36781609195407"/>
      <point x="231.05747126436782" y="434.08045977011494"/>
      <point x="283.5862068965517" y="369.0" type="curve" smooth="yes"/>
      <point x="474.01149425287355" y="136.0" type="line"/>
      <point x="509.9080459770115" y="90.36781609195403"/>
      <point x="547.9885057471264" y="42.367816091954026"/>
    </contour>
    <contour>
      <point x="236.81609195402297" y="-9.367816091954023" type="curve" smooth="yes"/>
      <point x="308.1609195402299" y="-9.367816091954023"/>
      <point x="386.2643678160919" y="58.8735632183908"/>
      <point x="478.95402298850576" y="121.29885057471265" type="curve"/>
      <point x="491.32183908045977" y="121.29885057471265" type="line"/>
      <point x="489.4022988505747" y="133.32183908045977" type="line"/>
      <point x="460.62068965517244" y="160.51724137931035" type="line"/>
      <point x="368.34482758620686" y="93.66666666666666"/>
      <point x="292.7701149425288" y="34.13793103448276"/>
      <point x="239.75862068965517" y="34.13793103448276" type="curve"/>
      <point x="127.82758620689653" y="36.321839080459775"/>
      <point x="74.60919540229885" y="111.72413793103448"/>
      <point x="93.50574712643679" y="203.02298850574712" type="curve" smooth="yes"/>
      <point x="113.2183908045977" y="296.95402298850576"/>
      <point x="187.0689655172414" y="342.1149425287356"/>
      <point x="291.816091954023" y="377.0114942528736" type="curve"/>
      <point x="275.7471264367816" y="412.4712643678161" type="line"/>
      <point x="174.29885057471265" y="380.28735632183907"/>
      <point x="73.6896551724138" y="328.18390804597703"/>
      <point x="48.05747126436782" y="207.28735632183907" type="curve" smooth="yes"/>
      <point x="25.873563218390807" y="102.816091954023"/>
      <point x="91.3448275862069" y="-9.367816091954023"/>
    </contour>
    <contour>
      <point x="513.3563218390805" y="150.9655172413793" type="line"/>
      <point x="570.2758620689656" y="214.86206896551727"/>
      <point x="623.2988505747126" y="274.67816091954023"/>
      <point x="679.4022988505747" y="337.7586206896552" type="curve"/>
      <point x="635.344827586207" y="367.5057471264368" type="line"/>
      <point x="585.8965517241378" y="305.8735632183908"/>
      <point x="538.448275862069" y="247.2413793103448"/>
      <point x="486.0" y="181.60919540229884" type="curve"/>
    </contour>
  </outline>
</glyph>
<glyph name="quotesingle" format="2">
  <advance width="188.81052631578947"/>
  <unicode hex="0027"/>
  <outline>
    <contour>
      <point x="107.78947368421053" y="456.9894736842105" type="curve"/>
      <point x="145.98947368421054" y="457.9894736842105" type="line"/>
      <point x="167.58947368421053" y="554.1052631578947"/>
      <point x="193.85263157894738" y="649.9684210526316"/>
      <point x="220.94736842105263" y="744.0842105263158" type="curve"/>
      <point x="153.1263157894737" y="742.7473684210527" type="line"/>
      <point x="140.78947368421052" y="648.8842105263158"/>
      <point x="127.53684210526315" y="554.1052631578947"/>
    </contour>
  </outline>
</glyph>
<glyph name="parenleft" format="2">
  <advance width="370.4842105263158"/>
  <unicode hex="0028"/>
  <outline>
    <contour>
      <point x="209.23157894736843" y="-114.86315789473684" type="curve"/>
      <point x="256.85263157894735" y="-99.65263157894736" type="line"/>
      <point x="180.3578947368421" y="30.368421052631582"/>
      <point x="100.96842105263158" y="180.99999999999997"/>
      <point x="134.63157894736844" y="339.9894736842105" type="curve" smooth="yes"/>
      <point x="168.29473684210527" y="499.06315789473683"/>
      <point x="307.2631578947368" y="629.7052631578947"/>
      <point x="431.59999999999997" y="741.6526315789474" type="curve"/>
      <point x="386.2315789473684" y="762.6947368421053" type="line"/>
      <point x="266.15789473684214" y="650.4526315789473"/>
      <point x="124.22105263157894" y="516.463157894737"/>
      <point x="87.71578947368421" y="345.0105263157895" type="curve" smooth="yes"/>
      <point x="51.21052631578948" y="174.4736842105263"/>
      <point x="137.90526315789475" y="15.210526315789473"/>
    </contour>
  </outline>
</glyph>
<glyph name="asterisk" format="2">
  <advance width="462.63157894736844"/>
  <unicode hex="002A"/>
  <outline>
    <contour>
      <point x="436.08421052631576" y="345.29473684210535" type="curve"/>
      <point x="467.2315789473684" y="378.20000000000005" type="line"/>
      <point x="411.3894736842106" y="427.69473684210527"/>
      <point x="354.4631578947368" y="478.021052631579"/>
      <point x="298.62105263157895" y="527.5157894736843" type="curve"/>
      <point x="246.70526315789473" y="582.9368421052632"/>
      <point x="193.0421052631579" y="636.6947368421054"/>
      <point x="141.21052631578948" y="690.2842105263157" type="curve"/>
      <point x="110.97894736842106" y="657.2947368421053" type="line"/>
      <point x="165.90526315789475" y="607.7157894736841"/>
      <point x="222.66315789473686" y="557.4736842105264"/>
      <point x="278.67368421052635" y="506.97894736842113" type="curve"/>
      <point x="331.42105263157896" y="453.3894736842105"/>
      <point x="384.25263157894733" y="398.8"/>
    </contour>
    <contour>
      <point x="84.52631578947368" y="420.621052631579" type="line"/>
      <point x="153.69473684210527" y="448.29473684210524"/>
      <point x="223.69473684210527" y="475.9684210526316"/>
      <point x="293.77894736842103" y="504.5578947368421" type="curve"/>
      <point x="365.28421052631575" y="527.6315789473684"/>
      <point x="436.87368421052633" y="549.8736842105263"/>
      <point x="508.378947368421" y="572.9473684210525" type="curve"/>
      <point x="492.6842105263158" y="614.9578947368421" type="line"/>
      <point x="423.6" y="587.284210526316"/>
      <point x="353.6" y="559.6105263157896"/>
      <point x="284.43157894736845" y="531.9368421052632" type="curve"/>
      <point x="212.0105263157895" y="507.8631578947369"/>
      <point x="140.33684210526317" y="485.70526315789476"/>
      <point x="68.83157894736843" y="462.6315789473685" type="curve"/>
    </contour>
    <contour>
      <point x="219.38947368421054" y="302.00000000000006" type="curve"/>
      <point x="263.56842105263155" y="292.0631578947369" type="line"/>
      <point x="276.89473684210526" y="366.4842105263158"/>
      <point x="290.0526315789474" y="440.82105263157894"/>
      <point x="302.46315789473687" y="516.1578947368421" type="curve"/>
      <point x="321.22105263157897" y="588.3263157894737"/>
      <point x="339.06315789473683" y="660.4947368421053"/>
      <point x="357.8210526315789" y="733.578947368421" type="curve"/>
      <point x="313.7263157894737" y="743.4315789473685" type="line"/>
      <point x="300.4" y="669.0947368421054"/>
      <point x="287.2421052631579" y="594.6736842105263"/>
      <point x="274.8315789473684" y="522.0842105263158" type="curve"/>
      <point x="256.0736842105263" y="448.08421052631576"/>
      <point x="238.14736842105265" y="375.0842105263158"/>
    </contour>
  </outline>
</glyph>
<glyph name="plus" format="2">
  <advance width="582.5263157894736"/>
  <unicode hex="002B"/>
  <outline>
    <contour>
      <point x="227.26315789473682" y="63.23157894736842" type="curve"/>
      <point x="277.33684210526314" y="63.23157894736842" type="line"/>
      <point x="289.421052631579" y="124.49473684210525"/>
      <point x="302.42105263157896" y="190.42105263157893"/>
      <point x="309.6736842105263" y="227.2736842105263" type="curve"/>
      <point x="339.1684210526316" y="365.0842105263158" type="line"/>
      <point x="347.75789473684205" y="402.10526315789474"/>
      <point x="363.0947368421053" y="469.69473684210527"/>
      <point x="376.59999999999997" y="529.1263157894737" type="curve"/>
      <point x="326.5263157894737" y="529.1263157894737" type="line"/>
      <point x="315.357894736842" y="470.77894736842103"/>
      <point x="301.35789473684207" y="400.93684210526317"/>
      <point x="294.1052631578947" y="365.0842105263158" type="curve"/>
      <point x="264.61052631578946" y="227.2736842105263" type="line"/>
      <point x="257.0210526315789" y="191.33684210526312"/>
      <point x="241.6842105263158" y="123.57894736842104"/>
    </contour>
    <contour>
      <point x="73.04210526315791" y="271.93684210526317" type="line"/>
      <point x="132.55789473684212" y="273.1052631578947"/>
      <point x="200.39999999999998" y="274.2736842105263"/>
      <point x="237.25263157894736" y="274.4421052631579" type="curve"/>
      <point x="356.74736842105267" y="274.4421052631579" type="line"/>
      <point x="393.6" y="274.2736842105263"/>
      <point x="461.2736842105263" y="273.1052631578947"/>
      <point x="520.6210526315789" y="271.93684210526317" type="curve"/>
      <point x="530.7368421052632" y="320.4210526315789" type="line"/>
      <point x="471.30526315789473" y="319.2526315789474"/>
      <point x="402.5473684210526" y="318.08421052631576"/>
      <point x="365.69473684210527" y="317.9157894736842" type="curve"/>
      <point x="246.2" y="317.9157894736842" type="line"/>
      <point x="209.3473684210526" y="318.08421052631576"/>
      <point x="142.58947368421053" y="319.2526315789474"/>
      <point x="83.15789473684211" y="320.4210526315789" type="curve"/>
    </contour>
  </outline>
</glyph>
<glyph name="comma" format="2">
  <advance width="219.13684210526316"/>
  <unicode hex="002C"/>
  <outline>
    <contour>
      <point x="-31.126315789473683" y="-157.0" type="curve"/>
      <point x="1.1157894736842167" y="-155.9157894736842" type="line"/>
      <point x="43.284210526315775" y="-92.85263157894735"/>
      <point x="110.25263157894734" y="5.589473684210525"/>
      <point x="117.6736842105263" y="42.94736842105264" type="curve" smooth="yes"/>
      <point x="123.34736842105262" y="71.73684210526316"/>
      <point x="114.67368421052633" y="92.18947368421053"/>
      <point x="88.46315789473684" y="97.28421052631579" type="curve"/>
      <point x="55.8" y="95.61052631578947" type="line"/>
      <point x="51.800000000000004" y="69.0"/>
      <point x="48.631578947368425" y="42.38947368421053"/>
      <point x="44.547368421052624" y="16.28421052631579" type="curve"/>
      <point x="20.63157894736842" y="-41.22105263157894"/>
      <point x="-4.378947368421048" y="-98.08421052631579"/>
    </contour>
  </outline>
</glyph>
<glyph name="hyphen" format="2">
  <advance width="420.8421052631579"/>
  <unicode hex="002D"/>
  <outline>
    <contour>
      <point x="72.9578947368421" y="271.5157894736842" type="line"/>
      <point x="124.96842105263158" y="272.6842105263157"/>
      <point x="183.5578947368421" y="273.85263157894735"/>
      <point x="215.98947368421054" y="274.0210526315789" type="curve"/>
      <point x="248.42105263157896" y="273.85263157894735"/>
      <point x="306.8421052631579" y="272.6842105263157"/>
      <point x="358.85263157894735" y="271.5157894736842" type="curve"/>
      <point x="368.88421052631577" y="320.0" type="line"/>
      <point x="316.7894736842105" y="318.8315789473685"/>
      <point x="257.36842105263156" y="317.66315789473686"/>
      <point x="224.85263157894738" y="317.4947368421053" type="curve"/>
      <point x="192.50526315789472" y="317.66315789473686"/>
      <point x="134.9157894736842" y="318.8315789473685"/>
      <point x="82.98947368421052" y="320.0" type="curve"/>
    </contour>
  </outline>
</glyph>
<glyph name="period" format="2">
  <advance width="220.82105263157894"/>
  <unicode hex="002E"/>
  <outline>
    <contour>
      <point x="63.04210526315789" y="-9.589473684210526" type="curve" smooth="yes"/>
      <point x="94.25263157894736" y="-9.589473684210526"/>
      <point x="111.35789473684211" y="3.6000000000000005"/>
      <point x="118.94736842105264" y="39.71578947368421" type="curve" smooth="yes"/>
      <point x="124.53684210526318" y="71.66315789473684"/>
      <point x="105.10526315789474" y="92.62105263157895"/>
      <point x="71.05263157894737" y="92.62105263157895" type="curve" smooth="yes"/>
      <point x="39.915789473684214" y="92.62105263157895"/>
      <point x="22.736842105263158" y="80.43157894736842"/>
      <point x="17.231578947368423" y="51.90526315789474" type="curve" smooth="yes"/>
      <point x="9.557894736842107" y="16.2"/>
      <point x="28.326315789473686" y="-9.589473684210526"/>
    </contour>
  </outline>
</glyph>
<glyph name="slash" format="2">
  <advance width="441.95789473684215"/>
  <unicode hex="002F"/>
  <outline>
    <contour>
      <point x="-17.621052631578948" y="0.0" type="curve"/>
      <point x="40.4" y="0.0" type="line"/>
      <point x="87.38947368421051" y="74.0"/>
      <point x="127.37894736842107" y="136.0"/>
      <point x="186.0315789473684" y="228.0" type="curve"/>
      <point x="346.58947368421053" y="474.0" type="line"/>
      <point x="409.0842105263158" y="568.9157894736842"/>
      <point x="451.74736842105267" y="632.9157894736842"/>
      <point x="505.4105263157894" y="713.0" type="curve"/>
      <point x="447.4736842105263" y="713.0" type="line"/>
      <point x="398.5684210526316" y="636.9157894736842"/>
      <point x="357.5789473684211" y="572.0"/>
      <point x="296.0105263157895" y="476.0842105263158" type="curve"/>
      <point x="134.3684210526316" y="228.0" type="line"/>
      <point x="72.87368421052633" y="136.25263157894736"/>
      <point x="31.210526315789473" y="73.25263157894737"/>
    </contour>
  </outline>
</glyph>
<glyph name="one" format="2">
  <advance width="414.90526315789475"/>
  <unicode hex="0031"/>
  <outline>
    <contour>
      <point x="107.56842105263158" y="508.94736842105266" type="line"/>
      <point x="189.90526315789472" y="551.5263157894736"/>
      <point x="270.41052631578947" y="593.1894736842105"/>
      <point x="352.9157894736842" y="635.8526315789474" type="curve"/>
      <point x="363.70526315789476" y="686.8421052631579" type="line"/>
      <point x="276.51578947368426" y="644.0947368421052"/>
      <point x="189.57894736842107" y="602.3473684210526"/>
      <point x="102.47368421052632" y="559.6" type="curve"/>
    </contour>
    <contour>
      <point x="191.34736842105264" y="0.0" type="curve"/>
      <point x="245.79999999999998" y="0.0" type="line"/>
      <point x="260.2947368421052" y="74.49473684210527"/>
      <point x="273.70526315789465" y="139.07368421052632"/>
      <point x="289.28421052631575" y="220.32631578947368" type="curve"/>
      <point x="337.4526315789473" y="447.1684210526316" type="line"/>
      <point x="356.7052631578947" y="531.6631578947369"/>
      <point x="375.12631578947367" y="611.578947368421"/>
      <point x="391.71578947368414" y="684.5052631578948" type="curve"/>
      <point x="363.70526315789476" y="686.8421052631579" type="line"/>
      <point x="333.5894736842106" y="662.021052631579" type="line"/>
      <point x="318.9263157894737" y="588.6947368421053"/>
      <point x="302.5157894736842" y="506.29473684210524"/>
      <point x="289.6842105263158" y="443.0421052631579" type="curve"/>
      <point x="242.4421052631579" y="220.32631578947368" type="line"/>
      <point x="222.93684210526317" y="139.07368421052632"/>
      <point x="208.6842105263158" y="74.49473684210527"/>
    </contour>
  </outline>
</glyph>
<glyph name="three" format="2">
  <advance width="564.1264367816092"/>
  <unicode hex="0033"/>
  <outline>
    <contour>
      <point x="239.73563218390802" y="-9.551724137931034" type="curve" smooth="yes"/>
      <point x="390.96551724137936" y="-9.551724137931034"/>
      <point x="468.33333333333337" y="52.26436781609195"/>
      <point x="490.7011494252874" y="157.91954022988506" type="curve" smooth="yes"/>
      <point x="513.7011494252874" y="270.18390804597703"/>
      <point x="433.7241379310345" y="340.8965517241379"/>
      <point x="373.5402298850575" y="356.264367816092" type="curve"/>
      <point x="374.72413793103453" y="363.183908045977" type="line"/>
      <point x="454.8045977011494" y="378.0"/>
      <point x="520.0689655172414" y="421.5287356321839"/>
      <point x="538.0689655172414" y="505.71264367816093" type="curve" smooth="yes"/>
      <point x="561.8850574712644" y="614.080459770115"/>
      <point x="481.96551724137936" y="696.919540229885"/>
      <point x="358.0" y="696.919540229885" type="curve" smooth="yes"/>
      <point x="314.81609195402297" y="696.919540229885"/>
      <point x="199.367816091954" y="656.2068965517242"/>
      <point x="145.97701149425285" y="637.390804597701" type="curve"/>
      <point x="142.77011494252875" y="581.7586206896552" type="line"/>
      <point x="231.74712643678163" y="618.0229885057472"/>
      <point x="328.32183908045977" y="651.4942528735633"/>
      <point x="353.2183908045977" y="651.4942528735633" type="curve"/>
      <point x="450.6206896551724" y="650.3103448275863"/>
      <point x="508.1264367816092" y="596.8045977011494"/>
      <point x="489.2298850574713" y="507.32183908045977" type="curve" smooth="yes"/>
      <point x="472.14942528735634" y="427.10344827586204"/>
      <point x="400.74712643678157" y="382.78160919540227"/>
      <point x="256.39080459770116" y="382.41379310344826" type="curve"/>
      <point x="239.10344827586206" y="382.78160919540227"/>
      <point x="220.0" y="383.9655172413793"/>
      <point x="203.08045977011494" y="384.1494252873563" type="curve"/>
      <point x="193.13793103448276" y="338.35632183908046" type="line"/>
      <point x="210.79310344827587" y="338.54022988505744"/>
      <point x="230.8965517241379" y="339.7241379310345"/>
      <point x="248.55172413793102" y="339.9080459770115" type="curve"/>
      <point x="393.9080459770115" y="339.72413793103453"/>
      <point x="465.4942528735632" y="269.05747126436785"/>
      <point x="443.7816091954023" y="166.86206896551724" type="curve" smooth="yes"/>
      <point x="425.88505747126436" y="82.37931034482759"/>
      <point x="366.5632183908046" y="36.87356321839081"/>
      <point x="239.91954022988506" y="35.689655172413794" type="curve"/>
      <point x="193.04597701149427" y="35.689655172413794"/>
      <point x="111.0" y="67.97701149425286"/>
      <point x="24.839080459770116" y="106.87356321839081" type="curve"/>
      <point x="7.977011494252874" y="58.160919540229884" type="line"/>
      <point x="89.8735632183908" y="25.632183908045977"/>
      <point x="188.65517241379308" y="-9.551724137931034"/>
    </contour>
  </outline>
</glyph>
<glyph name="four" format="2">
  <advance width="592.3103448275862"/>
  <unicode hex="0034"/>
  <outline>
    <contour>
      <point x="319.0919540229885" y="0.0" type="curve"/>
      <point x="373.5862068965517" y="0.0" type="line"/>
      <point x="385.4022988505747" y="61.735632183908045"/>
      <point x="395.03448275862064" y="110.65517241379311"/>
      <point x="408.85057471264366" y="182.75862068965517" type="curve"/>
      <point x="464.2988505747126" y="443.55172413793105" type="line"/>
      <point x="482.66666666666663" y="523.551724137931"/>
      <point x="500.2183908045977" y="600.735632183908"/>
      <point x="519.5862068965516" y="684.551724137931" type="curve"/>
      <point x="463.0919540229885" y="684.551724137931" type="line"/>
      <point x="422.0114942528735" y="638.1034482758621"/>
      <point x="380.11494252873564" y="591.0229885057471"/>
      <point x="339.2183908045977" y="544.7586206896551" type="curve"/>
      <point x="220.87356321839079" y="416.2298850574713" type="line"/>
      <point x="161.79310344827587" y="352.51724137931035"/>
      <point x="80.44827586206895" y="266.1724137931035"/>
      <point x="24.367816091954023" y="205.45977011494253" type="curve"/>
      <point x="16.793103448275865" y="165.68965517241378" type="line"/>
      <point x="385.2413793103448" y="165.68965517241378" type="line"/>
      <point x="433.71264367816093" y="165.32183908045977"/>
      <point x="503.91954022988506" y="164.13793103448276"/>
      <point x="548.3908045977012" y="162.95402298850573" type="curve"/>
      <point x="558.7011494252873" y="212.4022988505747" type="line"/>
      <point x="514.0459770114943" y="211.2183908045977"/>
      <point x="442.8390804597702" y="209.85057471264366"/>
      <point x="394.0" y="209.48275862068965" type="curve"/>
      <point x="380.632183908046" y="209.48275862068965" type="line"/>
      <point x="66.42528735632185" y="209.48275862068965" type="line"/>
      <point x="69.3448275862069" y="191.19540229885058" type="line"/>
      <point x="111.24137931034484" y="238.27586206896552"/>
      <point x="152.50574712643677" y="284.7241379310345"/>
      <point x="194.4022988505747" y="331.8045977011494" type="curve"/>
      <point x="357.0919540229885" y="508.49425287356325" type="line"/>
      <point x="406.17241379310343" y="562.0229885057472"/>
      <point x="455.88505747126436" y="616.3678160919542"/>
      <point x="505.96551724137925" y="670.080459770115" type="curve"/>
      <point x="460.7241379310345" y="657.4827586206897" type="line"/>
      <point x="446.09195402298843" y="583.2183908045977"/>
      <point x="431.64367816091954" y="513.5862068965517"/>
      <point x="417.1954022988505" y="439.32183908045977" type="curve"/>
      <point x="365.85057471264366" y="197.04597701149424" type="line"/>
      <point x="361.9310344827586" y="182.75862068965517" type="line"/>
      <point x="345.1954022988506" y="110.65517241379311"/>
      <point x="333.64367816091954" y="61.91954022988506"/>
    </contour>
  </outline>
</glyph>
<glyph name="five" format="2">
  <advance width="570.2068965517241"/>
  <unicode hex="0035"/>
  <outline>
    <contour>
      <point x="234.73563218390805" y="-9.551724137931034" type="curve" smooth="yes"/>
      <point x="382.33333333333337" y="-9.551724137931034"/>
      <point x="472.96551724137936" y="57.55172413793104"/>
      <point x="502.1494252873564" y="194.83908045977012" type="curve" smooth="yes"/>
      <point x="533.9655172413793" y="342.8390804597701"/>
      <point x="438.4367816091954" y="435.7586206896552"/>
      <point x="318.35632183908046" y="435.7586206896552" type="curve" smooth="yes"/>
      <point x="270.85057471264366" y="435.7586206896552"/>
      <point x="220.0574712643678" y="416.2298850574713"/>
      <point x="177.89655172413794" y="398.9655172413793" type="curve"/>
      <point x="171.16091954022988" y="398.9655172413793" type="line"/>
      <point x="181.60919540229884" y="449.02298850574715" type="line"/>
      <point x="194.79310344827584" y="510.36781609195407"/>
      <point x="212.68965517241378" y="589.0344827586207"/>
      <point x="227.50574712643677" y="659.5402298850574" type="curve"/>
      <point x="204.1494252873563" y="640.7586206896551" type="line"/>
      <point x="307.5977011494253" y="640.7586206896551" type="line"/>
      <point x="387.0459770114943" y="639.2068965517241"/>
      <point x="469.6781609195403" y="637.6551724137931"/>
      <point x="550.9425287356322" y="636.103448275862" type="curve"/>
      <point x="561.0689655172414" y="684.551724137931" type="line"/>
      <point x="181.13793103448276" y="684.551724137931" type="line"/>
      <point x="167.32183908045977" y="611.264367816092"/>
      <point x="151.32183908045977" y="529.6091954022988"/>
      <point x="134.32183908045977" y="442.95402298850576" type="curve"/>
      <point x="112.95402298850574" y="340.11494252873564" type="line"/>
      <point x="134.75862068965515" y="337.7471264367816" type="line"/>
      <point x="196.89655172413794" y="372.1724137931035"/>
      <point x="264.32183908045977" y="391.4367816091954"/>
      <point x="305.40229885057477" y="391.4367816091954" type="curve"/>
      <point x="404.17241379310343" y="390.2528735632184"/>
      <point x="481.02298850574715" y="327.9310344827586"/>
      <point x="454.86206896551727" y="200.39080459770113" type="curve" smooth="yes"/>
      <point x="431.3333333333333" y="84.56321839080461"/>
      <point x="356.56321839080454" y="36.87356321839081"/>
      <point x="233.91954022988503" y="35.689655172413794" type="curve"/>
      <point x="187.86206896551727" y="35.689655172413794"/>
      <point x="108.99999999999999" y="67.97701149425286"/>
      <point x="24.839080459770116" y="106.87356321839081" type="curve"/>
      <point x="7.977011494252874" y="58.160919540229884" type="line"/>
      <point x="87.87356321839081" y="25.632183908045977"/>
      <point x="184.65517241379308" y="-9.551724137931034"/>
    </contour>
  </outline>
</glyph>
<glyph name="seven" format="2">
  <advance width="516.2210526315789"/>
  <unicode hex="0037"/>
  <outline>
    <contour>
      <point x="64.03157894736842" y="0.0" type="curve"/>
      <point x="127.08421052631577" y="0.0" type="line"/>
      <point x="182.31578947368422" y="84.73684210526316"/>
      <point x="237.29473684210527" y="170.22105263157894"/>
      <point x="291.6105263157895" y="253.1263157894737" type="curve"/>
      <point x="388.5052631578947" y="396.93684210526317" type="line"/>
      <point x="446.9894736842105" y="483.8315789473684"/>
      <point x="500.6421052631578" y="562.978947368421"/>
      <point x="556.3789473684211" y="646.2105263157895" type="curve"/>
      <point x="564.9052631578948" y="684.5052631578948" type="line"/>
      <point x="117.0" y="684.5052631578948" type="line"/>
      <point x="106.71578947368421" y="635.8421052631579" type="line"/>
      <point x="194.20000000000002" y="637.4315789473684"/>
      <point x="281.76842105263154" y="639.1052631578948"/>
      <point x="369.2526315789474" y="640.6947368421053" type="curve"/>
      <point x="515.5578947368422" y="640.6947368421053" type="line"/>
      <point x="503.09473684210525" y="653.4736842105264" type="line"/>
      <point x="467.3578947368421" y="600.4"/>
      <point x="433.3684210526316" y="548.1578947368421"/>
      <point x="399.4631578947368" y="495.0842105263158" type="curve"/>
      <point x="254.57894736842104" y="279.7052631578947" type="line"/>
      <point x="191.7578947368421" y="188.05263157894737"/>
      <point x="127.85263157894738" y="93.56842105263158"/>
    </contour>
  </outline>
</glyph>
<glyph name="less" format="2">
  <advance width="562.5263157894736"/>
  <unicode hex="003C"/>
  <outline>
    <contour>
      <point x="459.8736842105263" y="80.69473684210526" type="curve"/>
      <point x="470.9894736842105" y="131.34736842105264" type="line"/>
      <point x="402.178947368421" y="163.49473684210525"/>
      <point x="325.2105263157895" y="199.30526315789473"/>
      <point x="254.5684210526316" y="232.36842105263156" type="curve"/>
      <point x="139.77894736842106" y="288.42105263157896" type="line"/>
      <point x="141.86315789473684" y="295.2631578947368" type="line"/>
      <point x="279.38947368421054" y="351.14736842105265" type="line"/>
      <point x="364.18947368421055" y="384.12631578947367"/>
      <point x="456.31578947368416" y="419.93684210526317"/>
      <point x="539.2842105263156" y="452.0" type="curve"/>
      <point x="550.6526315789473" y="509.83157894736837" type="line"/>
      <point x="485.9684210526315" y="482.4947368421052"/>
      <point x="423.7894736842105" y="456.32631578947365"/>
      <point x="369.61052631578946" y="434.0736842105263" type="curve"/>
      <point x="261.2842105263158" y="390.0842105263158" type="line"/>
      <point x="209.02105263157893" y="369.2526315789474"/>
      <point x="146.75789473684208" y="344.5052631578948"/>
      <point x="83.2421052631579" y="320.5894736842105" type="curve"/>
      <point x="72.1263157894737" y="269.93684210526317" type="line"/>
      <point x="125.64210526315789" y="246.02105263157895"/>
      <point x="177.9894736842105" y="221.2736842105263"/>
      <point x="220.42105263157893" y="200.44210526315788" type="curve"/>
      <point x="311.0842105263158" y="156.45263157894738" type="line"/>
      <point x="355.17894736842106" y="134.20000000000002"/>
      <point x="407.18947368421044" y="107.1157894736842"/>
    </contour>
  </outline>
</glyph>
<glyph name="equal" format="2">
  <advance width="562.5263157894736"/>
  <unicode hex="003D"/>
  <outline>
    <contour>
      <point x="51.46315789473684" y="164.8315789473684" type="line"/>
      <point x="110.97894736842105" y="166.0"/>
      <point x="178.82105263157897" y="167.16842105263157"/>
      <point x="215.67368421052632" y="167.33684210526314" type="curve"/>
      <point x="313.4842105263158" y="167.33684210526314" type="line"/>
      <point x="350.33684210526314" y="167.16842105263157"/>
      <point x="418.0105263157895" y="166.0"/>
      <point x="477.35789473684207" y="164.8315789473684" type="curve"/>
      <point x="487.47368421052636" y="213.31578947368422" type="line"/>
      <point x="428.0421052631579" y="212.14736842105262"/>
      <point x="359.2842105263158" y="210.97894736842105"/>
      <point x="322.43157894736845" y="210.81052631578947" type="curve"/>
      <point x="224.62105263157895" y="210.81052631578947" type="line"/>
      <point x="187.7684210526316" y="210.97894736842105"/>
      <point x="121.01052631578946" y="212.14736842105262"/>
      <point x="61.57894736842104" y="213.31578947368422" type="curve"/>
    </contour>
    <contour>
      <point x="95.47368421052632" y="379.0421052631579" type="line"/>
      <point x="154.9894736842105" y="380.2105263157894"/>
      <point x="222.83157894736843" y="381.37894736842105"/>
      <point x="259.68421052631584" y="381.5473684210526" type="curve"/>
      <point x="357.4947368421053" y="381.5473684210526" type="line"/>
      <point x="394.34736842105264" y="381.37894736842105"/>
      <point x="462.0210526315789" y="380.2105263157894"/>
      <point x="521.3684210526316" y="379.0421052631579" type="curve"/>
      <point x="531.4842105263158" y="427.52631578947364" type="line"/>
      <point x="472.0526315789474" y="426.3578947368421"/>
      <point x="403.2947368421053" y="425.1894736842105"/>
      <point x="366.44210526315794" y="425.0210526315789" type="curve"/>
      <point x="268.6315789473685" y="425.0210526315789" type="line"/>
      <point x="231.77894736842106" y="425.1894736842105"/>
      <point x="165.02105263157893" y="426.3578947368421"/>
      <point x="105.58947368421052" y="427.52631578947364" type="curve"/>
    </contour>
  </outline>
</glyph>
<glyph name="greater" format="2">
  <advance width="562.5263157894736"/>
  <unicode hex="003E"/>
  <outline>
    <contour>
      <point x="32.29473684210526" y="80.69473684210526" type="line"/>
      <point x="96.97894736842105" y="108.03157894736842"/>
      <point x="159.1578947368421" y="134.20000000000002"/>
      <point x="213.33684210526317" y="156.45263157894738" type="curve"/>
      <point x="321.66315789473686" y="200.44210526315788" type="line"/>
      <point x="373.92631578947373" y="221.2736842105263"/>
      <point x="436.1894736842105" y="246.02105263157895"/>
      <point x="499.7052631578947" y="269.93684210526317" type="curve"/>
      <point x="510.82105263157894" y="320.5894736842105" type="line"/>
      <point x="457.30526315789473" y="344.5052631578947"/>
      <point x="404.9578947368421" y="369.2526315789474"/>
      <point x="362.5263157894737" y="390.0842105263158" type="curve"/>
      <point x="271.8631578947368" y="434.0736842105263" type="line"/>
      <point x="227.76842105263157" y="456.3263157894737"/>
      <point x="175.75789473684208" y="483.4105263157894"/>
      <point x="123.07368421052631" y="509.83157894736837" type="curve"/>
      <point x="111.9578947368421" y="459.178947368421" type="line"/>
      <point x="180.76842105263157" y="427.0315789473684"/>
      <point x="257.7368421052631" y="391.2210526315789"/>
      <point x="328.37894736842105" y="358.1578947368421" type="curve"/>
      <point x="443.1684210526316" y="302.10526315789474" type="line"/>
      <point x="441.08421052631576" y="295.2631578947369" type="line"/>
      <point x="303.5578947368421" y="239.37894736842105" type="line"/>
      <point x="218.7578947368421" y="206.4"/>
      <point x="126.63157894736842" y="170.58947368421053"/>
      <point x="43.66315789473684" y="138.5263157894737" type="curve"/>
    </contour>
  </outline>
</glyph>
<glyph name="at" format="2">
  <advance width="877.2736842105263"/>
  <unicode hex="0040"/>
  <outline>
    <contour>
      <point x="473.68421052631584" y="-124.94736842105263" type="curve" smooth="yes"/>
      <point x="537.8526315789474" y="-124.94736842105263"/>
      <point x="664.6" y="-80.53684210526315"/>
      <point x="755.8526315789474" y="-50.12631578947368" type="curve"/>
      <point x="755.8526315789474" y="-4.4526315789473685" type="line"/>
      <point x="643.842105263158" y="-46.873684210526314"/>
      <point x="523.3368421052633" y="-84.36842105263159"/>
      <point x="473.68421052631584" y="-86.45263157894738" type="curve"/>
      <point x="189.7157894736842" y="-83.2842105263158"/>
      <point x="62.89473684210527" y="117.16842105263157"/>
      <point x="108.23157894736842" y="333.42105263157896" type="curve" smooth="yes"/>
      <point x="151.22105263157894" y="537.8631578947368"/>
      <point x="293.8421052631579" y="623.1368421052631"/>
      <point x="468.68421052631584" y="626.3052631578947" type="curve"/>
      <point x="690.821052631579" y="623.1368421052631"/>
      <point x="815.3052631578947" y="457.44210526315794"/>
      <point x="776.6421052631579" y="251.2842105263158" type="curve" smooth="yes"/>
      <point x="769.0631578947368" y="211.38947368421051"/>
      <point x="674.1894736842104" y="102.01052631578948"/>
      <point x="640.5263157894736" y="100.83157894736841" type="curve"/>
      <point x="586.4631578947369" y="103.9157894736842"/>
      <point x="563.7263157894737" y="132.32631578947368"/>
      <point x="577.1473684210526" y="199.01052631578946" type="curve"/>
      <point x="608.0421052631579" y="347.7368421052631" type="line"/>
      <point x="618.7157894736843" y="386.1684210526316"/>
      <point x="632.1368421052633" y="434.58947368421053"/>
      <point x="644.6421052631579" y="479.0105263157895" type="curve"/>
      <point x="601.021052631579" y="475.58947368421053" type="line"/>
      <point x="585.7684210526315" y="419.51578947368415" type="line"/>
      <point x="580.0947368421052" y="419.51578947368415" type="line"/>
      <point x="545.1789473684211" y="449.1894736842105"/>
      <point x="485.1157894736842" y="484.9263157894737"/>
      <point x="441.8842105263158" y="484.9263157894737" type="curve" smooth="yes"/>
      <point x="348.0526315789474" y="484.9263157894737"/>
      <point x="275.14736842105265" y="414.4947368421053"/>
      <point x="251.56842105263158" y="301.17894736842106" type="curve" smooth="yes"/>
      <point x="226.4842105263158" y="182.0842105263158"/>
      <point x="273.4947368421053" y="72.49473684210527"/>
      <point x="393.3157894736842" y="72.49473684210527" type="curve" smooth="yes"/>
      <point x="426.1368421052632" y="72.49473684210527"/>
      <point x="482.70526315789476" y="103.90526315789474"/>
      <point x="527.9578947368421" y="143.31578947368422" type="curve"/>
      <point x="533.5473684210526" y="143.31578947368422" type="line"/>
      <point x="542.0631578947368" y="102.73684210526316"/>
      <point x="571.2631578947369" y="62.66315789473684"/>
      <point x="647.5263157894738" y="62.66315789473684" type="curve" smooth="yes"/>
      <point x="683.4526315789474" y="62.66315789473684"/>
      <point x="802.4736842105264" y="177.74736842105264"/>
      <point x="814.8947368421052" y="243.6" type="curve" smooth="yes"/>
      <point x="858.4842105263158" y="472.87368421052633"/>
      <point x="710.5473684210526" y="664.8"/>
      <point x="469.7684210526316" y="664.8" type="curve" smooth="yes"/>
      <point x="279.0947368421053" y="664.8"/>
      <point x="114.73684210526315" y="563.2947368421053"/>
      <point x="69.14736842105263" y="339.5263157894737" type="curve" smooth="yes"/>
      <point x="20.968421052631577" y="104.97894736842105"/>
      <point x="166.07368421052632" y="-124.94736842105263"/>
    </contour>
    <contour>
      <point x="401.6105263157895" y="112.6842105263158" type="curve"/>
      <point x="307.34736842105264" y="114.6842105263158"/>
      <point x="272.5368421052632" y="193.38947368421054"/>
      <point x="294.10526315789474" y="295.7368421052632" type="curve" smooth="yes"/>
      <point x="312.0947368421053" y="380.10526315789474"/>
      <point x="362.23157894736846" y="441.4842105263158"/>
      <point x="447.67368421052635" y="443.5684210526316" type="curve"/>
      <point x="483.48421052631585" y="442.40000000000003"/>
      <point x="536.2736842105263" y="413.67368421052635"/>
      <point x="573.3263157894737" y="382.94736842105266" type="curve"/>
      <point x="533.2631578947369" y="197.78947368421052" type="line"/>
      <point x="489.46315789473687" y="147.2421052631579"/>
      <point x="432.01052631578955" y="114.93684210526317"/>
    </contour>
  </outline>
</glyph>
<glyph name="A" format="2">
  <advance width="675.1578947368421"/>
  <unicode hex="0041"/>
  <anchor x="285.53684210526313" y="0.0" name="bottom"/>
  <anchor x="592.8526315789474" y="0.0" name="ogonek"/>
  <anchor x="435.36842105263156" y="713.0" name="top"/>
  <outline>
    <contour>
      <point x="-24.03157894736842" y="0.0" type="curve"/>
      <point x="42.18947368421052" y="0.0" type="line"/>
      <point x="92.41052631578945" y="88.89473684210526"/>
      <point x="145.63157894736844" y="182.21052631578948"/>
      <point x="194.93684210526314" y="269.2736842105263" type="curve"/>
      <point x="425.0842105263158" y="662.9368421052632" type="line"/>
      <point x="431.9263157894737" y="662.9368421052632" type="line"/>
      <point x="495.2842105263158" y="268.1894736842105" type="line"/>
      <point x="507.59999999999997" y="183.0421052631579"/>
      <point x="521.6631578947369" y="85.2315789473684"/>
      <point x="533.9789473684211" y="0.0" type="curve"/>
      <point x="593.357894736842" y="0.0" type="line"/>
      <point x="579.5263157894738" y="74.83157894736841"/>
      <point x="563.6105263157895" y="162.25263157894736"/>
      <point x="548.8631578947368" y="242.57894736842104" type="curve"/>
      <point x="508.7157894736842" y="487.0" type="line"/>
      <point x="496.89473684210526" y="571.1684210526316"/>
      <point x="486.90526315789464" y="641.6631578947369"/>
      <point x="476.91578947368424" y="713.0" type="curve"/>
      <point x="396.821052631579" y="713.0" type="line"/>
      <point x="354.8315789473684" y="638.9999999999999"/>
      <point x="316.75789473684216" y="571.9157894736842"/>
      <point x="268.93684210526317" y="487.9157894736842" type="curve"/>
      <point x="124.9578947368421" y="243.0" type="line"/>
      <point x="78.21052631578948" y="166.9157894736842"/>
      <point x="23.631578947368418" y="77.9157894736842"/>
    </contour>
    <contour>
      <point x="133.97894736842105" y="195.67368421052632" type="line"/>
      <point x="522.9157894736842" y="195.67368421052632" type="line"/>
      <point x="529.5894736842105" y="238.30526315789473" type="line"/>
      <point x="144.94736842105263" y="238.30526315789473" type="line"/>
    </contour>
  </outline>
</glyph>
<glyph name="C" format="2">
  <advance width="685.578947368421"/>
  <unicode hex="0043"/>
  <anchor x="348.2421052631579" y="0.0" name="bottom"/>
  <anchor x="489.08421052631576" y="713.0" name="top"/>
  <outline>
    <contour>
      <point x="381.42105263157896" y="-9.589473684210526" type="curve" smooth="yes"/>
      <point x="426.4105263157895" y="-9.589473684210526"/>
      <point x="523.3473684210526" y="17.82105263157895"/>
      <point x="582.8421052631579" y="39.231578947368426" type="curve"/>
      <point x="587.8736842105262" y="97.81052631578946" type="line"/>
      <point x="514.4631578947367" y="63.400000000000006"/>
      <point x="416.6210526315789" y="37.305263157894736"/>
      <point x="384.29473684210524" y="37.305263157894736" type="curve"/>
      <point x="176.96842105263158" y="40.38947368421052"/>
      <point x="98.09473684210526" y="210.4"/>
      <point x="136.32631578947365" y="391.1473684210526" type="curve" smooth="yes"/>
      <point x="177.72631578947366" y="585.9052631578948"/>
      <point x="308.58947368421053" y="674.7684210526315"/>
      <point x="483.38947368421054" y="677.8526315789474" type="curve"/>
      <point x="510.5473684210526" y="677.8526315789474"/>
      <point x="609.0526315789475" y="650.5157894736842"/>
      <point x="703.8842105263158" y="616.2631578947368" type="curve"/>
      <point x="720.3473684210527" y="668.1789473684211" type="line"/>
      <point x="658.736842105263" y="687.6842105263158"/>
      <point x="534.7368421052631" y="725.3368421052631"/>
      <point x="487.32631578947365" y="725.3368421052631" type="curve" smooth="yes"/>
      <point x="281.5368421052632" y="725.3368421052631"/>
      <point x="131.05263157894737" y="612.3368421052631"/>
      <point x="86.13684210526316" y="399.33684210526314" type="curve" smooth="yes"/>
      <point x="41.8" y="189.56842105263158"/>
      <point x="144.4842105263158" y="-9.589473684210526"/>
    </contour>
  </outline>
</glyph>
<glyph name="D" format="2">
  <advance width="738.6631578947369"/>
  <unicode hex="0044"/>
  <anchor x="298.33684210526314" y="0.0" name="bottom"/>
  <anchor x="393.14099999999996" y="357.0" name="center"/>
  <anchor x="448.33684210526314" y="713.0" name="top"/>
  <outline>
    <contour>
      <point x="49.5157894736842" y="0.0" type="curve"/>
      <point x="135.6" y="0.0"/>
      <point x="198.05263157894737" y="-1.6736842105263157"/>
      <point x="288.8315789473684" y="-1.6736842105263157" type="curve"/>
      <point x="552.1894736842106" y="-1.6736842105263157"/>
      <point x="658.6105263157895" y="129.0842105263158"/>
      <point x="701.4421052631579" y="332.8315789473684" type="curve" smooth="yes"/>
      <point x="743.5263157894736" y="534.7578947368421"/>
      <point x="640.1894736842106" y="714.5052631578948"/>
      <point x="403.70526315789476" y="714.5052631578948" type="curve"/>
      <point x="337.1578947368421" y="714.5052631578948"/>
      <point x="280.17894736842106" y="713.0"/>
      <point x="199.5157894736842" y="713.0" type="curve"/>
      <point x="184.02105263157893" y="634.1684210526315"/>
      <point x="170.52631578947367" y="562.9263157894736"/>
      <point x="152.94736842105263" y="473.08421052631576" type="curve"/>
      <point x="102.77894736842104" y="237.2421052631579" type="line"/>
      <point x="83.10526315789474" y="149.82105263157894"/>
      <point x="67.85263157894737" y="82.2421052631579"/>
    </contour>
    <contour>
      <point x="115.0" y="44.642105263157895" type="line"/>
      <point x="127.2421052631579" y="109.10526315789474"/>
      <point x="139.65263157894736" y="169.57894736842104"/>
      <point x="153.97894736842105" y="242.79999999999998" type="curve"/>
      <point x="201.8736842105263" y="469.7789473684211" type="line"/>
      <point x="218.45263157894738" y="543.2526315789473"/>
      <point x="231.94736842105263" y="603.4736842105262"/>
      <point x="246.44210526315788" y="668.3578947368421" type="curve"/>
      <point x="391.4947368421053" y="668.3578947368421" type="line"/>
      <point x="612.2842105263157" y="665.1052631578948"/>
      <point x="688.3157894736842" y="514.5999999999999"/>
      <point x="650.9157894736842" y="340.9263157894737" type="curve" smooth="yes"/>
      <point x="612.6842105263157" y="158.43157894736842"/>
      <point x="530.063157894737" y="47.97894736842105"/>
      <point x="291.6842105263158" y="44.642105263157895" type="curve"/>
    </contour>
  </outline>
</glyph>
<glyph name="E" format="2">
  <advance width="592.1034482758621"/>
  <unicode hex="0045"/>
  <anchor x="266.5287356321839" y="0.0" name="bottom"/>
  <anchor x="478.57471264367814" y="0.0" name="ogonek"/>
  <anchor x="416.5287356321839" y="713.0" name="top"/>
  <anchor x="135.0" y="713.0" name="topleft"/>
  <outline>
    <contour>
      <point x="49.5632183908046" y="0.0" type="curve"/>
      <point x="106.79310344827587" y="0.0" type="line"/>
      <point x="108.52873563218391" y="6.942528735632184" type="line"/>
      <point x="123.97701149425288" y="87.20689655172413"/>
      <point x="136.60919540229884" y="156.20689655172413"/>
      <point x="154.0574712643678" y="244.20689655172413" type="curve"/>
      <point x="201.77011494252872" y="468.8735632183908" type="line"/>
      <point x="221.50574712643677" y="557.4252873563219"/>
      <point x="237.68965517241378" y="626.2413793103449"/>
      <point x="256.0574712643678" y="706.8735632183908" type="curve"/>
      <point x="256.7931034482759" y="713.0" type="line"/>
      <point x="199.56321839080462" y="713.0" type="line"/>
      <point x="183.93103448275863" y="634.1839080459771"/>
      <point x="170.48275862068965" y="562.9195402298851"/>
      <point x="153.0344827586207" y="473.0" type="curve"/>
      <point x="102.85057471264368" y="237.26436781609195" type="line"/>
      <point x="83.11494252873564" y="149.89655172413794"/>
      <point x="67.93103448275862" y="82.26436781609196"/>
    </contour>
    <contour>
      <point x="94.85057471264368" y="0.0" type="line"/>
      <point x="478.9425287356321" y="0.0" type="line"/>
      <point x="489.43678160919535" y="50.632183908045974" type="line"/>
      <point x="413.9080459770115" y="49.264367816091955"/>
      <point x="333.1954022988506" y="46.89655172413793"/>
      <point x="242.03448275862067" y="45.3448275862069" type="curve"/>
      <point x="104.79310344827586" y="45.3448275862069" type="line"/>
    </contour>
    <contour>
      <point x="163.62068965517238" y="339.82758620689657" type="line"/>
      <point x="305.7816091954023" y="339.82758620689657" type="line"/>
      <point x="398.49425287356325" y="339.45977011494256"/>
      <point x="460.7586206896552" y="338.2758620689655"/>
      <point x="528.6551724137931" y="338.09195402298855" type="curve"/>
      <point x="538.9655172413793" y="388.17241379310343" type="line"/>
      <point x="474.7011494252874" y="386.98850574712645"/>
      <point x="410.43678160919546" y="385.8045977011494"/>
      <point x="316.54022988505744" y="384.4367816091954" type="curve"/>
      <point x="173.37931034482756" y="384.4367816091954" type="line"/>
    </contour>
    <contour>
      <point x="233.43678160919544" y="667.6551724137931" type="line"/>
      <point x="367.04597701149424" y="667.6551724137931" type="line"/>
      <point x="474.6551724137931" y="666.1034482758621"/>
      <point x="549.1839080459771" y="663.735632183908"/>
      <point x="619.080459770115" y="662.3678160919541" type="curve"/>
      <point x="629.3908045977012" y="713.0" type="line"/>
      <point x="243.37931034482762" y="713.0" type="line"/>
    </contour>
  </outline>
</glyph>
<glyph name="F" format="2">
  <advance width="572.2631578947369"/>
  <unicode hex="0046"/>
  <outline>
    <contour>
      <point x="49.5157894736842" y="0.0" type="curve"/>
      <point x="106.81052631578949" y="0.0" type="line"/>
      <point x="122.30526315789474" y="80.41052631578947"/>
      <point x="134.8" y="147.15789473684208"/>
      <point x="152.2947368421053" y="237.2421052631579" type="curve"/>
      <point x="201.70526315789476" y="468.8" type="line"/>
      <point x="221.37894736842108" y="557.3894736842105"/>
      <point x="237.8" y="626.2210526315789"/>
      <point x="256.13684210526316" y="706.8842105263158" type="curve"/>
      <point x="256.8105263157895" y="713.0" type="line"/>
      <point x="199.5157894736842" y="713.0" type="line"/>
      <point x="184.02105263157893" y="634.1684210526315"/>
      <point x="170.52631578947367" y="562.9263157894736"/>
      <point x="152.94736842105263" y="473.08421052631576" type="curve"/>
      <point x="102.77894736842104" y="237.2421052631579" type="line"/>
      <point x="83.10526315789474" y="149.82105263157894"/>
      <point x="67.85263157894737" y="82.2421052631579"/>
    </contour>
    <contour>
      <point x="162.89473684210526" y="338.41052631578947" type="line"/>
      <point x="295.8842105263158" y="338.41052631578947" type="line"/>
      <point x="388.53684210526313" y="337.9894736842105"/>
      <point x="450.6947368421052" y="336.82105263157894"/>
      <point x="518.6842105263158" y="336.56842105263155" type="curve"/>
      <point x="528.9684210526316" y="386.81052631578945" type="line"/>
      <point x="464.72631578947374" y="385.6421052631579"/>
      <point x="400.5684210526316" y="384.3894736842105"/>
      <point x="306.57894736842104" y="383.05263157894734" type="curve"/>
      <point x="172.67368421052632" y="383.05263157894734" type="line"/>
    </contour>
    <contour>
      <point x="233.06315789473686" y="667.6" type="line"/>
      <point x="357.46315789473687" y="667.6" type="line"/>
      <point x="465.2736842105263" y="666.0105263157895"/>
      <point x="539.6736842105263" y="663.7578947368421"/>
      <point x="609.4947368421053" y="662.421052631579" type="curve"/>
      <point x="619.7789473684211" y="713.0" type="line"/>
      <point x="243.0105263157895" y="713.0" type="line"/>
    </contour>
  </outline>
</glyph>
<glyph name="G" format="2">
  <advance width="735.7368421052631"/>
  <unicode hex="0047"/>
  <anchor x="348.2421052631579" y="0.0" name="bottom"/>
  <anchor x="498.2421052631579" y="713.0" name="top"/>
  <outline>
    <contour>
      <point x="398.5052631578948" y="-9.505263157894737" type="curve" smooth="yes"/>
      <point x="449.09473684210525" y="-9.505263157894737"/>
      <point x="553.4315789473684" y="14.905263157894737"/>
      <point x="618.0210526315789" y="34.06315789473684" type="curve"/>
      <point x="616.6105263157895" y="88.13684210526316" type="line"/>
      <point x="539.5263157894738" y="58.810526315789474"/>
      <point x="434.4315789473684" y="36.88421052631579"/>
      <point x="400.7684210526316" y="36.88421052631579" type="curve"/>
      <point x="169.81052631578947" y="39.96842105263158"/>
      <point x="97.7578947368421" y="209.89473684210526"/>
      <point x="136.15789473684208" y="391.3157894736842" type="curve" smooth="yes"/>
      <point x="178.5578947368421" y="589.9894736842106"/>
      <point x="308.10526315789474" y="674.8526315789474"/>
      <point x="482.40000000000003" y="677.8526315789474" type="curve"/>
      <point x="511.47368421052624" y="677.8526315789474"/>
      <point x="615.978947368421" y="645.9368421052633"/>
      <point x="715.978947368421" y="605.1894736842106" type="curve"/>
      <point x="732.4421052631579" y="657.1052631578947" type="line"/>
      <point x="666.1578947368421" y="680.2736842105264"/>
      <point x="532.5684210526315" y="725.3368421052631"/>
      <point x="481.98947368421057" y="725.3368421052631" type="curve" smooth="yes"/>
      <point x="274.9684210526316" y="725.3368421052631"/>
      <point x="131.22105263157894" y="611.1789473684211"/>
      <point x="86.13684210526316" y="399.33684210526314" type="curve" smooth="yes"/>
      <point x="41.05263157894736" y="186.66315789473686"/>
      <point x="140.5578947368421" y="-9.505263157894737"/>
    </contour>
    <contour>
      <point x="564.0842105263158" y="34.06315789473684" type="curve"/>
      <point x="618.0210526315789" y="34.06315789473684" type="line"/>
      <point x="630.9368421052632" y="100.90526315789474"/>
      <point x="639.8526315789474" y="149.74736842105264"/>
      <point x="649.8526315789474" y="200.58947368421053" type="curve"/>
      <point x="664.4421052631579" y="261.2631578947368"/>
      <point x="675.0315789473684" y="303.93684210526317"/>
      <point x="686.5368421052631" y="351.69473684210527" type="curve"/>
      <point x="628.3368421052633" y="351.69473684210527" type="line"/>
      <point x="619.6736842105263" y="303.93684210526317"/>
      <point x="611.9263157894737" y="261.2631578947368"/>
      <point x="601.2631578947369" y="200.58947368421053" type="curve"/>
      <point x="589.8421052631578" y="149.74736842105264"/>
      <point x="578.5052631578948" y="98.24210526315791"/>
    </contour>
  </outline>
</glyph>
<glyph name="H" format="2">
  <advance width="750.9263157894737"/>
  <unicode hex="0048"/>
  <anchor x="323.42105263157896" y="0.0" name="bottom"/>
  <anchor x="398.42105263157896" y="357.0" name="center"/>
  <anchor x="473.42105263157896" y="713.0" name="top"/>
  <anchor x="134.50526315789475" y="713.0" name="topleft"/>
  <outline>
    <contour>
      <point x="539.4421052631579" y="0.0" type="curve"/>
      <point x="597.2421052631578" y="0.0" type="line"/>
      <point x="612.6526315789473" y="80.2421052631579"/>
      <point x="625.2315789473685" y="146.9894736842105"/>
      <point x="642.7263157894736" y="237.2421052631579" type="curve"/>
      <point x="692.8947368421052" y="473.08421052631576" type="line"/>
      <point x="713.5684210526315" y="563.757894736842"/>
      <point x="728.9052631578948" y="632.3368421052631"/>
      <point x="747.2421052631578" y="713.0" type="curve"/>
      <point x="689.4421052631579" y="713.0" type="line"/>
      <point x="673.9473684210526" y="634.1684210526315"/>
      <point x="660.4526315789475" y="562.9263157894736"/>
      <point x="642.8736842105263" y="473.08421052631576" type="curve"/>
      <point x="592.7052631578948" y="237.2421052631579" type="line"/>
      <point x="573.0315789473684" y="149.82105263157894"/>
      <point x="557.7789473684211" y="82.2421052631579"/>
    </contour>
    <contour>
      <point x="49.5157894736842" y="0.0" type="curve"/>
      <point x="107.3157894736842" y="0.0" type="line"/>
      <point x="122.72631578947369" y="80.2421052631579"/>
      <point x="135.30526315789476" y="146.9894736842105"/>
      <point x="152.8" y="237.2421052631579" type="curve"/>
      <point x="202.96842105263158" y="473.08421052631576" type="line"/>
      <point x="223.6421052631579" y="563.757894736842"/>
      <point x="238.97894736842105" y="632.3368421052631"/>
      <point x="257.3157894736842" y="713.0" type="curve"/>
      <point x="199.5157894736842" y="713.0" type="line"/>
      <point x="184.02105263157893" y="634.1684210526315"/>
      <point x="170.52631578947367" y="562.9263157894736"/>
      <point x="152.94736842105263" y="473.08421052631576" type="curve"/>
      <point x="102.77894736842104" y="237.2421052631579" type="line"/>
      <point x="83.10526315789474" y="149.82105263157894"/>
      <point x="67.85263157894737" y="82.2421052631579"/>
    </contour>
    <contour>
      <point x="150.0" y="339.33684210526314" type="line"/>
      <point x="641.4736842105262" y="339.33684210526314" type="line"/>
      <point x="651.5052631578947" y="384.7368421052632" type="line"/>
      <point x="160.03157894736842" y="384.7368421052632" type="line"/>
    </contour>
  </outline>
</glyph>
<glyph name="I" format="2">
  <advance width="262.2631578947368"/>
  <unicode hex="0049"/>
  <anchor x="78.21052631578947" y="0.0" name="bottom"/>
  <anchor x="107.73684210526315" y="0.0" name="ogonek"/>
  <anchor x="228.21052631578948" y="713.0" name="top"/>
  <anchor x="134.4105263157895" y="713.0" name="topleft"/>
  <outline>
    <contour>
      <point x="49.936842105263146" y="0.0" type="curve"/>
      <point x="108.1578947368421" y="0.0" type="line"/>
      <point x="123.56842105263156" y="80.2421052631579"/>
      <point x="136.14736842105262" y="146.9894736842105"/>
      <point x="153.6421052631579" y="237.2421052631579" type="curve"/>
      <point x="203.81052631578947" y="473.08421052631576" type="line"/>
      <point x="224.4842105263158" y="563.757894736842"/>
      <point x="239.82105263157894" y="632.3368421052631"/>
      <point x="258.1578947368421" y="713.0" type="curve"/>
      <point x="199.93684210526317" y="713.0" type="line"/>
      <point x="184.44210526315788" y="634.1684210526315"/>
      <point x="170.94736842105263" y="562.9263157894736"/>
      <point x="153.3684210526316" y="473.08421052631576" type="curve"/>
      <point x="103.19999999999999" y="237.2421052631579" type="line"/>
      <point x="83.52631578947368" y="149.82105263157894"/>
      <point x="68.27368421052631" y="82.2421052631579"/>
    </contour>
  </outline>
</glyph>
<glyph name="J" format="2">
  <advance width="278.2421052631579"/>
  <unicode hex="004A"/>
  <anchor x="93.61052631578949" y="0.0" name="bottom"/>
  <anchor x="243.61052631578949" y="713.0" name="top"/>
  <outline>
    <contour>
      <point x="-60.10526315789474" y="-159.32631578947368" type="curve"/>
      <point x="-1.0315789473684194" y="-159.32631578947368" type="line"/>
      <point x="36.30526315789474" y="-107.74736842105264"/>
      <point x="125.63157894736841" y="17.65263157894737"/>
      <point x="129.72631578947372" y="38.705263157894734" type="curve" smooth="yes"/>
      <point x="146.89473684210526" y="116.88421052631578"/>
      <point x="161.13684210526316" y="197.4"/>
      <point x="178.4736842105263" y="279.0842105263158" type="curve"/>
      <point x="219.78947368421052" y="473.08421052631576" type="line"/>
      <point x="240.46315789473684" y="563.757894736842"/>
      <point x="255.8" y="632.3368421052631"/>
      <point x="274.1368421052631" y="713.0" type="curve"/>
      <point x="216.33684210526317" y="713.0" type="line"/>
      <point x="200.8421052631579" y="634.1684210526315"/>
      <point x="187.34736842105264" y="562.9263157894736"/>
      <point x="169.7684210526316" y="473.08421052631576" type="curve"/>
      <point x="122.0421052631579" y="248.86315789473684" type="line"/>
      <point x="73.61052631578946" y="36.126315789473686" type="line"/>
      <point x="20.37894736842105" y="-41.294736842105266"/>
      <point x="-18.031578947368427" y="-98.06315789473685"/>
    </contour>
  </outline>
</glyph>
<glyph name="K" format="2">
  <advance width="656.157894736842"/>
  <unicode hex="004B"/>
  <anchor x="283.62105263157895" y="0.0" name="bottom"/>
  <anchor x="433.62105263157895" y="713.0" name="top"/>
  <outline>
    <contour>
      <point x="501.71578947368414" y="0.0" type="curve"/>
      <point x="574.6947368421053" y="0.0" type="line"/>
      <point x="521.7157894736843" y="59.757894736842104"/>
      <point x="437.8315789473684" y="154.18947368421053"/>
      <point x="375.27368421052637" y="224.94736842105263" type="curve"/>
      <point x="243.00000000000003" y="379.22105263157897" type="line"/>
      <point x="244.66315789473686" y="353.6421052631579" type="line"/>
      <point x="417.94736842105266" y="491.7368421052631" type="line"/>
      <point x="510.67368421052623" y="563.3263157894736"/>
      <point x="604.2315789473685" y="635.663157894737"/>
      <point x="704.5368421052631" y="713.0" type="curve"/>
      <point x="621.9684210526316" y="713.0" type="line"/>
      <point x="524.2842105263157" y="634.8526315789474"/>
      <point x="458.3263157894737" y="580.778947368421"/>
      <point x="383.0421052631579" y="519.9578947368421" type="curve"/>
      <point x="218.38947368421054" y="390.0736842105263" type="line"/>
      <point x="176.6421052631579" y="390.0736842105263" type="line"/>
      <point x="166.94736842105263" y="345.7684210526316" type="line"/>
      <point x="208.11578947368423" y="345.7684210526316" type="line"/>
      <point x="339.6842105263158" y="192.6315789473684" type="line"/>
      <point x="388.81052631578945" y="133.6421052631579"/>
      <point x="440.59999999999997" y="72.73684210526315"/>
    </contour>
    <contour>
      <point x="49.5157894736842" y="0.0" type="curve"/>
      <point x="107.23157894736842" y="0.0" type="line"/>
      <point x="122.64210526315789" y="80.2421052631579"/>
      <point x="135.22105263157894" y="146.9894736842105"/>
      <point x="152.71578947368423" y="237.2421052631579" type="curve"/>
      <point x="202.8842105263158" y="473.08421052631576" type="line"/>
      <point x="223.55789473684212" y="563.757894736842"/>
      <point x="238.89473684210526" y="632.3368421052631"/>
      <point x="257.2315789473684" y="713.0" type="curve"/>
      <point x="199.5157894736842" y="713.0" type="line"/>
      <point x="184.02105263157893" y="634.1684210526315"/>
      <point x="170.52631578947367" y="562.9263157894736"/>
      <point x="152.94736842105263" y="473.08421052631576" type="curve"/>
      <point x="102.77894736842104" y="237.2421052631579" type="line"/>
      <point x="83.10526315789474" y="149.82105263157894"/>
      <point x="67.85263157894737" y="82.2421052631579"/>
    </contour>
  </outline>
</glyph>
<glyph name="M" format="2">
  <advance width="952.6842105263157"/>
  <unicode hex="004D"/>
  <anchor x="423.75789473684205" y="0.0" name="bottom"/>
  <anchor x="573.7578947368421" y="713.0" name="top"/>
  <outline>
    <contour>
      <point x="18.778947368421054" y="0.0" type="curve"/>
      <point x="77.14736842105263" y="0.0" type="line"/>
      <point x="121.2842105263158" y="136.76842105263157"/>
      <point x="163.58947368421053" y="268.5368421052632"/>
      <point x="199.31578947368422" y="378.7368421052632" type="curve"/>
      <point x="276.9473684210526" y="616.0421052631579" type="line"/>
      <point x="281.04210526315785" y="616.0421052631579" type="line"/>
      <point x="334.5052631578948" y="357.9157894736842" type="line"/>
      <point x="357.4" y="237.4736842105263"/>
      <point x="382.95789473684204" y="101.0421052631579"/>
      <point x="402.18947368421055" y="0.0" type="curve"/>
      <point x="447.1684210526316" y="0.0" type="line"/>
      <point x="512.2105263157896" y="105.53684210526315"/>
      <point x="591.9894736842106" y="235.4736842105263"/>
      <point x="668.1894736842105" y="359.7473684210526" type="curve"/>
      <point x="827.8421052631579" y="616.0421052631579" type="line"/>
      <point x="831.9368421052632" y="616.0421052631579" type="line"/>
      <point x="810.8631578947369" y="378.7368421052632" type="line"/>
      <point x="798.7789473684212" y="266.7894736842106"/>
      <point x="785.694736842105" y="140.5157894736842"/>
      <point x="770.6947368421052" y="0.0" type="curve"/>
      <point x="828.8210526315789" y="0.0" type="line"/>
      <point x="835.2315789473683" y="80.32631578947368"/>
      <point x="840.7263157894738" y="151.1578947368421"/>
      <point x="847.1368421052631" y="237.2421052631579" type="curve"/>
      <point x="868.8842105263158" y="472.9157894736842" type="line"/>
      <point x="878.2210526315789" y="560.7473684210526"/>
      <point x="885.557894736842" y="631.3368421052631"/>
      <point x="893.8105263157895" y="713.0" type="curve"/>
      <point x="832.2631578947368" y="713.0" type="line"/>
      <point x="763.1368421052631" y="600.3789473684211"/>
      <point x="700.9263157894736" y="498.0105263157895"/>
      <point x="635.8" y="391.6421052631579" type="curve"/>
      <point x="442.07368421052627" y="82.1157894736842" type="line"/>
      <point x="437.1473684210526" y="82.1157894736842" type="line"/>
      <point x="374.93684210526317" y="391.6421052631579" type="line"/>
      <point x="355.53684210526313" y="497.09473684210525"/>
      <point x="336.22105263157897" y="600.6315789473684"/>
      <point x="315.90526315789475" y="713.0" type="curve"/>
      <point x="256.0315789473684" y="713.0" type="line"/>
      <point x="230.45263157894738" y="631.3368421052631"/>
      <point x="207.62105263157895" y="557.9999999999999"/>
      <point x="180.9578947368421" y="472.9157894736842" type="curve"/>
      <point x="102.70526315789475" y="237.2421052631579" type="line"/>
      <point x="72.2842105263158" y="150.41052631578947"/>
      <point x="46.863157894736844" y="80.15789473684211"/>
    </contour>
  </outline>
</glyph>
<glyph name="N" format="2">
  <advance width="760.578947368421"/>
  <unicode hex="004E"/>
  <anchor x="326.9157894736842" y="0.0" name="bottom"/>
  <anchor x="476.9157894736842" y="713.0" name="top"/>
  <outline>
    <contour>
      <point x="49.5157894736842" y="0.0" type="curve"/>
      <point x="105.88421052631578" y="0.0" type="line"/>
      <point x="121.29473684210525" y="80.2421052631579"/>
      <point x="133.8736842105263" y="146.9894736842105"/>
      <point x="151.3684210526316" y="237.2421052631579" type="curve"/>
      <point x="234.55789473684212" y="632.621052631579" type="line"/>
      <point x="239.5684210526316" y="632.621052631579" type="line"/>
      <point x="362.91578947368424" y="383.1578947368421" type="line"/>
      <point x="435.28421052631575" y="234.14736842105265"/>
      <point x="494.4947368421052" y="111.78947368421053"/>
      <point x="548.2947368421052" y="0.0" type="curve"/>
      <point x="604.1473684210525" y="0.0" type="line"/>
      <point x="619.5578947368422" y="80.2421052631579"/>
      <point x="632.1368421052632" y="146.9894736842105"/>
      <point x="649.6315789473684" y="237.2421052631579" type="curve"/>
      <point x="699.8" y="473.08421052631576" type="line"/>
      <point x="720.4736842105262" y="563.757894736842"/>
      <point x="735.8105263157895" y="632.3368421052631"/>
      <point x="754.1473684210525" y="713.0" type="curve"/>
      <point x="697.7789473684211" y="713.0" type="line"/>
      <point x="682.2842105263157" y="634.1684210526315"/>
      <point x="668.7894736842106" y="562.9263157894736"/>
      <point x="651.2105263157895" y="473.08421052631576" type="curve"/>
      <point x="568.1894736842106" y="84.0421052631579" type="line"/>
      <point x="563.0947368421054" y="84.0421052631579" type="line"/>
      <point x="440.9157894736842" y="331.58947368421053" type="line"/>
      <point x="381.9578947368421" y="453.6947368421053"/>
      <point x="321.9157894736842" y="578.136842105263"/>
      <point x="256.9578947368421" y="713.0" type="curve"/>
      <point x="199.5157894736842" y="713.0" type="line"/>
      <point x="184.02105263157893" y="634.1684210526315"/>
      <point x="170.52631578947367" y="562.9263157894736"/>
      <point x="152.94736842105263" y="473.08421052631576" type="curve"/>
      <point x="102.77894736842104" y="237.2421052631579" type="line"/>
      <point x="83.10526315789474" y="149.82105263157894"/>
      <point x="67.85263157894737" y="82.2421052631579"/>
    </contour>
  </outline>
</glyph>
<glyph name="P" format="2">
  <advance width="615.7011494252874"/>
  <unicode hex="0050"/>
  <outline>
    <contour>
      <point x="335.8045977011494" y="301.54022988505744" type="curve"/>
      <point x="538.0459770114942" y="301.54022988505744"/>
      <point x="595.8045977011495" y="374.09195402298855"/>
      <point x="622.1724137931035" y="498.85057471264366" type="curve" smooth="yes"/>
      <point x="649.2758620689656" y="627.735632183908"/>
      <point x="580.2528735632184" y="714.551724137931"/>
      <point x="423.67816091954023" y="714.551724137931" type="curve"/>
      <point x="323.0" y="714.183908045977"/>
      <point x="255.77011494252872" y="713.183908045977"/>
      <point x="199.56321839080462" y="713.0" type="curve"/>
      <point x="231.7471264367816" y="668.3908045977012" type="line"/>
      <point x="415.816091954023" y="668.3908045977012" type="line" smooth="yes"/>
      <point x="496.58620689655174" y="668.3908045977012"/>
      <point x="601.1264367816092" y="643.0229885057471"/>
      <point x="571.1494252873563" y="504.03448275862075" type="curve" smooth="yes"/>
      <point x="545.8045977011494" y="380.8620689655172"/>
      <point x="484.8505747126437" y="346.51724137931035"/>
      <point x="336.7816091954023" y="346.51724137931035" type="curve" smooth="yes"/>
      <point x="168.77011494252872" y="346.51724137931035" type="line"/>
      <point x="159.01149425287355" y="302.7241379310345" type="line"/>
      <point x="199.01149425287358" y="302.7241379310345"/>
      <point x="284.98850574712645" y="301.7241379310345"/>
    </contour>
    <contour>
      <point x="49.5632183908046" y="0.0" type="curve"/>
      <point x="106.97701149425288" y="0.0" type="line"/>
      <point x="122.60919540229885" y="80.44827586206897"/>
      <point x="135.05747126436776" y="147.44827586206895"/>
      <point x="152.50574712643677" y="237.26436781609195" type="curve"/>
      <point x="201.95402298850573" y="468.8735632183908" type="line"/>
      <point x="221.68965517241375" y="557.4252873563219"/>
      <point x="238.05747126436782" y="626.2413793103449"/>
      <point x="256.4252873563218" y="706.8735632183908" type="curve"/>
      <point x="199.56321839080462" y="713.0" type="line"/>
      <point x="183.93103448275863" y="634.1839080459771"/>
      <point x="170.48275862068965" y="562.9195402298851"/>
      <point x="153.0344827586207" y="473.0" type="curve"/>
      <point x="102.85057471264368" y="237.26436781609195" type="line"/>
      <point x="83.11494252873564" y="149.89655172413794"/>
      <point x="67.93103448275863" y="82.26436781609196"/>
    </contour>
  </outline>
</glyph>
<glyph name="R" format="2">
  <advance width="662.3333333333333"/>
  <unicode hex="0052"/>
  <anchor x="279.5747126436782" y="0.0" name="bottom"/>
  <anchor x="414.0689655172414" y="713.0" name="top"/>
  <outline>
    <contour>
      <point x="508.49425287356325" y="0.0" type="curve"/>
      <point x="576.3793103448276" y="0.0" type="line"/>
      <point x="537.8505747126436" y="56.0"/>
      <point x="481.68965517241384" y="137.55172413793105"/>
      <point x="437.1609195402299" y="201.91954022988506" type="curve"/>
      <point x="344.2068965517242" y="342.28735632183907" type="line"/>
      <point x="332.4597701149425" y="317.8505747126437" type="line"/>
      <point x="529.5172413793105" y="316.0344827586207"/>
      <point x="589.2758620689656" y="387.03448275862064"/>
      <point x="614.4597701149426" y="506.1379310344828" type="curve" smooth="yes"/>
      <point x="640.3793103448276" y="626.919540229885"/>
      <point x="570.9885057471264" y="714.551724137931"/>
      <point x="414.22988505747134" y="714.551724137931" type="curve"/>
      <point x="316.4942528735633" y="714.3678160919541"/>
      <point x="256.6896551724137" y="713.183908045977"/>
      <point x="199.56321839080462" y="713.0" type="curve"/>
      <point x="226.78160919540227" y="668.3908045977012" type="line"/>
      <point x="406.55172413793105" y="668.3908045977012" type="line" smooth="yes"/>
      <point x="487.32183908045977" y="668.3908045977012"/>
      <point x="590.8620689655173" y="642.9425287356322"/>
      <point x="562.7011494252874" y="510.40229885057465" type="curve" smooth="yes"/>
      <point x="536.9885057471265" y="388.8390804597701"/>
      <point x="474.48275862068965" y="355.04597701149424"/>
      <point x="327.14942528735634" y="355.04597701149424" type="curve" smooth="yes"/>
      <point x="167.29885057471262" y="355.04597701149424" type="line"/>
      <point x="157.54022988505744" y="311.2528735632184" type="line"/>
      <point x="323.64367816091954" y="311.2528735632184" type="line"/>
      <point x="294.55172413793105" y="333.28735632183907" type="line"/>
      <point x="396.05747126436785" y="176.68965517241378" type="line"/>
      <point x="432.7471264367816" y="119.1609195402299"/>
      <point x="469.6206896551723" y="61.44827586206897"/>
    </contour>
    <contour>
      <point x="49.5632183908046" y="0.0" type="curve"/>
      <point x="107.1609195402299" y="0.0" type="line"/>
      <point x="122.60919540229887" y="80.44827586206897"/>
      <point x="135.05747126436782" y="147.08045977011494"/>
      <point x="152.5057471264368" y="237.26436781609195" type="curve"/>
      <point x="201.95402298850576" y="468.8735632183908" type="line"/>
      <point x="221.68965517241378" y="557.4252873563219"/>
      <point x="238.05747126436782" y="626.2413793103448"/>
      <point x="256.42528735632186" y="706.8735632183908" type="curve"/>
      <point x="199.56321839080462" y="713.0" type="line"/>
      <point x="183.93103448275863" y="634.1839080459771"/>
      <point x="170.48275862068965" y="562.9195402298851"/>
      <point x="153.0344827586207" y="473.0" type="curve"/>
      <point x="102.85057471264368" y="237.26436781609195" type="line"/>
      <point x="83.11494252873564" y="149.89655172413794"/>
      <point x="67.93103448275863" y="82.26436781609196"/>
    </contour>
  </outline>
</glyph>
<glyph name="S" format="2">
  <advance width="578.4942528735633"/>
  <unicode hex="0053"/>
  <anchor x="242.10344827586206" y="0.0" name="bottom"/>
  <anchor x="392.10344827586204" y="713.0" name="top"/>
  <outline>
    <contour>
      <point x="268.9195402298851" y="-9.551724137931034" type="curve" smooth="yes"/>
      <point x="416.9655172413793" y="-9.551724137931034"/>
      <point x="493.5172413793104" y="53.712643678160916"/>
      <point x="516.2528735632185" y="161.39080459770116" type="curve" smooth="yes"/>
      <point x="535.6206896551724" y="254.04597701149427"/>
      <point x="495.4367816091954" y="319.14942528735634"/>
      <point x="337.35632183908046" y="386.41379310344826" type="curve" smooth="yes"/>
      <point x="203.79310344827587" y="443.4712643678161"/>
      <point x="160.0" y="481.55172413793105"/>
      <point x="177.89655172413794" y="565.4022988505747" type="curve" smooth="yes"/>
      <point x="197.24137931034485" y="656.6781609195402"/>
      <point x="286.8045977011495" y="676.3908045977012"/>
      <point x="368.8390804597701" y="678.3908045977012" type="curve"/>
      <point x="391.2873563218391" y="678.3908045977012"/>
      <point x="479.8390804597701" y="648.3908045977012"/>
      <point x="560.7586206896552" y="614.3908045977012" type="curve"/>
      <point x="575.9885057471264" y="664.6551724137931" type="line"/>
      <point x="520.0459770114942" y="684.4712643678159"/>
      <point x="410.0229885057471" y="725.3678160919541"/>
      <point x="366.81609195402297" y="725.3678160919541" type="curve" smooth="yes"/>
      <point x="231.13793103448276" y="725.3678160919541"/>
      <point x="148.50574712643677" y="670.264367816092"/>
      <point x="127.95402298850574" y="572.3218390804598" type="curve" smooth="yes"/>
      <point x="104.77011494252872" y="464.0344827586207"/>
      <point x="162.13793103448276" y="408.7241379310345"/>
      <point x="305.1954022988506" y="348.1954022988506" type="curve" smooth="yes"/>
      <point x="421.5977011494253" y="299.2183908045977"/>
      <point x="484.2068965517241" y="255.42528735632183"/>
      <point x="466.3103448275862" y="167.94252873563218" type="curve" smooth="yes"/>
      <point x="443.33333333333337" y="58.770114942528735"/>
      <point x="353.32183908045977" y="39.241379310344826"/>
      <point x="269.9195402298851" y="37.241379310344826" type="curve"/>
      <point x="221.67816091954023" y="37.241379310344826"/>
      <point x="139.47126436781608" y="70.24137931034481"/>
      <point x="46.73563218390804" y="112.8735632183908" type="curve"/>
      <point x="30.505747126436784" y="61.97701149425287" type="line"/>
      <point x="116.97701149425289" y="25.896551724137936"/>
      <point x="216.73563218390805" y="-9.551724137931034"/>
    </contour>
  </outline>
</glyph>
<glyph name="T" format="2">
  <advance width="638.1789473684211"/>
  <unicode hex="0054"/>
  <anchor x="268.5052631578947" y="0.0" name="bottom"/>
  <anchor x="342.41052631578947" y="352.11578947368423" name="center"/>
  <anchor x="418.5052631578947" y="713.0" name="top"/>
  <outline>
    <contour>
      <point x="239.97894736842105" y="0.0" type="curve"/>
      <point x="297.69473684210527" y="0.0" type="line"/>
      <point x="313.10526315789474" y="80.2421052631579"/>
      <point x="325.6842105263158" y="146.9894736842105"/>
      <point x="343.17894736842106" y="237.2421052631579" type="curve"/>
      <point x="392.6736842105263" y="468.8" type="line"/>
      <point x="412.67368421052635" y="559.2210526315789"/>
      <point x="428.17894736842106" y="626.2210526315789"/>
      <point x="447.10526315789474" y="706.8842105263158" type="curve"/>
      <point x="447.7789473684211" y="713.0" type="line"/>
      <point x="390.06315789473683" y="713.0" type="line"/>
      <point x="388.4736842105263" y="706.8842105263158" type="line"/>
      <point x="373.56842105263155" y="626.2210526315789"/>
      <point x="360.90526315789475" y="558.3052631578947"/>
      <point x="342.7368421052631" y="468.8" type="curve"/>
      <point x="293.2421052631579" y="237.2421052631579" type="line"/>
      <point x="273.5684210526316" y="149.82105263157894"/>
      <point x="258.3157894736843" y="82.2421052631579"/>
    </contour>
    <contour>
      <point x="122.03157894736842" y="660.9894736842106" type="line"/>
      <point x="180.27368421052634" y="662.4947368421052"/>
      <point x="241.7684210526316" y="665.0"/>
      <point x="325.42105263157896" y="666.7578947368421" type="curve"/>
      <point x="391.41052631578947" y="666.7578947368421" type="line"/>
      <point x="401.52631578947364" y="713.0" type="line"/>
      <point x="132.65263157894736" y="713.0" type="line"/>
    </contour>
    <contour>
      <point x="424.3684210526316" y="666.7578947368421" type="line"/>
      <point x="490.3578947368421" y="666.7578947368421" type="line"/>
      <point x="574.0947368421052" y="664.9157894736842"/>
      <point x="635.0" y="662.4947368421053"/>
      <point x="692.7368421052632" y="660.9894736842106" type="curve"/>
      <point x="703.3578947368421" y="713.0" type="line"/>
      <point x="434.4842105263158" y="713.0" type="line"/>
    </contour>
  </outline>
</glyph>
<glyph name="U" format="2">
  <advance width="731.4947368421052"/>
  <unicode hex="0055"/>
  <anchor x="314.6631578947368" y="0.0" name="bottom"/>
  <anchor x="420.7894736842105" y="0.0" name="ogonek"/>
  <anchor x="464.6631578947368" y="713.0" name="top"/>
  <anchor x="789.1894736842105" y="713.0" name="topright"/>
  <outline>
    <contour>
      <point x="331.83157894736837" y="-9.589473684210526" type="curve" smooth="yes"/>
      <point x="524.957894736842" y="-9.589473684210526"/>
      <point x="606.4631578947368" y="98.57894736842105"/>
      <point x="635.9684210526316" y="237.5157894736842" type="curve" smooth="yes"/>
      <point x="645.8" y="284.58947368421053"/>
      <point x="665.4631578947368" y="379.09473684210525"/>
      <point x="685.2105263157895" y="473.08421052631576" type="curve"/>
      <point x="705.8842105263158" y="563.757894736842"/>
      <point x="721.221052631579" y="632.3368421052631"/>
      <point x="739.5578947368421" y="713.0" type="curve"/>
      <point x="681.7578947368421" y="713.0" type="line"/>
      <point x="666.2631578947369" y="634.1684210526315"/>
      <point x="652.7684210526317" y="562.9263157894736"/>
      <point x="635.1894736842105" y="473.08421052631576" type="curve"/>
      <point x="587.0315789473684" y="250.45263157894738" type="line" smooth="yes"/>
      <point x="560.2105263157895" y="125.01052631578948"/>
      <point x="500.90526315789464" y="38.642105263157895"/>
      <point x="334.34736842105264" y="37.305263157894736" type="curve"/>
      <point x="165.37894736842102" y="38.642105263157895"/>
      <point x="121.90526315789472" y="148.7473684210526"/>
      <point x="151.5578947368421" y="289.2631578947369" type="curve" smooth="yes"/>
      <point x="191.22105263157894" y="473.08421052631576" type="line"/>
      <point x="211.89473684210526" y="563.757894736842"/>
      <point x="227.23157894736843" y="632.3368421052631"/>
      <point x="245.56842105263158" y="713.0" type="curve"/>
      <point x="187.85263157894735" y="713.0" type="line"/>
      <point x="172.35789473684207" y="634.1684210526315"/>
      <point x="158.86315789473682" y="562.9263157894736"/>
      <point x="141.28421052631577" y="473.08421052631576" type="curve"/>
      <point x="125.45263157894736" y="398.17894736842106"/>
      <point x="108.28421052631579" y="328.59999999999997"/>
      <point x="100.36842105263158" y="290.10526315789474" type="curve" smooth="yes"/>
      <point x="65.86315789473684" y="129.66315789473686"/>
      <point x="135.0421052631579" y="-9.589473684210526"/>
    </contour>
  </outline>
</glyph>
<glyph name="V" format="2">
  <advance width="674.0631578947368"/>
  <unicode hex="0056"/>
  <anchor x="285.94736842105266" y="0.0" name="bottom"/>
  <anchor x="435.94736842105266" y="713.0" name="top"/>
  <outline>
    <contour>
      <point x="248.6421052631579" y="0.0" type="curve"/>
      <point x="328.32631578947365" y="0.0" type="line"/>
      <point x="369.14736842105265" y="71.74736842105263"/>
      <point x="419.71578947368414" y="161.4105263157895"/>
      <point x="456.9578947368421" y="226.9157894736842" type="curve"/>
      <point x="587.7684210526317" y="450.0" type="line"/>
      <point x="634.5157894736843" y="527.0000000000001"/>
      <point x="694.178947368421" y="625.9157894736842"/>
      <point x="746.9263157894737" y="713.0" type="curve"/>
      <point x="679.2631578947369" y="713.0" type="line"/>
      <point x="616.9684210526316" y="602.9473684210526"/>
      <point x="545.3473684210527" y="477.40000000000003"/>
      <point x="483.05263157894734" y="367.2631578947368" type="curve"/>
      <point x="300.4842105263158" y="53.76842105263158" type="line"/>
      <point x="293.6421052631579" y="53.76842105263158" type="line"/>
      <point x="240.3684210526316" y="365.34736842105264" type="line"/>
      <point x="222.6421052631579" y="475.31578947368416"/>
      <point x="202.1684210526316" y="602.9473684210526"/>
      <point x="184.4421052631579" y="713.0" type="curve"/>
      <point x="123.96842105263157" y="713.0" type="line"/>
      <point x="140.6315789473684" y="627.0"/>
      <point x="160.21052631578948" y="524.2526315789476"/>
      <point x="174.8736842105263" y="449.0842105263158" type="curve"/>
      <point x="213.34736842105264" y="226.9157894736842" type="line"/>
      <point x="224.2526315789474" y="158.9157894736842"/>
      <point x="237.82105263157897" y="71.16842105263157"/>
    </contour>
  </outline>
</glyph>
<glyph name="W" format="2">
  <advance width="1005.0631578947368"/>
  <unicode hex="0057"/>
  <anchor x="449.6947368421052" y="0.0" name="bottom"/>
  <anchor x="599.6947368421053" y="713.0" name="top"/>
  <outline>
    <contour>
      <point x="188.51578947368424" y="0.0" type="curve"/>
      <point x="268.65263157894736" y="0.0" type="line"/>
      <point x="319.4526315789474" y="105.78947368421052"/>
      <point x="379.66315789473686" y="233.65263157894736"/>
      <point x="430.37894736842105" y="339.10526315789474" type="curve"/>
      <point x="581.1263157894737" y="645.5578947368421" type="line"/>
      <point x="587.9684210526316" y="645.5578947368421" type="line"/>
      <point x="612.021052631579" y="339.1052631578947" type="line"/>
      <point x="618.7578947368422" y="233.31578947368422"/>
      <point x="627.242105263158" y="105.78947368421052"/>
      <point x="634.8947368421053" y="0.0" type="curve"/>
      <point x="716.957894736842" y="0.0" type="line"/>
      <point x="749.4526315789473" y="67.0"/>
      <point x="790.778947368421" y="152.9157894736842"/>
      <point x="826.1894736842105" y="225.9157894736842" type="curve"/>
      <point x="940.0947368421052" y="450.0" type="line"/>
      <point x="982.8421052631578" y="529.578947368421"/>
      <point x="1034.0947368421052" y="627.0"/>
      <point x="1080.0947368421052" y="713.0" type="curve"/>
      <point x="1012.8526315789475" y="713.0" type="line"/>
      <point x="959.2210526315789" y="604.621052631579"/>
      <point x="896.2631578947369" y="475.1684210526316"/>
      <point x="843.4631578947368" y="368.3684210526316" type="curve"/>
      <point x="687.9684210526316" y="58.473684210526315" type="line"/>
      <point x="681.1263157894737" y="58.473684210526315" type="line"/>
      <point x="657.578947368421" y="368.2" type="line"/>
      <point x="650.0947368421052" y="479.4947368421053"/>
      <point x="641.8631578947368" y="602.7052631578947"/>
      <point x="634.378947368421" y="713.0" type="curve"/>
      <point x="560.4315789473685" y="713.0" type="line"/>
      <point x="508.37894736842105" y="605.3684210526316"/>
      <point x="446.00000000000006" y="474.8315789473684"/>
      <point x="395.86315789473684" y="369.2842105263158" type="curve"/>
      <point x="243.61052631578949" y="58.473684210526315" type="line"/>
      <point x="236.76842105263157" y="58.473684210526315" type="line"/>
      <point x="210.97894736842107" y="361.7894736842105" type="line"/>
      <point x="202.83157894736843" y="472.1684210526316"/>
      <point x="193.93684210526314" y="602.7052631578948"/>
      <point x="185.78947368421052" y="713.0" type="curve"/>
      <point x="122.8" y="713.0" type="line"/>
      <point x="131.8842105263158" y="628.9157894736843"/>
      <point x="143.96842105263156" y="526.1684210526316"/>
      <point x="152.96842105263158" y="445.42105263157896" type="curve"/>
      <point x="172.70526315789473" y="225.0" type="line"/>
      <point x="178.03157894736844" y="154.0"/>
      <point x="184.18947368421055" y="71.08421052631579"/>
    </contour>
  </outline>
</glyph>
<glyph name="X" format="2">
  <advance width="667.3368421052631"/>
  <unicode hex="0058"/>
  <outline>
    <contour>
      <point x="-13.621052631578944" y="0.0" type="curve"/>
      <point x="60.95789473684211" y="0.0" type="line"/>
      <point x="118.00000000000001" y="66.5578947368421"/>
      <point x="165.0526315789473" y="121.37894736842107"/>
      <point x="218.34736842105264" y="183.93684210526317" type="curve"/>
      <point x="341.10526315789474" y="324.22105263157897" type="line"/>
      <point x="347.9473684210526" y="324.22105263157897" type="line"/>
      <point x="419.4736842105263" y="184.85263157894738" type="line"/>
      <point x="447.94736842105266" y="127.9578947368421"/>
      <point x="477.33684210526314" y="67.81052631578947"/>
      <point x="510.3052631578947" y="0.0" type="curve"/>
      <point x="577.0421052631579" y="0.0" type="line"/>
      <point x="535.8842105263159" y="76.0"/>
      <point x="498.6421052631578" y="143.0842105263158"/>
      <point x="457.48421052631574" y="219.0842105263158" type="curve"/>
      <point x="378.3473684210526" y="374.2526315789474" type="line"/>
      <point x="373.6736842105263" y="353.63157894736844" type="line"/>
      <point x="516.3157894736842" y="513.2315789473685" type="line"/>
      <point x="568.8105263157894" y="570.4000000000001"/>
      <point x="632.3052631578947" y="638.9052631578948"/>
      <point x="700.3052631578947" y="713.0" type="curve"/>
      <point x="624.7263157894737" y="713.0" type="line"/>
      <point x="568.2631578947369" y="646.6842105263157"/>
      <point x="509.22105263157897" y="577.7894736842106"/>
      <point x="457.58947368421053" y="518.6421052631579" type="curve"/>
      <point x="355.4842105263158" y="403.09473684210525" type="line"/>
      <point x="348.6421052631579" y="403.09473684210525" type="line"/>
      <point x="292.7684210526316" y="516.8105263157895" type="line"/>
      <point x="265.2105263157894" y="575.7894736842106"/>
      <point x="234.0736842105263" y="643.8526315789475"/>
      <point x="202.85263157894738" y="713.0" type="curve"/>
      <point x="137.04210526315788" y="713.0" type="line"/>
      <point x="179.1157894736842" y="632.6631578947367"/>
      <point x="212.3578947368421" y="565.6631578947369"/>
      <point x="246.6" y="499.4947368421053" type="curve"/>
      <point x="317.82105263157894" y="354.1578947368421" type="line"/>
      <point x="321.66315789473686" y="374.3578947368421" type="line"/>
      <point x="168.61052631578946" y="200.34736842105264" type="line"/>
      <point x="103.36842105263158" y="129.01052631578946"/>
      <point x="45.12631578947367" y="64.84210526315789"/>
    </contour>
  </outline>
</glyph>
<glyph name="Y" format="2">
  <advance width="636.0736842105263"/>
  <unicode hex="0059"/>
  <anchor x="266.70526315789476" y="0.0" name="bottom"/>
  <anchor x="416.87368421052633" y="713.0" name="top"/>
  <anchor x="117.91578947368421" y="713.0" name="topleft"/>
  <outline>
    <contour>
      <point x="305.9473684210526" y="293.4315789473684" type="line"/>
      <point x="351.52631578947364" y="293.4315789473684" type="line"/>
      <point x="566.4315789473684" y="548.3894736842105" type="line"/>
      <point x="612.5157894736841" y="600.9789473684211"/>
      <point x="660.6842105263158" y="656.6526315789474"/>
      <point x="709.357894736842" y="713.0" type="curve"/>
      <point x="636.5263157894738" y="713.0" type="line"/>
      <point x="555.1684210526315" y="612.1157894736842"/>
      <point x="512.1999999999998" y="559.8842105263158"/>
      <point x="444.83157894736837" y="476.41052631578947" type="curve"/>
      <point x="340.14736842105265" y="350.36842105263156" type="line"/>
      <point x="333.3894736842105" y="350.36842105263156" type="line"/>
      <point x="279.7684210526316" y="481.0736842105263" type="line"/>
      <point x="248.79999999999998" y="559.8000000000001"/>
      <point x="228.82105263157897" y="611.1157894736842"/>
      <point x="188.77894736842106" y="713.0" type="curve"/>
      <point x="125.54736842105264" y="713.0" type="line"/>
      <point x="154.8" y="647.9052631578948"/>
      <point x="175.05263157894737" y="602.1473684210525"/>
      <point x="199.22105263157894" y="548.3894736842105" type="curve"/>
    </contour>
    <contour>
      <point x="238.34736842105264" y="0.0" type="curve"/>
      <point x="296.2315789473684" y="0.0" type="line"/>
      <point x="311.6421052631579" y="80.2421052631579"/>
      <point x="324.2210526315789" y="146.9894736842105"/>
      <point x="341.7157894736842" y="237.2421052631579" type="curve"/>
      <point x="362.65263157894736" y="334.6736842105263" type="line"/>
      <point x="312.5473684210526" y="334.6736842105263" type="line"/>
      <point x="291.61052631578946" y="237.2421052631579" type="line"/>
      <point x="271.93684210526317" y="149.82105263157894"/>
      <point x="256.6842105263158" y="82.2421052631579"/>
    </contour>
  </outline>
</glyph>
<glyph name="Z" format="2">
  <advance width="662.7894736842105"/>
  <unicode hex="005A"/>
  <anchor x="279.76842105263154" y="0.0" name="bottom"/>
  <anchor x="354.76842105263154" y="357.0" name="center"/>
  <anchor x="429.76842105263154" y="713.0" name="top"/>
  <outline>
    <contour>
      <point x="0.8105263157894707" y="0.0" type="line"/>
      <point x="553.2315789473683" y="0.0" type="line"/>
      <point x="564.5999999999999" y="52.08421052631579" type="line"/>
      <point x="477.78947368421046" y="50.578947368421055"/>
      <point x="338.74736842105267" y="47.82105263157895"/>
      <point x="243.18947368421055" y="45.31578947368421" type="curve"/>
      <point x="44.74736842105264" y="45.31578947368421" type="line"/>
      <point x="57.252631578947366" y="15.610526315789473" type="line"/>
      <point x="445.62105263157895" y="417.30526315789473" type="line"/>
      <point x="527.178947368421" y="500.3578947368421"/>
      <point x="608.6526315789473" y="584.3263157894737"/>
      <point x="690.2842105263157" y="667.5368421052632" type="curve"/>
      <point x="699.8947368421052" y="713.0" type="line"/>
      <point x="157.4" y="713.0" type="line"/>
      <point x="146.94736842105263" y="661.4947368421053" type="line"/>
      <point x="255.25263157894742" y="663.3368421052631"/>
      <point x="356.64210526315793" y="666.0105263157895"/>
      <point x="446.36842105263156" y="667.6842105263158" type="curve"/>
      <point x="663.4736842105264" y="667.6842105263158" type="line"/>
      <point x="640.4736842105262" y="690.0631578947368" type="line"/>
      <point x="275.91578947368424" y="311.6736842105263" type="line"/>
      <point x="194.02105263157893" y="228.28421052631577"/>
      <point x="81.88421052631581" y="113.82105263157895"/>
      <point x="9.915789473684207" y="40.27368421052632" type="curve"/>
    </contour>
  </outline>
</glyph>
<glyph name="bracketleft" format="2">
  <advance width="353.42105263157896"/>
  <unicode hex="005B"/>
  <outline>
    <contour>
      <point x="27.684210526315788" y="-113.51578947368421" type="curve"/>
      <point x="80.4421052631579" y="-113.51578947368421" type="line"/>
      <point x="81.11578947368422" y="-107.4" type="line"/>
      <point x="96.61052631578946" y="-26.989473684210527"/>
      <point x="110.02105263157894" y="43.421052631578945"/>
      <point x="126.6" y="130.7578947368421" type="curve"/>
      <point x="208.17894736842106" y="517.7368421052631" type="line"/>
      <point x="227.85263157894738" y="605.4105263157895"/>
      <point x="244.18947368421055" y="675.1578947368421"/>
      <point x="262.5263157894737" y="755.8210526315789" type="curve"/>
      <point x="264.2" y="761.9368421052632" type="line"/>
      <point x="211.44210526315788" y="761.9368421052632" type="line"/>
      <point x="195.7789473684211" y="681.1052631578947"/>
      <point x="181.2842105263158" y="611.778947368421"/>
      <point x="164.62105263157895" y="523.8526315789474" type="curve"/>
      <point x="80.69473684210526" y="123.72631578947369" type="line"/>
      <point x="60.27368421052631" y="36.38947368421053"/>
      <point x="45.852631578947374" y="-33.27368421052632"/>
    </contour>
    <contour>
      <point x="68.41052631578948" y="-113.51578947368421" type="line"/>
      <point x="265.4" y="-113.51578947368421" type="line"/>
      <point x="274.17894736842106" y="-69.46315789473684" type="line"/>
      <point x="225.5157894736842" y="-69.8"/>
      <point x="173.2736842105263" y="-71.05263157894737"/>
      <point x="114.44210526315788" y="-71.47368421052632" type="curve"/>
      <point x="76.93684210526317" y="-71.47368421052632" type="line"/>
    </contour>
    <contour>
      <point x="242.21052631578948" y="719.8947368421053" type="line"/>
      <point x="277.30526315789473" y="719.8947368421053" type="line"/>
      <point x="346.7157894736842" y="719.4736842105264"/>
      <point x="395.29473684210524" y="718.2210526315789"/>
      <point x="439.95789473684215" y="717.8842105263159" type="curve"/>
      <point x="449.65263157894736" y="761.9368421052632" type="line"/>
      <point x="250.82105263157894" y="761.9368421052632" type="line"/>
    </contour>
  </outline>
</glyph>
<glyph name="backslash" format="2">
  <advance width="441.95789473684215"/>
  <unicode hex="005C"/>
  <outline>
    <contour>
      <point x="304.15789473684214" y="0.0" type="curve"/>
      <point x="355.99999999999994" y="0.0" type="line"/>
      <point x="337.0" y="73.33684210526316"/>
      <point x="321.0" y="136.25263157894736"/>
      <point x="297.16842105263163" y="228.0" type="curve"/>
      <point x="237.93684210526314" y="475.0842105263158" type="line"/>
      <point x="216.2" y="570.9157894736842"/>
      <point x="201.12631578947367" y="637.7473684210526"/>
      <point x="184.05263157894734" y="713.0" type="curve"/>
      <point x="132.37894736842105" y="713.0" type="line"/>
      <point x="152.29473684210527" y="634.7473684210526"/>
      <point x="169.12631578947367" y="568.0"/>
      <point x="192.9578947368421" y="474.9157894736842" type="curve"/>
      <point x="252.10526315789474" y="228.0" type="line"/>
      <point x="272.9263157894737" y="136.0"/>
      <point x="287.16842105263163" y="74.0"/>
    </contour>
  </outline>
</glyph>
<glyph name="asciicircum" format="2">
  <advance width="595.7263157894737"/>
  <unicode hex="005E"/>
  <outline>
    <contour>
      <point x="513.6210526315788" y="389.36842105263156" type="curve"/>
      <point x="560.4947368421052" y="390.4526315789474" type="line"/>
      <point x="513.9263157894737" y="489.0526315789474"/>
      <point x="468.27368421052637" y="585.9052631578948"/>
      <point x="421.70526315789476" y="684.5052631578948" type="curve"/>
      <point x="349.2421052631579" y="684.5052631578948" type="line"/>
      <point x="264.9263157894737" y="586.9052631578948"/>
      <point x="180.52631578947373" y="490.0526315789474"/>
      <point x="96.21052631578947" y="392.4526315789474" type="curve"/>
      <point x="150.43157894736842" y="392.4526315789474" type="line"/>
      <point x="226.31578947368422" y="475.8421052631579"/>
      <point x="302.7789473684211" y="559.7263157894737"/>
      <point x="378.66315789473686" y="643.1157894736842" type="curve"/>
      <point x="385.42105263157896" y="643.1157894736842" type="line"/>
      <point x="427.82105263157894" y="558.8947368421053"/>
      <point x="471.221052631579" y="473.5894736842105"/>
    </contour>
  </outline>
</glyph>
<glyph name="underscore" format="2">
  <advance width="386.7368421052632"/>
  <unicode hex="005F"/>
  <outline>
    <contour>
      <point x="-83.3578947368421" y="-100.61052631578947" type="line"/>
      <point x="-23.926315789473684" y="-99.4421052631579"/>
      <point x="44.831578947368435" y="-98.27368421052631"/>
      <point x="81.7684210526316" y="-98.10526315789474" type="curve"/>
      <point x="160.42105263157896" y="-98.10526315789474" type="line"/>
      <point x="197.18947368421053" y="-98.27368421052631"/>
      <point x="263.94736842105266" y="-99.4421052631579"/>
      <point x="323.37894736842105" y="-100.61052631578947" type="curve"/>
      <point x="333.24210526315795" y="-54.96842105263158" type="line"/>
      <point x="273.7263157894737" y="-56.136842105263156"/>
      <point x="204.96842105263158" y="-57.305263157894736"/>
      <point x="168.11578947368423" y="-57.473684210526315" type="curve"/>
      <point x="89.46315789473685" y="-57.473684210526315" type="line"/>
      <point x="52.61052631578948" y="-57.305263157894736"/>
      <point x="-14.147368421052631" y="-56.136842105263156"/>
      <point x="-73.49473684210527" y="-54.96842105263158" type="curve"/>
    </contour>
  </outline>
</glyph>
<glyph name="a" format="2">
  <advance width="519.1264367816092"/>
  <unicode hex="0061"/>
  <anchor x="210.00000000000003" y="0.0" name="bottom"/>
  <anchor x="380.17241379310343" y="0.0" name="ogonek"/>
  <anchor x="316.00000000000006" y="494.735632183908" name="top"/>
  <outline>
    <contour>
      <point x="176.85057471264366" y="-9.367816091954023" type="curve" smooth="yes"/>
      <point x="224.72413793103445" y="-9.367816091954023"/>
      <point x="298.9655172413793" y="35.40229885057471"/>
      <point x="353.43678160919535" y="81.48275862068964" type="curve"/>
      <point x="360.1724137931035" y="81.48275862068964" type="line"/>
      <point x="363.9080459770115" y="0.0" type="line"/>
      <point x="411.1724137931035" y="0.0" type="line"/>
      <point x="408.7241379310345" y="48.02298850574712"/>
      <point x="407.0919540229885" y="83.59770114942529"/>
      <point x="406.45977011494256" y="126.70114942528734" type="curve"/>
      <point x="424.35632183908046" y="211.0" type="line" smooth="yes"/>
      <point x="433.35632183908046" y="255.08045977011494"/>
      <point x="442.3563218390805" y="288.89655172413796"/>
      <point x="448.5402298850575" y="317.632183908046" type="curve" smooth="yes"/>
      <point x="472.09195402298855" y="428.10344827586204"/>
      <point x="421.59770114942523" y="505.1034482758621"/>
      <point x="300.63218390804593" y="505.1034482758621" type="curve" smooth="yes"/>
      <point x="266.183908045977" y="505.1034482758621"/>
      <point x="177.68965517241378" y="483.0229885057471"/>
      <point x="131.95402298850576" y="471.7586206896552" type="curve"/>
      <point x="124.37931034482759" y="419.41379310344826" type="line"/>
      <point x="201.9080459770115" y="442.0459770114943"/>
      <point x="272.03448275862075" y="460.9655172413793"/>
      <point x="293.11494252873564" y="460.9655172413793" type="curve" smooth="yes"/>
      <point x="381.17241379310343" y="460.9655172413793"/>
      <point x="426.51724137931035" y="417.98850574712645"/>
      <point x="401.2758620689655" y="313.6551724137931" type="curve"/>
      <point x="223.2183908045977" y="279.3103448275862" type="line" smooth="yes"/>
      <point x="140.8505747126437" y="263.67816091954023"/>
      <point x="60.13793103448276" y="243.20689655172416"/>
      <point x="39.321839080459775" y="150.20689655172413" type="curve" smooth="yes"/>
      <point x="18.505747126436784" y="58.39080459770115"/>
      <point x="78.0344827586207" y="-9.367816091954023"/>
    </contour>
    <contour>
      <point x="186.31034482758622" y="33.03448275862069" type="curve" smooth="yes"/>
      <point x="115.11494252873564" y="33.03448275862069"/>
      <point x="70.52873563218391" y="70.27586206896552"/>
      <point x="86.6896551724138" y="148.367816091954" type="curve" smooth="yes"/>
      <point x="99.58620689655172" y="210.58620689655172"/>
      <point x="161.33333333333331" y="226.21839080459768"/>
      <point x="232.36781609195404" y="240.29885057471265" type="curve" smooth="yes"/>
      <point x="344.2758620689655" y="262.8275862068965"/>
      <point x="373.4367816091954" y="272.45977011494256"/>
      <point x="393.51724137931035" y="280.82758620689657" type="curve"/>
      <point x="363.9080459770115" y="142.12643678160916" type="line"/>
      <point x="295.3793103448276" y="70.09195402298852"/>
      <point x="223.52873563218392" y="33.03448275862069"/>
    </contour>
  </outline>
</glyph>
<glyph name="b" format="2">
  <advance width="590.6736842105264"/>
  <unicode hex="0062"/>
  <outline>
    <contour>
      <point x="286.1473684210526" y="-9.589473684210526" type="curve" smooth="yes"/>
      <point x="407.6421052631579" y="-9.589473684210526"/>
      <point x="496.4631578947368" y="77.26315789473684"/>
      <point x="526.4631578947368" y="221.01052631578946" type="curve" smooth="yes"/>
      <point x="557.5473684210526" y="371.17894736842106"/>
      <point x="497.2315789473684" y="505.17894736842106"/>
      <point x="346.1684210526316" y="505.17894736842106" type="curve" smooth="yes"/>
      <point x="304.4315789473684" y="505.17894736842106"/>
      <point x="228.54736842105265" y="461.94736842105266"/>
      <point x="191.04210526315788" y="433.2736842105263" type="curve"/>
      <point x="184.2" y="433.2736842105263" type="line"/>
      <point x="196.69473684210527" y="493.9157894736842" type="line"/>
      <point x="216.53684210526316" y="579.8421052631579"/>
      <point x="235.12631578947367" y="659.4315789473684"/>
      <point x="255.46315789473684" y="741.0105263157895" type="curve"/>
      <point x="193.0" y="729.2526315789473" type="line"/>
      <point x="179.84210526315792" y="656.3263157894737"/>
      <point x="165.6842105263158" y="578.4105263157895"/>
      <point x="150.5263157894737" y="493.9157894736842" type="curve"/>
      <point x="92.4421052631579" y="220.32631578947368" type="line"/>
      <point x="72.93684210526317" y="139.07368421052632"/>
      <point x="58.684210526315795" y="74.49473684210527"/>
      <point x="41.34736842105263" y="0.0" type="curve"/>
      <point x="83.90526315789472" y="0.0" type="line"/>
      <point x="106.42105263157895" y="80.81052631578949" type="line"/>
      <point x="113.01052631578948" y="80.81052631578949" type="line"/>
      <point x="162.17894736842106" y="33.97894736842106"/>
      <point x="234.41052631578947" y="-9.589473684210526"/>
    </contour>
    <contour>
      <point x="280.33684210526314" y="35.54736842105263" type="curve"/>
      <point x="237.86315789473684" y="37.63157894736842"/>
      <point x="164.50526315789472" y="74.85263157894737"/>
      <point x="119.04210526315788" y="128.6421052631579" type="curve"/>
      <point x="171.43157894736842" y="374.6" type="line"/>
      <point x="222.7263157894737" y="421.65263157894736"/>
      <point x="304.5789473684211" y="459.0421052631579"/>
      <point x="335.2315789473684" y="460.2947368421053" type="curve"/>
      <point x="461.4736842105263" y="457.2947368421053"/>
      <point x="505.52631578947364" y="353.6842105263158"/>
      <point x="479.2105263157894" y="226.02105263157895" type="curve" smooth="yes"/>
      <point x="456.4736842105263" y="117.08421052631579"/>
      <point x="394.0105263157895" y="38.63157894736842"/>
    </contour>
  </outline>
</glyph>
<glyph name="c" format="2">
  <advance width="499.6421052631579"/>
  <unicode hex="0063"/>
  <anchor x="236.56842105263158" y="0.0" name="bottom"/>
  <anchor x="332.4947368421053" y="494.6736842105263" name="top"/>
  <outline>
    <contour>
      <point x="278.09473684210525" y="-9.336842105263159" type="curve" smooth="yes"/>
      <point x="313.33684210526314" y="-9.336842105263159"/>
      <point x="375.8315789473684" y="10.821052631578947"/>
      <point x="402.8315789473684" y="21.56842105263158" type="curve"/>
      <point x="405.44210526315794" y="73.1157894736842" type="line"/>
      <point x="369.0315789473684" y="54.78947368421053"/>
      <point x="307.62105263157895" y="35.95789473684211"/>
      <point x="281.9684210526316" y="35.04210526315789" type="curve" smooth="yes"/>
      <point x="151.28421052631577" y="37.04210526315789"/>
      <point x="79.06315789473685" y="123.15789473684211"/>
      <point x="109.63157894736842" y="266.9157894736842" type="curve" smooth="yes"/>
      <point x="136.2" y="390.58947368421053"/>
      <point x="221.89473684210526" y="455.29473684210524"/>
      <point x="327.9157894736842" y="460.29473684210524" type="curve"/>
      <point x="345.24210526315784" y="460.29473684210524"/>
      <point x="411.65263157894736" y="439.5473684210526"/>
      <point x="474.7263157894737" y="413.0526315789474" type="curve"/>
      <point x="489.2631578947368" y="460.021052631579" type="line"/>
      <point x="447.3263157894737" y="475.3578947368421"/>
      <point x="361.32631578947365" y="505.09473684210525"/>
      <point x="328.74736842105267" y="505.09473684210525" type="curve" smooth="yes"/>
      <point x="195.21052631578948" y="505.09473684210525"/>
      <point x="90.63157894736842" y="410.34736842105264"/>
      <point x="62.463157894736845" y="273.92631578947373" type="curve" smooth="yes"/>
      <point x="28.957894736842107" y="110.07368421052632"/>
      <point x="114.39999999999999" y="-9.336842105263159"/>
    </contour>
  </outline>
</glyph>
<glyph name="d" format="2">
  <advance width="573.8526315789474"/>
  <unicode hex="0064"/>
  <anchor x="255.26315789473685" y="0.0" name="bottom"/>
  <anchor x="289.58947368421053" y="247.33684210526314" name="center"/>
  <anchor x="407.43157894736845" y="723.8421052631579" name="top"/>
  <anchor x="599.7789473684211" y="494.6736842105263" name="topright"/>
  <outline>
    <contour>
      <point x="244.5894736842105" y="-9.589473684210526" type="curve" smooth="yes"/>
      <point x="288.74736842105256" y="-9.589473684210526"/>
      <point x="359.97894736842096" y="28.400000000000006"/>
      <point x="407.56842105263155" y="76.72631578947367" type="curve"/>
      <point x="414.1578947368421" y="76.72631578947367" type="line"/>
      <point x="397.75789473684216" y="0.0" type="line"/>
      <point x="442.4105263157894" y="0.0" type="line"/>
      <point x="456.9052631578947" y="74.49473684210527"/>
      <point x="469.4" y="139.07368421052632"/>
      <point x="484.9789473684211" y="220.32631578947368" type="curve"/>
      <point x="543.0631578947368" y="493.9157894736842" type="line"/>
      <point x="562.9052631578948" y="579.8421052631579"/>
      <point x="581.4947368421053" y="659.4315789473684"/>
      <point x="601.8315789473684" y="741.0105263157895" type="curve"/>
      <point x="539.3684210526314" y="729.2526315789473" type="line"/>
      <point x="526.2105263157895" y="656.3263157894737"/>
      <point x="512.0526315789473" y="578.4105263157895"/>
      <point x="496.89473684210526" y="493.9157894736842" type="curve"/>
      <point x="483.48421052631585" y="427.7789473684211" type="line"/>
      <point x="476.64210526315793" y="427.7789473684211" type="line"/>
      <point x="434.6421052631579" y="462.94736842105254"/>
      <point x="357.58947368421053" y="505.17894736842106"/>
      <point x="304.6105263157895" y="505.17894736842106" type="curve" smooth="yes"/>
      <point x="183.1157894736842" y="505.17894736842106"/>
      <point x="94.29473684210527" y="418.32631578947365"/>
      <point x="64.29473684210527" y="274.57894736842104" type="curve" smooth="yes"/>
      <point x="33.21052631578948" y="124.41052631578947"/>
      <point x="93.52631578947368" y="-9.589473684210526"/>
    </contour>
    <contour>
      <point x="255.5263157894737" y="35.294736842105266" type="curve"/>
      <point x="129.2842105263158" y="37.37894736842105"/>
      <point x="84.31578947368422" y="142.82105263157894"/>
      <point x="111.54736842105264" y="269.5684210526316" type="curve" smooth="yes"/>
      <point x="135.20000000000002" y="380.33684210526314"/>
      <point x="196.74736842105264" y="456.9578947368421"/>
      <point x="310.42105263157896" y="460.0421052631579" type="curve"/>
      <point x="355.6421052631579" y="458.87368421052633"/>
      <point x="426.2526315789474" y="421.65263157894736"/>
      <point x="472.63157894736844" y="383.4315789473684" type="curve"/>
      <point x="422.0736842105263" y="141.13684210526316" type="line"/>
      <point x="376.2736842105263" y="84.92631578947366"/>
      <point x="305.41052631578947" y="37.46315789473684"/>
    </contour>
  </outline>
</glyph>
<glyph name="e" format="2">
  <advance width="527.816091954023"/>
  <unicode hex="0065"/>
  <anchor x="235.71264367816093" y="0.0" name="bottom"/>
  <anchor x="331.2298850574713" y="0.0" name="ogonek"/>
  <anchor x="330.632183908046" y="494.735632183908" name="top"/>
  <outline>
    <contour>
      <point x="272.28735632183907" y="-9.551724137931034" type="curve" smooth="yes"/>
      <point x="307.83908045977006" y="-9.551724137931034"/>
      <point x="374.2068965517241" y="6.0804597701149445"/>
      <point x="421.5747126436782" y="22.080459770114942" type="curve"/>
      <point x="428.5977011494253" y="74.21839080459772" type="line"/>
      <point x="364.5977011494253" y="48.770114942528735"/>
      <point x="301.1494252873563" y="34.770114942528735"/>
      <point x="276.7011494252874" y="34.770114942528735" type="curve" smooth="yes"/>
      <point x="144.77011494252875" y="34.770114942528735"/>
      <point x="78.42528735632183" y="122.33333333333333"/>
      <point x="106.13793103448275" y="254.816091954023" type="curve"/>
      <point x="106.8735632183908" y="260.5747126436782" type="line"/>
      <point x="136.4022988505747" y="398.1954022988506"/>
      <point x="220.88505747126436" y="458.2528735632184"/>
      <point x="315.71264367816093" y="461.2528735632184" type="curve"/>
      <point x="413.35632183908046" y="458.2528735632184"/>
      <point x="460.3103448275862" y="394.0114942528736"/>
      <point x="439.5977011494253" y="293.551724137931" type="curve" smooth="yes"/>
      <point x="437.5977011494253" y="283.735632183908"/>
      <point x="434.5977011494253" y="272.91954022988506"/>
      <point x="431.5977011494253" y="263.91954022988506" type="curve"/>
      <point x="468.2068965517241" y="235.3448275862069" type="line"/>
      <point x="473.39080459770116" y="249.8965517241379"/>
      <point x="480.2068965517241" y="271.5287356321839"/>
      <point x="483.57471264367814" y="287.448275862069" type="curve" smooth="yes"/>
      <point x="508.41379310344826" y="405.39080459770116"/>
      <point x="450.6551724137931" y="504.2873563218391"/>
      <point x="316.9770114942529" y="504.2873563218391" type="curve" smooth="yes"/>
      <point x="192.58620689655172" y="504.2873563218391"/>
      <point x="91.32183908045977" y="413.55172413793105"/>
      <point x="61.32183908045977" y="271.18390804597703" type="curve" smooth="yes"/>
      <point x="25.321839080459768" y="103.89655172413794"/>
      <point x="112.16091954022987" y="-9.551724137931034"/>
    </contour>
    <contour>
      <point x="74.6551724137931" y="235.3448275862069" type="line"/>
      <point x="468.2068965517241" y="235.3448275862069" type="line"/>
      <point x="475.1264367816092" y="270.57471264367814" type="line"/>
      <point x="445.48275862068965" y="275.64367816091954" type="line"/>
      <point x="81.57471264367815" y="274.7241379310345" type="line"/>
    </contour>
  </outline>
</glyph>
<glyph name="g" format="2">
  <advance width="538.2068965517242"/>
  <unicode hex="0067"/>
  <anchor x="178.96551724137933" y="-192.0" name="bottom"/>
  <anchor x="303.2068965517241" y="494.735632183908" name="top"/>
  <outline>
    <contour>
      <point x="172.47126436781608" y="-201.367816091954" type="curve" smooth="yes"/>
      <point x="283.31034482758616" y="-201.367816091954"/>
      <point x="398.33333333333337" y="-156.73563218390805"/>
      <point x="418.06896551724145" y="-64.05747126436782" type="curve" smooth="yes"/>
      <point x="433.8045977011495" y="9.804597701149422"/>
      <point x="380.33333333333337" y="62.724137931034484"/>
      <point x="244.80459770114942" y="62.724137931034484" type="curve" smooth="yes"/>
      <point x="209.59770114942526" y="62.724137931034484" type="line" smooth="yes"/>
      <point x="135.42528735632183" y="62.724137931034484"/>
      <point x="117.66666666666666" y="90.94252873563218"/>
      <point x="123.29885057471265" y="118.47126436781609" type="curve" smooth="yes"/>
      <point x="130.3793103448276" y="150.16091954022988"/>
      <point x="168.19540229885055" y="161.3448275862069"/>
      <point x="249.9655172413793" y="172.60919540229884" type="curve" smooth="yes"/>
      <point x="347.4942528735632" y="186.24137931034483"/>
      <point x="422.8850574712644" y="225.68965517241378"/>
      <point x="442.8850574712644" y="320.632183908046" type="curve" smooth="yes"/>
      <point x="454.5172413793104" y="377.89655172413796"/>
      <point x="437.7011494252874" y="432.2413793103448"/>
      <point x="377.45977011494256" y="472.8735632183908" type="curve"/>
      <point x="361.7816091954023" y="461.9080459770115" type="line"/>
      <point x="426.49425287356325" y="459.09195402298855"/>
      <point x="491.8390804597701" y="456.35632183908046"/>
      <point x="558.551724137931" y="451.3333333333333" type="curve"/>
      <point x="567.9425287356321" y="494.91954022988506" type="line"/>
      <point x="392.51724137931035" y="494.91954022988506" type="line" smooth="yes"/>
      <point x="344.3103448275863" y="494.91954022988506"/>
      <point x="324.5747126436782" y="505.1034482758621"/>
      <point x="275.3448275862069" y="505.1034482758621" type="curve" smooth="yes"/>
      <point x="178.66666666666666" y="505.1034482758621"/>
      <point x="100.13793103448275" y="459.08045977011494"/>
      <point x="80.50574712643677" y="364.55172413793105" type="curve" smooth="yes"/>
      <point x="63.87356321839081" y="285.8390804597701"/>
      <point x="127.37931034482756" y="226.31034482758622"/>
      <point x="167.9540229885057" y="195.36781609195404" type="curve"/>
      <point x="167.9540229885057" y="189.63218390804596" type="line"/>
      <point x="118.24137931034483" y="179.0804597701149"/>
      <point x="86.77011494252872" y="157.44827586206898"/>
      <point x="77.77011494252872" y="118.71264367816092" type="curve" smooth="yes"/>
      <point x="67.77011494252872" y="73.3448275862069"/>
      <point x="99.95402298850576" y="48.97701149425288"/>
      <point x="115.21839080459769" y="41.793103448275865" type="curve"/>
      <point x="115.21839080459769" y="37.05747126436781" type="line"/>
      <point x="61.03448275862069" y="15.770114942528739"/>
      <point x="1.4252873563218371" y="-21.20689655172414"/>
      <point x="-7.390804597701152" y="-63.735632183908045" type="curve" smooth="yes"/>
      <point x="-26.574712643678165" y="-153.02298850574712"/>
      <point x="65.73563218390804" y="-201.367816091954"/>
    </contour>
    <contour>
      <point x="175.22988505747125" y="-158.70114942528735" type="curve"/>
      <point x="106.35632183908045" y="-158.33333333333334"/>
      <point x="22.241379310344833" y="-135.43678160919538"/>
      <point x="37.58620689655173" y="-63.52873563218391" type="curve" smooth="yes"/>
      <point x="44.66666666666667" y="-31.390804597701155"/>
      <point x="104.88505747126436" y="-1.4137931034482776"/>
      <point x="160.86206896551724" y="19.95402298850575" type="curve"/>
      <point x="232.0804597701149" y="19.95402298850575" type="line" smooth="yes"/>
      <point x="357.8275862068965" y="19.95402298850575"/>
      <point x="383.4367816091954" y="-16.390804597701152"/>
      <point x="373.3563218390805" y="-61.712643678160916" type="curve" smooth="yes"/>
      <point x="362.6436781609196" y="-108.5632183908046"/>
      <point x="299.2413793103448" y="-157.41379310344826"/>
    </contour>
    <contour>
      <point x="215.4137931034483" y="209.64367816091954" type="curve"/>
      <point x="161.2758620689655" y="247.25287356321837"/>
      <point x="112.77011494252874" y="296.4942528735632"/>
      <point x="124.48275862068965" y="355.6091954022989" type="curve" smooth="yes"/>
      <point x="139.19540229885058" y="429.54022988505744"/>
      <point x="197.1494252873563" y="461.3333333333333"/>
      <point x="273.816091954023" y="461.3333333333333" type="curve"/>
      <point x="350.9540229885057" y="461.3333333333333"/>
      <point x="414.62068965517244" y="405.64367816091954"/>
      <point x="397.7241379310345" y="326.5287356321839" type="curve" smooth="yes"/>
      <point x="377.5632183908046" y="233.35632183908046"/>
      <point x="294.632183908046" y="217.9080459770115"/>
    </contour>
  </outline>
</glyph>
<glyph name="h" format="2">
  <advance width="570.5263157894738"/>
  <unicode hex="0068"/>
  <guideline x="106.21052631578947" y="732.0105263157894" angle="4.470799999999997"/>
  <anchor x="238.0105263157895" y="0.0" name="bottom"/>
  <anchor x="324.0105263157895" y="409.0" name="center"/>
  <anchor x="372.16842105263163" y="723.8421052631579" name="top"/>
  <outline>
    <contour>
      <point x="41.34736842105263" y="0.0" type="curve"/>
      <point x="95.12631578947368" y="0.0" type="line"/>
      <point x="109.62105263157895" y="74.49473684210527"/>
      <point x="122.03157894736842" y="139.07368421052632"/>
      <point x="138.3578947368421" y="219.23157894736843" type="curve"/>
      <point x="166.5157894736842" y="348.6947368421052" type="line"/>
      <point x="233.46315789473684" y="411.06315789473683"/>
      <point x="313.83157894736837" y="459.0315789473684"/>
      <point x="357.29473684210524" y="459.0315789473684" type="curve" smooth="yes"/>
      <point x="448.1473684210526" y="459.0315789473684"/>
      <point x="472.2947368421053" y="405.30526315789473"/>
      <point x="451.13684210526316" y="306.68421052631584" type="curve"/>
      <point x="433.14736842105265" y="219.23157894736843" type="line"/>
      <point x="414.06315789473683" y="139.0736842105263"/>
      <point x="399.8105263157895" y="74.49473684210527"/>
      <point x="382.5578947368421" y="0.0" type="curve"/>
      <point x="436.1684210526316" y="0.0" type="line"/>
      <point x="450.66315789473686" y="74.49473684210527"/>
      <point x="463.07368421052627" y="139.0736842105263"/>
      <point x="479.56842105263155" y="220.32631578947368" type="curve"/>
      <point x="487.56842105263155" y="258.4105263157895"/>
      <point x="494.3263157894737" y="285.09473684210525"/>
      <point x="500.3263157894737" y="312.2631578947368" type="curve" smooth="yes"/>
      <point x="527.0736842105263" y="433.58947368421053"/>
      <point x="480.9894736842105" y="505.17894736842106"/>
      <point x="370.4947368421052" y="505.17894736842106" type="curve" smooth="yes"/>
      <point x="313.10526315789474" y="505.17894736842106"/>
      <point x="231.54736842105265" y="448.53684210526313"/>
      <point x="185.37894736842105" y="409.45263157894743" type="curve"/>
      <point x="179.3684210526316" y="409.45263157894743" type="line"/>
      <point x="196.69473684210527" y="493.9157894736842" type="line"/>
      <point x="216.53684210526316" y="579.8421052631579"/>
      <point x="235.12631578947367" y="659.4315789473685"/>
      <point x="255.46315789473684" y="741.0105263157895" type="curve"/>
      <point x="193.0" y="729.2526315789473" type="line"/>
      <point x="179.84210526315792" y="656.3263157894737"/>
      <point x="165.6842105263158" y="578.4105263157895"/>
      <point x="150.5263157894737" y="493.9157894736842" type="curve"/>
      <point x="92.4421052631579" y="220.32631578947368" type="line"/>
      <point x="72.93684210526317" y="139.07368421052632"/>
      <point x="58.684210526315795" y="74.49473684210527"/>
    </contour>
  </outline>
</glyph>
<glyph name="k" format="2">
  <advance width="524.5052631578948"/>
  <unicode hex="006B"/>
  <anchor x="218.94736842105263" y="0.0" name="bottom"/>
  <anchor x="371.11578947368423" y="723.8421052631579" name="top"/>
  <outline>
    <contour>
      <point x="381.9157894736842" y="0.0" type="curve"/>
      <point x="453.28421052631575" y="0.0" type="line"/>
      <point x="395.64210526315793" y="57.50526315789474"/>
      <point x="337.9157894736842" y="114.17894736842105"/>
      <point x="280.27368421052637" y="171.68421052631578" type="curve"/>
      <point x="190.30526315789473" y="264.22105263157897" type="line"/>
      <point x="197.57894736842104" y="238.82105263157894" type="line"/>
      <point x="306.78947368421046" y="322.4947368421053" type="line"/>
      <point x="383.34736842105264" y="379.9157894736842"/>
      <point x="460.7368421052631" y="437.2526315789474"/>
      <point x="539.1263157894737" y="494.6736842105263" type="curve"/>
      <point x="461.8421052631579" y="494.6736842105263" type="line"/>
      <point x="399.9684210526316" y="446.4315789473684"/>
      <point x="337.178947368421" y="397.3578947368421"/>
      <point x="275.30526315789473" y="349.11578947368423" type="curve"/>
      <point x="172.53684210526316" y="270.37894736842105" type="line"/>
      <point x="141.86315789473684" y="270.37894736842105" type="line"/>
      <point x="133.8421052631579" y="232.77894736842106" type="line"/>
      <point x="159.18947368421053" y="232.77894736842106" type="line"/>
      <point x="247.3684210526316" y="143.7157894736842" type="line"/>
      <point x="292.57894736842104" y="95.81052631578947"/>
      <point x="337.70526315789476" y="47.90526315789474"/>
    </contour>
    <contour>
      <point x="41.34736842105263" y="0.0" type="curve"/>
      <point x="95.12631578947368" y="0.0" type="line"/>
      <point x="109.28421052631579" y="73.48421052631579"/>
      <point x="121.61052631578947" y="137.22105263157894"/>
      <point x="137.7684210526316" y="216.3684210526316" type="curve"/>
      <point x="196.69473684210527" y="493.9157894736842" type="line"/>
      <point x="216.53684210526316" y="579.8421052631579"/>
      <point x="235.12631578947367" y="659.4315789473685"/>
      <point x="255.46315789473684" y="741.0105263157895" type="curve"/>
      <point x="193.0" y="729.2526315789473" type="line"/>
      <point x="179.84210526315792" y="656.3263157894737"/>
      <point x="165.6842105263158" y="578.4105263157895"/>
      <point x="150.5263157894737" y="493.9157894736842" type="curve"/>
      <point x="92.4421052631579" y="220.32631578947368" type="line"/>
      <point x="72.93684210526317" y="139.07368421052632"/>
      <point x="58.684210526315795" y="74.49473684210527"/>
    </contour>
  </outline>
</glyph>
<glyph name="m" format="2">
  <advance width="878.1789473684211"/>
  <unicode hex="006D"/>
  <anchor x="398.6631578947368" y="0.0" name="bottom"/>
  <anchor x="502.8315789473684" y="494.6736842105263" name="top"/>
  <outline>
    <contour>
      <point x="47.17894736842105" y="0.0" type="curve"/>
      <point x="100.95789473684209" y="0.0" type="line"/>
      <point x="115.45263157894736" y="74.49473684210527"/>
      <point x="127.94736842105263" y="139.07368421052632"/>
      <point x="144.1894736842105" y="219.23157894736843" type="curve"/>
      <point x="172.3473684210526" y="348.6947368421052" type="line"/>
      <point x="239.29473684210527" y="411.0631578947368"/>
      <point x="314.91578947368424" y="459.0315789473684"/>
      <point x="357.46315789473687" y="459.0315789473684" type="curve" smooth="yes"/>
      <point x="437.1578947368421" y="459.0315789473684"/>
      <point x="461.3052631578948" y="405.30526315789473"/>
      <point x="440.14736842105265" y="306.68421052631584" type="curve"/>
      <point x="422.15789473684214" y="219.23157894736843" type="line"/>
      <point x="403.0736842105263" y="139.0736842105263"/>
      <point x="388.821052631579" y="74.49473684210527"/>
      <point x="371.5684210526316" y="0.0" type="curve"/>
      <point x="425.17894736842106" y="0.0" type="line"/>
      <point x="439.6736842105263" y="74.49473684210527"/>
      <point x="452.08421052631576" y="139.0736842105263"/>
      <point x="468.57894736842104" y="220.32631578947368" type="curve"/>
      <point x="476.57894736842104" y="258.4105263157895"/>
      <point x="483.33684210526314" y="285.09473684210525"/>
      <point x="489.33684210526314" y="312.2631578947368" type="curve" smooth="yes"/>
      <point x="494.5052631578947" y="336.93684210526317"/>
      <point x="497.33684210526314" y="359.5263157894737"/>
      <point x="497.0" y="379.0315789473684" type="curve"/>
      <point x="495.3263157894737" y="382.69473684210527" type="line"/>
      <point x="492.9894736842105" y="460.68421052631584"/>
      <point x="449.07368421052627" y="505.17894736842106"/>
      <point x="369.74736842105267" y="505.17894736842106" type="curve" smooth="yes"/>
      <point x="313.6" y="505.17894736842106"/>
      <point x="233.1157894736842" y="447.36842105263156"/>
      <point x="186.10526315789474" y="408.0315789473684" type="curve"/>
      <point x="180.09473684210528" y="408.0315789473684" type="line"/>
      <point x="194.00000000000003" y="498.2631578947368" type="line"/>
      <point x="145.84210526315792" y="494.6736842105263" type="line"/>
      <point x="137.8421052631579" y="440.978947368421"/>
      <point x="130.92631578947365" y="385.9578947368421"/>
      <point x="123.01052631578949" y="335.34736842105264" type="curve"/>
      <point x="98.27368421052633" y="220.32631578947368" type="line"/>
      <point x="78.7684210526316" y="139.07368421052632"/>
      <point x="64.51578947368421" y="74.49473684210527"/>
    </contour>
    <contour>
      <point x="690.2105263157895" y="0.0" type="curve"/>
      <point x="743.821052631579" y="0.0" type="line"/>
      <point x="758.3157894736842" y="74.49473684210527"/>
      <point x="770.7263157894738" y="139.0736842105263"/>
      <point x="787.221052631579" y="220.32631578947368" type="curve"/>
      <point x="795.221052631579" y="258.4105263157895"/>
      <point x="801.9789473684211" y="285.09473684210525"/>
      <point x="807.9789473684211" y="312.2631578947368" type="curve" smooth="yes"/>
      <point x="834.7263157894737" y="433.5894736842106"/>
      <point x="788.6421052631579" y="505.17894736842106"/>
      <point x="688.3894736842105" y="505.17894736842106" type="curve" smooth="yes"/>
      <point x="632.2421052631579" y="505.17894736842106"/>
      <point x="548.0105263157895" y="445.5368421052632"/>
      <point x="499.74736842105256" y="404.1157894736842" type="curve"/>
      <point x="491.98947368421057" y="404.1157894736842" type="line"/>
      <point x="490.9894736842105" y="348.6947368421052" type="line"/>
      <point x="557.9368421052632" y="411.06315789473683"/>
      <point x="633.5578947368422" y="459.0315789473684"/>
      <point x="676.1052631578947" y="459.0315789473684" type="curve" smooth="yes"/>
      <point x="755.8000000000001" y="459.0315789473684"/>
      <point x="779.9473684210526" y="405.30526315789473"/>
      <point x="758.7894736842105" y="306.68421052631584" type="curve"/>
      <point x="740.8" y="219.23157894736843" type="line"/>
      <point x="721.7157894736843" y="139.0736842105263"/>
      <point x="707.4631578947368" y="74.49473684210527"/>
    </contour>
  </outline>
</glyph>
<glyph name="n" format="2">
  <advance width="576.3578947368421"/>
  <unicode hex="006E"/>
  <anchor x="242.33684210526317" y="0.0" name="bottom"/>
  <anchor x="346.5052631578948" y="494.6736842105263" name="top"/>
  <outline>
    <contour>
      <point x="47.17894736842105" y="0.0" type="curve"/>
      <point x="100.95789473684209" y="0.0" type="line"/>
      <point x="115.45263157894736" y="74.49473684210527"/>
      <point x="127.94736842105263" y="139.07368421052632"/>
      <point x="144.1894736842105" y="219.23157894736843" type="curve"/>
      <point x="172.3473684210526" y="348.6947368421052" type="line"/>
      <point x="239.29473684210527" y="411.06315789473683"/>
      <point x="319.6631578947368" y="459.0315789473684"/>
      <point x="363.12631578947367" y="459.0315789473684" type="curve" smooth="yes"/>
      <point x="453.978947368421" y="459.0315789473684"/>
      <point x="478.1263157894737" y="405.30526315789473"/>
      <point x="456.9684210526316" y="306.68421052631584" type="curve"/>
      <point x="438.9789473684211" y="219.23157894736843" type="line"/>
      <point x="419.89473684210526" y="139.0736842105263"/>
      <point x="405.64210526315793" y="74.49473684210527"/>
      <point x="388.38947368421054" y="0.0" type="curve"/>
      <point x="442.0" y="0.0" type="line"/>
      <point x="456.4947368421052" y="74.49473684210527"/>
      <point x="468.9052631578947" y="139.0736842105263"/>
      <point x="485.4" y="220.32631578947368" type="curve"/>
      <point x="493.4" y="258.4105263157895"/>
      <point x="500.1578947368421" y="285.09473684210525"/>
      <point x="506.1578947368421" y="312.2631578947368" type="curve" smooth="yes"/>
      <point x="532.9052631578946" y="433.58947368421053"/>
      <point x="486.82105263157894" y="505.17894736842106"/>
      <point x="376.32631578947365" y="505.17894736842106" type="curve" smooth="yes"/>
      <point x="318.3473684210526" y="505.17894736842106"/>
      <point x="233.03157894736844" y="447.36842105263156"/>
      <point x="186.02105263157893" y="408.0315789473684" type="curve"/>
      <point x="180.01052631578946" y="408.0315789473684" type="line"/>
      <point x="194.91578947368424" y="498.2631578947368" type="line"/>
      <point x="145.84210526315792" y="494.6736842105263" type="line"/>
      <point x="137.8421052631579" y="440.978947368421"/>
      <point x="130.92631578947365" y="385.9578947368421"/>
      <point x="123.01052631578949" y="335.34736842105264" type="curve"/>
      <point x="98.27368421052633" y="220.32631578947368" type="line"/>
      <point x="78.7684210526316" y="139.07368421052632"/>
      <point x="64.51578947368421" y="74.49473684210527"/>
    </contour>
  </outline>
</glyph>
<glyph name="p" format="2">
  <advance width="596.5052631578948"/>
  <unicode hex="0070"/>
  <outline>
    <contour>
      <point x="5.263157894736845" y="-194.33684210526314" type="curve"/>
      <point x="60.46315789473684" y="-192.0" type="line"/>
      <point x="74.78947368421052" y="-117.50526315789473"/>
      <point x="87.11578947368422" y="-52.92631578947368"/>
      <point x="103.27368421052631" y="27.231578947368423" type="curve"/>
      <point x="114.85263157894737" y="79.46315789473684" type="line"/>
      <point x="121.27368421052633" y="79.46315789473684" type="line"/>
      <point x="169.85263157894738" y="33.47368421052632"/>
      <point x="240.66315789473686" y="-9.589473684210526"/>
      <point x="291.978947368421" y="-9.589473684210526" type="curve" smooth="yes"/>
      <point x="413.4736842105263" y="-9.589473684210526"/>
      <point x="502.29473684210524" y="77.26315789473684"/>
      <point x="532.2947368421052" y="221.01052631578946" type="curve" smooth="yes"/>
      <point x="563.378947368421" y="371.17894736842106"/>
      <point x="503.06315789473683" y="505.17894736842106"/>
      <point x="352.0" y="505.17894736842106" type="curve" smooth="yes"/>
      <point x="308.9263157894736" y="505.17894736842106"/>
      <point x="231.2" y="461.6947368421052"/>
      <point x="192.18947368421053" y="430.2631578947368" type="curve"/>
      <point x="185.17894736842106" y="430.2631578947368" type="line"/>
      <point x="192.92631578947368" y="498.2631578947368" type="line"/>
      <point x="145.84210526315792" y="494.6736842105263" type="line"/>
      <point x="137.8421052631579" y="440.978947368421"/>
      <point x="130.92631578947365" y="385.9578947368421"/>
      <point x="123.01052631578949" y="335.34736842105264" type="curve"/>
      <point x="57.357894736842105" y="28.326315789473686" type="line"/>
      <point x="38.85263157894737" y="-52.92631578947368"/>
      <point x="22.51578947368421" y="-119.84210526315789"/>
    </contour>
    <contour>
      <point x="286.1684210526316" y="35.54736842105263" type="curve"/>
      <point x="243.69473684210527" y="37.63157894736842"/>
      <point x="170.33684210526314" y="74.85263157894737"/>
      <point x="124.8736842105263" y="128.6421052631579" type="curve"/>
      <point x="177.26315789473682" y="374.6" type="line"/>
      <point x="228.55789473684212" y="421.65263157894736"/>
      <point x="310.4105263157895" y="459.0421052631579"/>
      <point x="341.06315789473683" y="460.2947368421053" type="curve"/>
      <point x="467.30526315789473" y="457.2947368421053"/>
      <point x="511.3578947368421" y="353.6842105263158"/>
      <point x="485.04210526315785" y="226.02105263157895" type="curve" smooth="yes"/>
      <point x="462.30526315789473" y="117.08421052631579"/>
      <point x="399.8421052631579" y="38.63157894736842"/>
    </contour>
  </outline>
</glyph>
<glyph name="q" format="2">
  <advance width="586.336842105263"/>
  <unicode hex="0071"/>
  <outline>
    <contour>
      <point x="347.63157894736844" y="-194.33684210526314" type="curve"/>
      <point x="402.32631578947365" y="-192.0" type="line"/>
      <point x="416.8210526315789" y="-117.50526315789473"/>
      <point x="429.31578947368416" y="-52.92631578947368"/>
      <point x="445.81052631578945" y="28.326315789473686" type="curve"/>
      <point x="510.63157894736844" y="335.34736842105264" type="line"/>
      <point x="523.642105263158" y="387.1263157894737"/>
      <point x="540.4842105263158" y="443.40000000000003"/>
      <point x="555.6631578947369" y="498.2631578947368" type="curve"/>
      <point x="506.9157894736842" y="494.6736842105263" type="line"/>
      <point x="487.66315789473686" y="423.85263157894735" type="line"/>
      <point x="480.821052631579" y="423.85263157894735" type="line"/>
      <point x="437.40000000000003" y="460.69473684210527"/>
      <point x="358.8421052631579" y="505.17894736842106"/>
      <point x="304.6105263157895" y="505.17894736842106" type="curve" smooth="yes"/>
      <point x="183.1157894736842" y="505.17894736842106"/>
      <point x="94.29473684210527" y="418.32631578947365"/>
      <point x="64.29473684210527" y="274.57894736842104" type="curve" smooth="yes"/>
      <point x="33.21052631578948" y="124.41052631578947"/>
      <point x="93.52631578947368" y="-9.589473684210526"/>
      <point x="244.5894736842105" y="-9.589473684210526" type="curve" smooth="yes"/>
      <point x="287.2421052631579" y="-9.589473684210526"/>
      <point x="356.71578947368425" y="26.147368421052633"/>
      <point x="402.37894736842105" y="71.96842105263158" type="curve"/>
      <point x="409.13684210526316" y="71.96842105263158" type="line"/>
      <point x="399.3894736842105" y="27.231578947368423" type="line"/>
      <point x="381.2210526315789" y="-52.92631578947368"/>
      <point x="364.8842105263157" y="-119.84210526315789"/>
    </contour>
    <contour>
      <point x="255.5263157894737" y="35.294736842105266" type="curve"/>
      <point x="129.2842105263158" y="37.37894736842105"/>
      <point x="84.31578947368422" y="142.82105263157894"/>
      <point x="111.54736842105264" y="269.5684210526316" type="curve" smooth="yes"/>
      <point x="135.20000000000002" y="380.33684210526314"/>
      <point x="196.74736842105264" y="456.9578947368421"/>
      <point x="310.42105263157896" y="460.0421052631579" type="curve"/>
      <point x="355.6421052631579" y="458.87368421052633"/>
      <point x="426.2526315789474" y="421.65263157894736"/>
      <point x="474.46315789473687" y="380.6842105263158" type="curve"/>
      <point x="422.98947368421057" y="141.13684210526316" type="line"/>
      <point x="376.2736842105263" y="84.92631578947366"/>
      <point x="305.41052631578947" y="37.46315789473684"/>
    </contour>
  </outline>
</glyph>
<glyph name="r" format="2">
  <advance width="397.7052631578947"/>
  <unicode hex="0072"/>
  <anchor x="70.10526315789474" y="0.0" name="bottom"/>
  <anchor x="284.5052631578948" y="494.6736842105263" name="top"/>
  <outline>
    <contour>
      <point x="47.17894736842105" y="0.0" type="curve"/>
      <point x="100.95789473684209" y="0.0" type="line"/>
      <point x="115.45263157894736" y="74.49473684210527"/>
      <point x="127.94736842105263" y="139.07368421052632"/>
      <point x="144.1894736842105" y="219.23157894736843" type="curve"/>
      <point x="169.17894736842103" y="331.59999999999997" type="line"/>
      <point x="250.5368421052632" y="413.70526315789476"/>
      <point x="314.68421052631584" y="457.09473684210525"/>
      <point x="344.8315789473684" y="457.09473684210525" type="curve" smooth="yes"/>
      <point x="352.9157894736842" y="457.09473684210525"/>
      <point x="380.83157894736837" y="450.0947368421053"/>
      <point x="406.6736842105263" y="443.75789473684216" type="curve"/>
      <point x="421.55789473684206" y="494.2631578947369" type="line"/>
      <point x="396.89473684210526" y="501.17894736842106"/>
      <point x="364.31578947368416" y="505.17894736842106"/>
      <point x="353.65263157894736" y="505.17894736842106" type="curve" smooth="yes"/>
      <point x="314.3157894736842" y="505.17894736842106"/>
      <point x="255.84210526315783" y="466.6947368421052"/>
      <point x="183.2736842105263" y="395.2105263157895" type="curve"/>
      <point x="177.26315789473685" y="395.2105263157895" type="line"/>
      <point x="194.00000000000003" y="498.2631578947368" type="line"/>
      <point x="145.84210526315792" y="494.6736842105263" type="line"/>
      <point x="137.8421052631579" y="440.978947368421"/>
      <point x="130.92631578947365" y="385.9578947368421"/>
      <point x="123.01052631578949" y="335.34736842105264" type="curve"/>
      <point x="98.27368421052633" y="220.32631578947368" type="line"/>
      <point x="78.7684210526316" y="139.07368421052632"/>
      <point x="64.51578947368421" y="74.49473684210527"/>
    </contour>
  </outline>
</glyph>
<glyph name="s" format="2">
  <advance width="448.7586206896552"/>
  <unicode hex="0073"/>
  <anchor x="171.6551724137931" y="0.0" name="bottom"/>
  <anchor x="275.8390804597701" y="494.735632183908" name="top"/>
  <outline>
    <contour>
      <point x="191.02298850574715" y="-9.551724137931034" type="curve" smooth="yes"/>
      <point x="293.7011494252874" y="-9.551724137931034"/>
      <point x="351.8045977011494" y="31.919540229885058"/>
      <point x="366.8045977011494" y="101.83908045977013" type="curve" smooth="yes"/>
      <point x="385.62068965517244" y="188.57471264367817"/>
      <point x="326.1954022988506" y="231.75862068965517"/>
      <point x="239.17241379310343" y="270.4942528735632" type="curve" smooth="yes"/>
      <point x="149.58620689655172" y="311.28735632183907"/>
      <point x="134.32183908045977" y="338.816091954023"/>
      <point x="143.77011494252872" y="387.4022988505747" type="curve" smooth="yes"/>
      <point x="157.66666666666666" y="450.88505747126436"/>
      <point x="221.1494252873563" y="459.14942528735634"/>
      <point x="257.04597701149424" y="461.14942528735634" type="curve"/>
      <point x="273.67816091954023" y="461.14942528735634"/>
      <point x="336.49425287356325" y="440.59770114942535"/>
      <point x="396.3103448275862" y="418.0459770114943" type="curve"/>
      <point x="409.8045977011495" y="464.919540229885" type="line"/>
      <point x="367.59770114942535" y="478.2873563218391"/>
      <point x="285.9425287356322" y="505.1034482758621"/>
      <point x="253.28735632183907" y="505.1034482758621" type="curve" smooth="yes"/>
      <point x="176.32183908045977" y="505.1034482758621"/>
      <point x="111.95402298850574" y="465.0"/>
      <point x="97.21839080459769" y="394.87356321839076" type="curve" smooth="yes"/>
      <point x="80.03448275862068" y="316.13793103448273"/>
      <point x="122.7471264367816" y="277.2988505747126"/>
      <point x="206.48275862068965" y="237.48275862068965" type="curve" smooth="yes"/>
      <point x="300.17241379310343" y="193.50574712643677"/>
      <point x="331.51724137931035" y="167.60919540229887"/>
      <point x="319.25287356321843" y="108.67816091954023" type="curve" smooth="yes"/>
      <point x="306.1724137931035" y="47.11494252873563"/>
      <point x="247.2183908045977" y="36.40229885057471"/>
      <point x="189.81609195402297" y="34.58620689655172" type="curve"/>
      <point x="156.6551724137931" y="34.58620689655172"/>
      <point x="100.36781609195401" y="58.95402298850575"/>
      <point x="36.816091954023" y="89.32183908045978" type="curve"/>
      <point x="22.32183908045977" y="41.52873563218391" type="line"/>
      <point x="83.3448275862069" y="16.080459770114942"/>
      <point x="153.91954022988506" y="-9.551724137931034"/>
    </contour>
  </outline>
</glyph>
<glyph name="t" format="2">
  <advance width="403.0315789473684"/>
  <unicode hex="0074"/>
  <anchor x="184.49473684210525" y="0.0" name="bottom"/>
  <anchor x="206.6" y="247.33684210526314" name="center"/>
  <anchor x="276.61052631578946" y="628.7157894736843" name="top"/>
  <anchor x="274.8315789473685" y="494.6736842105263" name="topright"/>
  <outline>
    <contour>
      <point x="232.34736842105266" y="-9.589473684210526" type="curve" smooth="yes"/>
      <point x="254.84210526315792" y="-9.589473684210526"/>
      <point x="295.03157894736836" y="3.9894736842105267"/>
      <point x="322.8736842105263" y="14.073684210526316" type="curve"/>
      <point x="326.0631578947369" y="64.77894736842104" type="line"/>
      <point x="291.65263157894736" y="48.199999999999996"/>
      <point x="254.1578947368421" y="34.62105263157895"/>
      <point x="239.83157894736846" y="34.62105263157895" type="curve" smooth="yes"/>
      <point x="174.28421052631575" y="34.62105263157895"/>
      <point x="138.38947368421051" y="71.1157894736842"/>
      <point x="158.37894736842105" y="163.73684210526315" type="curve" smooth="yes"/>
      <point x="225.3578947368421" y="477.4736842105263" type="line"/>
      <point x="240.86315789473684" y="550.0"/>
      <point x="250.8736842105263" y="596.2736842105263"/>
      <point x="267.05263157894734" y="668.2" type="curve"/>
      <point x="215.6" y="654.7578947368421" type="line"/>
      <point x="203.3578947368421" y="594.0"/>
      <point x="192.77894736842106" y="541.3263157894737"/>
      <point x="179.44210526315788" y="477.4736842105263" type="curve"/>
      <point x="163.67368421052632" y="403.13684210526316"/>
      <point x="138.6" y="292.77894736842103"/>
      <point x="111.03157894736842" y="162.6842105263158" type="curve" smooth="yes"/>
      <point x="87.52631578947368" y="52.90526315789474"/>
      <point x="137.97894736842107" y="-9.589473684210526"/>
    </contour>
    <contour>
      <point x="70.04210526315791" y="451.0421052631579" type="line"/>
      <point x="185.06315789473683" y="457.4736842105263" type="line"/>
      <point x="200.97894736842105" y="457.4736842105263" type="line"/>
      <point x="267.63157894736844" y="456.05263157894734"/>
      <point x="339.36842105263156" y="453.5473684210526"/>
      <point x="407.2736842105263" y="451.0421052631579" type="curve"/>
      <point x="416.8842105263158" y="494.6736842105263" type="line"/>
      <point x="79.65263157894736" y="494.6736842105263" type="line"/>
    </contour>
  </outline>
</glyph>
<glyph name="u" format="2">
  <advance width="552.8736842105263"/>
  <unicode hex="0075"/>
  <anchor x="224.68421052631575" y="0.0" name="bottom"/>
  <anchor x="417.67368421052623" y="0.0" name="ogonek"/>
  <anchor x="328.7684210526316" y="494.6736842105263" name="top"/>
  <anchor x="574.8842105263158" y="494.6736842105263" name="topright"/>
  <outline>
    <contour>
      <point x="200.44210526315788" y="-9.589473684210526" type="curve" smooth="yes"/>
      <point x="252.92631578947365" y="-9.589473684210526"/>
      <point x="338.24210526315795" y="48.22105263157895"/>
      <point x="385.2526315789474" y="87.55789473684212" type="curve"/>
      <point x="391.2631578947368" y="87.55789473684212" type="line"/>
      <point x="372.6947368421052" y="0.0" type="line"/>
      <point x="418.17894736842095" y="0.0" type="line"/>
      <point x="432.6736842105263" y="74.49473684210527"/>
      <point x="445.08421052631576" y="139.07368421052632"/>
      <point x="460.66315789473686" y="220.32631578947368" type="curve"/>
      <point x="471.8315789473684" y="271.1684210526316" type="line"/>
      <point x="490.6736842105263" y="353.7684210526316"/>
      <point x="506.7578947368421" y="420.17894736842106"/>
      <point x="524.0105263157894" y="494.6736842105263" type="curve"/>
      <point x="469.5684210526316" y="494.6736842105263" type="line"/>
      <point x="455.1578947368421" y="420.17894736842106"/>
      <point x="441.66315789473686" y="353.7684210526316"/>
      <point x="426.1684210526316" y="273.61052631578946" type="curve"/>
      <point x="398.8421052631579" y="146.4736842105263" type="line"/>
      <point x="331.8947368421053" y="84.10526315789474"/>
      <point x="251.5263157894737" y="36.136842105263156"/>
      <point x="213.55789473684212" y="36.136842105263156" type="curve" smooth="yes"/>
      <point x="122.70526315789473" y="36.136842105263156"/>
      <point x="98.4736842105263" y="89.86315789473684"/>
      <point x="119.63157894736841" y="188.4842105263158" type="curve"/>
      <point x="136.8736842105263" y="273.61052631578946" type="line"/>
      <point x="155.04210526315785" y="353.7684210526316"/>
      <point x="172.21052631578945" y="422.5157894736842"/>
      <point x="189.46315789473684" y="497.0105263157895" type="curve"/>
      <point x="133.76842105263157" y="494.6736842105263" type="line"/>
      <point x="119.3578947368421" y="420.17894736842106"/>
      <point x="105.86315789473683" y="353.7684210526315"/>
      <point x="90.19999999999999" y="271.1684210526316" type="curve"/>
      <point x="82.19999999999999" y="235.83157894736843"/>
      <point x="76.86315789473683" y="210.49473684210525"/>
      <point x="70.86315789473683" y="183.32631578947368" type="curve" smooth="yes"/>
      <point x="44.11578947368421" y="62.0"/>
      <point x="89.94736842105264" y="-9.589473684210526"/>
    </contour>
  </outline>
</glyph>
<glyph name="v" format="2">
  <advance width="503.3263157894737"/>
  <unicode hex="0076"/>
  <outline>
    <contour>
      <point x="169.77894736842106" y="0.0" type="curve"/>
      <point x="231.46315789473687" y="0.0" type="line"/>
      <point x="267.95789473684215" y="62.084210526315786"/>
      <point x="303.4526315789474" y="123.16842105263159"/>
      <point x="339.0315789473684" y="185.25263157894736" type="curve"/>
      <point x="391.69473684210527" y="273.4210526315789" type="line"/>
      <point x="435.7789473684211" y="346.58947368421053"/>
      <point x="481.6105263157895" y="421.58947368421053"/>
      <point x="526.5263157894736" y="494.6736842105263" type="curve"/>
      <point x="466.07368421052627" y="494.6736842105263" type="line"/>
      <point x="414.69473684210527" y="404.63157894736844"/>
      <point x="365.8105263157895" y="318.41052631578947"/>
      <point x="313.2631578947369" y="225.69473684210527" type="curve"/>
      <point x="212.32631578947368" y="52.09473684210526" type="line"/>
      <point x="205.4842105263158" y="52.09473684210526" type="line"/>
      <point x="177.5157894736842" y="225.69473684210527" type="line"/>
      <point x="163.45263157894735" y="317.41052631578947"/>
      <point x="150.30526315789473" y="405.63157894736844"/>
      <point x="136.15789473684208" y="497.0105263157895" type="curve"/>
      <point x="82.8" y="494.6736842105263" type="line"/>
      <point x="96.7157894736842" y="422.7578947368421"/>
      <point x="110.7157894736842" y="347.5052631578947"/>
      <point x="124.63157894736842" y="275.33684210526314" type="curve"/>
      <point x="139.37894736842105" y="187.25263157894736" type="line"/>
      <point x="148.87368421052633" y="127.91578947368421"/>
      <point x="160.2842105263158" y="60.25263157894736"/>
    </contour>
  </outline>
</glyph>
<glyph name="w" format="2">
  <advance width="791.7368421052631"/>
  <unicode hex="0077"/>
  <anchor x="344.69473684210527" y="0.0" name="bottom"/>
  <anchor x="448.7789473684211" y="494.6736842105263" name="top"/>
  <outline>
    <contour>
      <point x="144.77894736842106" y="0.0" type="curve"/>
      <point x="206.70526315789473" y="0.0" type="line"/>
      <point x="250.75789473684208" y="85.9578947368421"/>
      <point x="298.5578947368421" y="177.57894736842104"/>
      <point x="342.61052631578946" y="262.62105263157895" type="curve"/>
      <point x="428.38947368421054" y="426.0421052631579" type="line"/>
      <point x="435.06315789473683" y="426.0421052631579" type="line"/>
      <point x="453.12631578947367" y="264.87368421052633" type="line"/>
      <point x="460.94736842105254" y="184.2421052631579"/>
      <point x="471.51578947368415" y="81.37894736842105"/>
      <point x="479.421052631579" y="0.0" type="curve"/>
      <point x="546.1157894736842" y="0.0" type="line"/>
      <point x="577.778947368421" y="60.16842105263157"/>
      <point x="610.3578947368421" y="123.25263157894736"/>
      <point x="644.9368421052632" y="189.25263157894736" type="curve"/>
      <point x="691.7684210526315" y="276.25263157894733" type="line"/>
      <point x="732.0210526315791" y="348.58947368421053"/>
      <point x="772.1052631578947" y="420.58947368421053"/>
      <point x="814.1894736842105" y="494.6736842105263" type="curve"/>
      <point x="753.6526315789474" y="494.6736842105263" type="line"/>
      <point x="712.2631578947368" y="414.5368421052632"/>
      <point x="660.4631578947369" y="313.9894736842105"/>
      <point x="615.2421052631579" y="226.02105263157895" type="curve"/>
      <point x="523.4631578947369" y="52.084210526315786" type="line"/>
      <point x="517.621052631579" y="52.084210526315786" type="line"/>
      <point x="498.978947368421" y="224.93684210526317" type="line"/>
      <point x="490.4105263157894" y="312.98947368421057"/>
      <point x="481.01052631578943" y="408.62105263157895"/>
      <point x="472.4421052631579" y="494.6736842105263" type="curve"/>
      <point x="417.86315789473684" y="494.6736842105263" type="line"/>
      <point x="370.8105263157895" y="402.9578947368421"/>
      <point x="324.7578947368421" y="313.1578947368421"/>
      <point x="278.53684210526313" y="223.10526315789474" type="curve"/>
      <point x="189.50526315789475" y="52.084210526315786" type="line"/>
      <point x="183.66315789473686" y="52.084210526315786" type="line"/>
      <point x="164.10526315789474" y="219.44210526315788" type="line"/>
      <point x="155.53684210526316" y="307.4947368421053"/>
      <point x="145.2210526315789" y="407.12631578947367"/>
      <point x="135.73684210526315" y="497.0105263157895" type="curve"/>
      <point x="81.37894736842105" y="494.6736842105263" type="line"/>
      <point x="92.37894736842105" y="419.67368421052635"/>
      <point x="102.46315789473684" y="349.4210526315789"/>
      <point x="112.54736842105262" y="276.25263157894733" type="curve"/>
      <point x="124.12631578947368" y="187.33684210526314" type="line"/>
      <point x="131.62105263157898" y="122.42105263157896"/>
      <point x="138.20000000000002" y="62.084210526315786"/>
    </contour>
  </outline>
</glyph>
<glyph name="x" format="2">
  <advance width="518.6736842105263"/>
  <unicode hex="0078"/>
  <outline>
    <contour>
      <point x="-20.03157894736842" y="0.0" type="curve"/>
      <point x="47.926315789473676" y="0.0" type="line"/>
      <point x="90.81052631578949" y="47.568421052631585"/>
      <point x="122.45263157894736" y="82.38947368421053"/>
      <point x="164.42105263157893" y="129.21052631578948" type="curve"/>
      <point x="248.86315789473684" y="220.26315789473685" type="line"/>
      <point x="254.53684210526316" y="220.26315789473685" type="line"/>
      <point x="306.1578947368421" y="126.9578947368421" type="line"/>
      <point x="330.79999999999995" y="80.38947368421053"/>
      <point x="348.1157894736843" y="46.400000000000006"/>
      <point x="372.75789473684216" y="0.0" type="curve"/>
      <point x="433.0421052631579" y="0.0" type="line"/>
      <point x="396.63157894736844" y="61.58947368421053"/>
      <point x="373.0526315789474" y="101.92631578947368"/>
      <point x="344.64210526315793" y="150.0105263157895" type="curve"/>
      <point x="281.3263157894737" y="262.0210526315789" type="line"/>
      <point x="279.7473684210526" y="245.57894736842104" type="line"/>
      <point x="379.5684210526316" y="351.0" type="line"/>
      <point x="427.0631578947369" y="400.0842105263158"/>
      <point x="456.06315789473683" y="430.42105263157896"/>
      <point x="518.4736842105265" y="494.6736842105263" type="curve"/>
      <point x="450.43157894736845" y="494.6736842105263" type="line"/>
      <point x="407.37894736842105" y="447.10526315789474"/>
      <point x="376.48421052631574" y="412.11578947368423"/>
      <point x="337.09473684210525" y="368.0421052631579" type="curve"/>
      <point x="257.9789473684211" y="282.4842105263158" type="line"/>
      <point x="253.05263157894737" y="282.4842105263158" type="line"/>
      <point x="208.58947368421053" y="368.12631578947367" type="line"/>
      <point x="188.4421052631579" y="409.4526315789473"/>
      <point x="169.21052631578948" y="449.357894736842"/>
      <point x="145.4" y="497.0105263157895" type="curve"/>
      <point x="88.37894736842105" y="494.6736842105263" type="line"/>
      <point x="121.62105263157895" y="434.4210526315789"/>
      <point x="141.28421052631577" y="398.1684210526316"/>
      <point x="169.52631578947367" y="347.2526315789474" type="curve"/>
      <point x="224.7578947368421" y="241.9157894736842" type="line"/>
      <point x="227.34736842105264" y="260.18947368421055" type="line"/>
      <point x="124.28421052631579" y="150.26315789473685" type="line"/>
      <point x="75.8736842105263" y="99.84210526315789"/>
      <point x="43.126315789473686" y="65.42105263157896"/>
    </contour>
  </outline>
</glyph>
<glyph name="y" format="2">
  <advance width="506.9894736842105"/>
  <unicode hex="0079"/>
  <anchor x="312.3894736842105" y="0.0" name="bottom"/>
  <anchor x="306.4526315789474" y="494.6736842105263" name="top"/>
  <outline>
    <contour>
      <point x="50.926315789473676" y="-194.33684210526314" type="curve"/>
      <point x="111.54736842105264" y="-192.0" type="line"/>
      <point x="154.0421052631579" y="-120.91578947368421"/>
      <point x="202.70526315789476" y="-38.66315789473684"/>
      <point x="278.7789473684211" y="88.33684210526316" type="curve"/>
      <point x="363.5263157894737" y="227.50526315789475" type="line"/>
      <point x="440.27368421052637" y="352.5052631578947"/>
      <point x="477.3578947368421" y="412.7578947368421"/>
      <point x="528.1052631578948" y="494.6736842105263" type="curve"/>
      <point x="467.9052631578947" y="494.6736842105263" type="line"/>
      <point x="416.27368421052637" y="404.7894736842105"/>
      <point x="365.64210526315793" y="317.9052631578947"/>
      <point x="312.17894736842106" y="225.2736842105263" type="curve"/>
      <point x="208.32631578947368" y="51.421052631578945" type="line"/>
      <point x="201.4842105263158" y="51.421052631578945" type="line"/>
      <point x="175.34736842105264" y="224.44210526315788" type="line"/>
      <point x="162.2" y="317.2421052631579"/>
      <point x="149.0526315789474" y="404.2105263157895"/>
      <point x="135.90526315789472" y="497.0105263157895" type="curve"/>
      <point x="82.54736842105262" y="494.6736842105263" type="line"/>
      <point x="95.54736842105262" y="423.58947368421053"/>
      <point x="109.46315789473685" y="347.58947368421053"/>
      <point x="122.46315789473684" y="276.5052631578947" type="curve"/>
      <point x="137.1263157894737" y="186.50526315789475" type="line"/>
      <point x="147.5368421052632" y="118.42105263157895"/>
      <point x="158.0315789473684" y="49.421052631578945"/>
      <point x="168.44210526315788" y="-18.66315789473684" type="curve"/>
      <point x="171.78947368421055" y="-1.1368421052631579" type="line"/>
      <point x="131.94736842105263" y="-64.97894736842105"/>
      <point x="90.76842105263158" y="-130.49473684210528"/>
    </contour>
  </outline>
</glyph>
<glyph name="z" format="2">
  <advance width="486.5473684210526"/>
  <unicode hex="007A"/>
  <anchor x="189.2736842105263" y="0.0" name="bottom"/>
  <anchor x="241.3578947368421" y="247.33684210526314" name="center"/>
  <anchor x="293.44210526315794" y="494.6736842105263" name="top"/>
  <outline>
    <contour>
      <point x="-9.768421052631577" y="0.0" type="line"/>
      <point x="395.81052631578945" y="0.0" type="line"/>
      <point x="405.5052631578947" y="43.96842105263158" type="line"/>
      <point x="332.18947368421055" y="42.29473684210526"/>
      <point x="235.13684210526316" y="40.536842105263155"/>
      <point x="176.82105263157894" y="39.11578947368421" type="curve"/>
      <point x="47.61052631578947" y="39.11578947368421" type="line"/>
      <point x="54.04210526315789" y="27.16842105263158" type="line"/>
      <point x="273.86315789473684" y="253.73684210526315" type="line"/>
      <point x="340.58947368421053" y="321.8736842105264"/>
      <point x="424.55789473684206" y="407.16842105263163"/>
      <point x="476.12631578947367" y="459.3157894736842" type="curve"/>
      <point x="483.3157894736842" y="494.6736842105263" type="line"/>
      <point x="94.98947368421052" y="494.6736842105263" type="line"/>
      <point x="85.21052631578948" y="450.28421052631575" type="line"/>
      <point x="163.2736842105263" y="452.0421052631579"/>
      <point x="262.5789473684211" y="453.9684210526316"/>
      <point x="320.14736842105265" y="455.4736842105263" type="curve"/>
      <point x="436.94736842105266" y="455.4736842105263" type="line"/>
      <point x="429.7578947368421" y="476.58947368421053" type="line"/>
      <point x="210.01052631578946" y="249.42105263157896" type="line"/>
      <point x="147.11578947368423" y="184.94736842105266"/>
      <point x="73.55789473684209" y="109.81052631578946"/>
      <point x="-2.915789473684209" y="31.842105263157894" type="curve"/>
    </contour>
  </outline>
</glyph>
<glyph name="braceleft" format="2">
  <advance width="381.93684210526317"/>
  <unicode hex="007B"/>
  <outline>
    <contour>
      <point x="220.05263157894734" y="-113.51578947368421" type="curve" smooth="yes"/>
      <point x="294.8315789473684" y="-113.51578947368421" type="line"/>
      <point x="303.44210526315794" y="-70.13684210526316" type="line"/>
      <point x="270.35789473684207" y="-71.22105263157896"/>
      <point x="243.2736842105263" y="-71.38947368421053"/>
      <point x="226.2736842105263" y="-71.47368421052632" type="curve"/>
      <point x="155.81052631578947" y="-71.13684210526317"/>
      <point x="130.4105263157895" y="-29.568421052631578"/>
      <point x="141.90526315789472" y="30.326315789473682" type="curve" smooth="yes"/>
      <point x="184.71578947368423" y="245.82105263157894" type="line" smooth="yes"/>
      <point x="185.88421052631577" y="252.7473684210526"/>
      <point x="152.78947368421052" y="298.1578947368421"/>
      <point x="129.10526315789474" y="318.0842105263158" type="curve"/>
      <point x="130.2736842105263" y="324.8421052631579" type="line"/>
      <point x="161.12631578947367" y="343.93684210526317"/>
      <point x="217.05263157894734" y="397.17894736842106"/>
      <point x="218.38947368421054" y="404.3578947368421" type="curve" smooth="yes"/>
      <point x="268.7894736842105" y="633.5894736842105" type="line" smooth="yes"/>
      <point x="282.4526315789473" y="696.2315789473685"/>
      <point x="318.6842105263158" y="719.5578947368421"/>
      <point x="384.65263157894736" y="719.8947368421053" type="curve"/>
      <point x="404.40000000000003" y="719.8105263157895"/>
      <point x="443.2210526315789" y="718.7263157894737"/>
      <point x="468.5578947368421" y="718.5578947368422" type="curve"/>
      <point x="478.1684210526316" y="761.9368421052632" type="line"/>
      <point x="384.72631578947363" y="761.9368421052632" type="line" smooth="yes"/>
      <point x="295.6" y="761.9368421052632"/>
      <point x="238.23157894736843" y="725.6736842105264"/>
      <point x="221.89473684210526" y="642.221052631579" type="curve"/>
      <point x="219.97894736842107" y="632.5578947368421"/>
      <point x="185.41052631578947" y="458.44210526315794"/>
      <point x="183.49473684210528" y="448.86315789473684" type="curve"/>
      <point x="169.83157894736846" y="380.5473684210527"/>
      <point x="101.45263157894736" y="343.4736842105263"/>
      <point x="69.61052631578949" y="343.4736842105263" type="curve" smooth="yes"/>
      <point x="30.936842105263157" y="343.4736842105263" type="line"/>
      <point x="22.74736842105263" y="304.0315789473684" type="line"/>
      <point x="61.421052631578945" y="304.0315789473684" type="line" smooth="yes"/>
      <point x="93.26315789473684" y="304.0315789473684"/>
      <point x="146.89473684210526" y="276.11578947368423"/>
      <point x="130.4842105263158" y="198.6421052631579" type="curve"/>
      <point x="128.5684210526316" y="189.06315789473686"/>
      <point x="96.3263157894737" y="41.70526315789474"/>
      <point x="94.41052631578948" y="32.126315789473686" type="curve"/>
      <point x="77.73684210526316" y="-48.49473684210526"/>
      <point x="122.6842105263158" y="-113.51578947368421"/>
    </contour>
  </outline>
</glyph>
<glyph name="sterling" format="2">
  <advance width="582.7052631578947"/>
  <unicode hex="00A3"/>
  <outline>
    <contour>
      <point x="19.547368421052635" y="0.0" type="line"/>
      <point x="496.04210526315785" y="0.0" type="line"/>
      <point x="506.41052631578947" y="48.83157894736842" type="line"/>
      <point x="426.91578947368424" y="47.410526315789475"/>
      <point x="298.27368421052637" y="45.82105263157895"/>
      <point x="208.44210526315788" y="44.31578947368421" type="curve"/>
      <point x="62.21052631578948" y="44.31578947368421" type="line"/>
      <point x="72.67368421052632" y="24.389473684210525" type="line"/>
      <point x="164.2421052631579" y="148.4421052631579"/>
      <point x="185.90526315789475" y="184.6842105263158"/>
      <point x="193.73684210526318" y="222.8421052631579" type="curve" smooth="yes"/>
      <point x="246.78947368421052" y="469.7894736842105" type="line" smooth="yes"/>
      <point x="273.4421052631579" y="593.7263157894737"/>
      <point x="330.5052631578947" y="650.0315789473684"/>
      <point x="432.62105263157895" y="651.2842105263157" type="curve"/>
      <point x="450.8631578947368" y="651.2842105263157"/>
      <point x="519.2736842105263" y="630.5368421052632"/>
      <point x="584.3473684210526" y="603.9578947368421" type="curve"/>
      <point x="600.6421052631579" y="652.021052631579" type="line"/>
      <point x="555.6947368421053" y="667.1894736842106"/>
      <point x="465.2631578947369" y="696.8421052631579"/>
      <point x="431.2631578947368" y="696.8421052631579" type="curve" smooth="yes"/>
      <point x="315.95789473684215" y="696.8421052631579"/>
      <point x="229.61052631578946" y="627.7368421052631"/>
      <point x="198.44210526315788" y="478.6421052631579" type="curve" smooth="yes"/>
      <point x="180.94736842105263" y="399.57894736842104"/>
      <point x="160.9578947368421" y="297.2631578947369"/>
      <point x="144.1263157894737" y="217.02105263157895" type="curve"/>
      <point x="138.21052631578948" y="188.86315789473684"/>
      <point x="115.7157894736842" y="150.1263157894737"/>
      <point x="27.147368421052636" y="34.83157894736842" type="curve"/>
    </contour>
    <contour>
      <point x="87.37894736842107" y="359.1684210526316" type="line"/>
      <point x="146.8947368421053" y="360.3368421052631"/>
      <point x="215.56842105263158" y="361.5052631578947"/>
      <point x="252.50526315789475" y="361.6736842105263" type="curve"/>
      <point x="283.6842105263158" y="361.6736842105263" type="line"/>
      <point x="320.4526315789473" y="361.5052631578947"/>
      <point x="387.29473684210524" y="360.3368421052631"/>
      <point x="446.6421052631579" y="359.1684210526316" type="curve"/>
      <point x="456.0" y="402.4526315789474" type="line"/>
      <point x="396.5684210526316" y="401.28421052631586"/>
      <point x="328.7263157894737" y="400.11578947368423"/>
      <point x="291.7894736842105" y="399.94736842105266" type="curve"/>
      <point x="260.61052631578946" y="399.94736842105266" type="line"/>
      <point x="223.8421052631579" y="400.11578947368423"/>
      <point x="156.1684210526316" y="401.28421052631586"/>
      <point x="96.73684210526315" y="402.4526315789474" type="curve"/>
    </contour>
  </outline>
</glyph>
<glyph name="currency" format="2">
  <advance width="607.0736842105263"/>
  <unicode hex="00A4"/>
  <outline>
    <contour>
      <point x="304.11578947368423" y="125.36842105263159" type="curve" smooth="yes"/>
      <point x="411.56842105263155" y="125.36842105263159"/>
      <point x="484.58947368421053" y="180.87368421052633"/>
      <point x="507.34736842105264" y="296.56842105263155" type="curve" smooth="yes"/>
      <point x="531.0210526315789" y="415.17894736842106"/>
      <point x="450.0" y="515.3789473684211"/>
      <point x="332.53684210526313" y="515.3789473684211" type="curve" smooth="yes"/>
      <point x="231.49473684210528" y="515.3789473684211"/>
      <point x="150.3157894736842" y="460.7894736842105"/>
      <point x="127.5578947368421" y="345.09473684210525" type="curve" smooth="yes"/>
      <point x="103.88421052631578" y="225.56842105263158"/>
      <point x="182.98947368421054" y="125.36842105263159"/>
    </contour>
    <contour>
      <point x="82.82105263157895" y="66.8421052631579" type="line"/>
      <point x="125.74736842105261" y="107.93684210526317"/>
      <point x="174.16842105263157" y="154.61052631578946"/>
      <point x="200.5157894736842" y="180.04210526315788" type="curve"/>
      <point x="170.9157894736842" y="212.14736842105265" type="line"/>
      <point x="143.4842105263158" y="187.96842105263156"/>
      <point x="92.81052631578947" y="142.6315789473684"/>
      <point x="49.63157894736842" y="102.78947368421053" type="curve"/>
    </contour>
    <contour>
      <point x="307.1263157894737" y="169.66315789473686" type="curve"/>
      <point x="214.75789473684208" y="172.0"/>
      <point x="153.8736842105263" y="247.1263157894737"/>
      <point x="171.94736842105263" y="339.2421052631579" type="curve" smooth="yes"/>
      <point x="188.93684210526314" y="427.8526315789474"/>
      <point x="252.39999999999998" y="469.0842105263158"/>
      <point x="329.86315789473684" y="471.33684210526314" type="curve"/>
      <point x="419.65263157894736" y="468.9157894736842"/>
      <point x="481.2" y="393.62105263157895"/>
      <point x="463.2105263157895" y="302.7578947368421" type="curve" smooth="yes"/>
      <point x="445.2210526315789" y="212.6421052631579"/>
      <point x="390.0" y="171.66315789473686"/>
    </contour>
    <contour>
      <point x="197.32631578947368" y="420.44210526315794" type="curve"/>
      <point x="228.26315789473682" y="449.62105263157895" type="line"/>
      <point x="203.99999999999997" y="477.0526315789474"/>
      <point x="158.66315789473683" y="527.7263157894737"/>
      <point x="118.82105263157895" y="570.9894736842105" type="curve"/>
      <point x="84.1263157894737" y="538.0526315789474" type="line"/>
      <point x="124.30526315789476" y="496.0421052631579"/>
      <point x="171.06315789473683" y="446.70526315789476"/>
    </contour>
    <contour>
      <point x="520.0842105263158" y="70.84210526315789" type="curve"/>
      <point x="554.7789473684211" y="103.77894736842106" type="line"/>
      <point x="514.6" y="145.78947368421052"/>
      <point x="467.8421052631579" y="195.12631578947367"/>
      <point x="441.5789473684211" y="221.38947368421054" type="curve"/>
      <point x="410.64210526315793" y="192.21052631578945" type="line"/>
      <point x="434.90526315789475" y="164.77894736842106"/>
      <point x="480.2421052631579" y="114.10526315789475"/>
    </contour>
    <contour>
      <point x="467.98947368421057" y="429.6842105263158" type="line"/>
      <point x="495.4210526315789" y="453.86315789473684"/>
      <point x="546.0947368421054" y="499.2"/>
      <point x="589.2736842105263" y="539.042105263158" type="curve"/>
      <point x="556.0842105263158" y="574.9894736842106" type="line"/>
      <point x="513.1578947368421" y="533.8947368421054"/>
      <point x="464.7368421052631" y="487.22105263157897"/>
      <point x="438.3894736842105" y="461.7894736842105" type="curve"/>
    </contour>
  </outline>
</glyph>
<glyph name="brokenbar" format="2">
  <advance width="254.37894736842105"/>
  <unicode hex="00A6"/>
  <outline>
    <contour>
      <point x="131.11578947368423" y="365.1578947368421" type="line"/>
      <point x="174.58947368421053" y="365.1578947368421" type="line"/>
      <point x="193.67368421052632" y="456.1578947368421" type="line"/>
      <point x="201.8421052631579" y="494.32631578947365"/>
      <point x="236.17894736842106" y="646.3263157894736"/>
      <point x="266.5157894736842" y="785.1578947368421" type="curve"/>
      <point x="217.35789473684213" y="785.1578947368421" type="line"/>
      <point x="188.77894736842106" y="646.3263157894736"/>
      <point x="158.11578947368423" y="494.2421052631579"/>
      <point x="150.20000000000002" y="456.1578947368421" type="curve"/>
    </contour>
    <contour>
      <point x="17.357894736842113" y="-154.8421052631579" type="curve"/>
      <point x="66.5157894736842" y="-154.8421052631579" type="line"/>
      <point x="95.09473684210525" y="-17.010526315789477"/>
      <point x="125.75789473684209" y="136.07368421052632"/>
      <point x="133.67368421052632" y="174.1578947368421" type="curve"/>
      <point x="152.67368421052632" y="265.1578947368421" type="line"/>
      <point x="109.2" y="265.1578947368421" type="line"/>
      <point x="90.2" y="174.1578947368421" type="line"/>
      <point x="82.11578947368422" y="136.2421052631579"/>
      <point x="47.69473684210528" y="-16.926315789473687"/>
    </contour>
  </outline>
</glyph>
<glyph name="section" format="2">
  <advance width="528.0919540229885"/>
  <unicode hex="00A7"/>
  <outline>
    <contour>
      <point x="183.9425287356322" y="-123.10344827586206" type="curve" smooth="yes"/>
      <point x="306.4367816091954" y="-123.10344827586206"/>
      <point x="374.5402298850575" y="-73.63218390804597"/>
      <point x="392.7241379310345" y="11.287356321839077" type="curve" smooth="yes"/>
      <point x="414.7241379310345" y="113.83908045977012"/>
      <point x="342.2988505747126" y="165.20689655172416"/>
      <point x="239.27586206896552" y="211.57471264367817" type="curve" smooth="yes"/>
      <point x="126.50574712643677" y="262.183908045977"/>
      <point x="110.05747126436782" y="295.71264367816093"/>
      <point x="123.32183908045977" y="357.6666666666667" type="curve" smooth="yes"/>
      <point x="138.4022988505747" y="429.51724137931035"/>
      <point x="210.35632183908046" y="445.8045977011495"/>
      <point x="253.43678160919544" y="449.8045977011494" type="curve"/>
      <point x="217.22988505747125" y="488.08045977011494" type="line"/>
      <point x="149.75862068965517" y="475.816091954023"/>
      <point x="90.05747126436782" y="431.8965517241379"/>
      <point x="75.32183908045978" y="362.7701149425288" type="curve" smooth="yes"/>
      <point x="55.689655172413794" y="270.4252873563218"/>
      <point x="106.01149425287356" y="226.0344827586207"/>
      <point x="206.58620689655172" y="178.29885057471265" type="curve" smooth="yes"/>
      <point x="321.45977011494256" y="124.13793103448276"/>
      <point x="360.17241379310343" y="91.71264367816092"/>
      <point x="344.0919540229885" y="15.49425287356322" type="curve" smooth="yes"/>
      <point x="328.01149425287355" y="-61.35632183908046"/>
      <point x="257.2413793103449" y="-76.70114942528735"/>
      <point x="184.55172413793102" y="-78.70114942528735" type="curve"/>
      <point x="142.57471264367817" y="-78.70114942528735"/>
      <point x="75.55172413793105" y="-49.333333333333336"/>
      <point x="0.1839080459770086" y="-14.149425287356323" type="curve"/>
      <point x="-14.75862068965517" y="-61.02298850574713" type="line"/>
      <point x="57.264367816091955" y="-91.65517241379311"/>
      <point x="139.83908045977012" y="-123.10344827586206"/>
    </contour>
    <contour>
      <point x="352.67816091954023" y="117.0" type="line"/>
      <point x="429.62068965517244" y="132.44827586206895"/>
      <point x="476.74712643678157" y="177.18390804597703"/>
      <point x="491.1149425287356" y="244.94252873563215" type="curve" smooth="yes"/>
      <point x="512.5632183908045" y="344.8390804597701"/>
      <point x="440.6896551724138" y="395.39080459770116"/>
      <point x="337.85057471264366" y="441.7586206896552" type="curve" smooth="yes"/>
      <point x="225.44827586206895" y="492.367816091954"/>
      <point x="208.44827586206898" y="528.1609195402299"/>
      <point x="221.71264367816093" y="588.8505747126436" type="curve" smooth="yes"/>
      <point x="238.60919540229887" y="667.1494252873563"/>
      <point x="319.0114942528736" y="678.7816091954023"/>
      <point x="360.1724137931035" y="680.9655172413793" type="curve"/>
      <point x="380.62068965517244" y="680.9655172413793"/>
      <point x="457.8045977011494" y="656.4137931034481"/>
      <point x="528.4367816091955" y="629.8620689655173" type="curve"/>
      <point x="541.9310344827586" y="677.1839080459771" type="line"/>
      <point x="492.7241379310345" y="693.551724137931"/>
      <point x="395.0689655172414" y="725.3678160919541"/>
      <point x="357.5977011494253" y="725.3678160919541" type="curve" smooth="yes"/>
      <point x="267.632183908046" y="725.3678160919541"/>
      <point x="191.26436781609195" y="678.264367816092"/>
      <point x="173.71264367816093" y="595.0574712643678" type="curve" smooth="yes"/>
      <point x="153.71264367816093" y="501.6896551724138"/>
      <point x="206.24137931034483" y="455.48275862068965"/>
      <point x="305.3448275862069" y="408.6666666666667" type="curve" smooth="yes"/>
      <point x="420.2183908045977" y="354.6896551724138"/>
      <point x="459.3793103448276" y="323.34482758620686"/>
      <point x="443.48275862068965" y="247.12643678160921" type="curve" smooth="yes"/>
      <point x="430.58620689655174" y="184.90804597701148"/>
      <point x="376.6896551724138" y="160.80459770114942"/>
      <point x="318.264367816092" y="154.17241379310346" type="curve"/>
    </contour>
  </outline>
</glyph>
<glyph name="ordfeminine" format="2">
  <advance width="390.2068965517241"/>
  <unicode hex="00AA"/>
  <outline>
    <contour>
      <point x="189.8735632183908" y="334.264367816092" type="curve" smooth="yes"/>
      <point x="225.2183908045977" y="334.264367816092"/>
      <point x="283.11494252873564" y="370.34482758620686"/>
      <point x="323.48275862068965" y="405.1609195402299" type="curve"/>
      <point x="328.8505747126437" y="405.1609195402299" type="line"/>
      <point x="330.8505747126437" y="341.44827586206895" type="line"/>
      <point x="370.9655172413793" y="341.44827586206895" type="line"/>
      <point x="370.14942528735634" y="377.735632183908"/>
      <point x="369.33333333333337" y="405.65517241379314"/>
      <point x="368.7011494252873" y="439.4942528735632" type="curve"/>
      <point x="381.7816091954023" y="502.89655172413796" type="line" smooth="yes"/>
      <point x="388.5977011494253" y="535.7931034482759"/>
      <point x="396.7816091954023" y="565.7931034482759"/>
      <point x="399.96551724137936" y="581.4482758620691" type="curve" smooth="yes"/>
      <point x="418.14942528735634" y="667.367816091954"/>
      <point x="378.9425287356322" y="725.3678160919541"/>
      <point x="286.91954022988506" y="725.3678160919541" type="curve" smooth="yes"/>
      <point x="260.2873563218391" y="725.3678160919541"/>
      <point x="191.8965517241379" y="708.551724137931"/>
      <point x="157.16091954022988" y="699.735632183908" type="curve"/>
      <point x="150.6896551724138" y="655.1724137931035" type="line"/>
      <point x="209.60919540229884" y="672.7241379310345"/>
      <point x="262.97701149425285" y="686.9080459770115"/>
      <point x="279.0574712643678" y="686.9080459770115" type="curve" smooth="yes"/>
      <point x="344.0344827586207" y="686.9080459770115"/>
      <point x="378.5632183908046" y="656.1954022988506"/>
      <point x="360.4022988505747" y="583.551724137931" type="curve"/>
      <point x="226.97701149425288" y="557.655172413793" type="line" smooth="yes"/>
      <point x="163.68965517241384" y="545.655172413793"/>
      <point x="103.16091954022988" y="524.9999999999999"/>
      <point x="87.16091954022988" y="453.632183908046" type="curve" smooth="yes"/>
      <point x="71.16091954022988" y="384.4482758620689"/>
      <point x="115.79310344827587" y="334.264367816092"/>
    </contour>
    <contour>
      <point x="201.86206896551724" y="369.98850574712645" type="curve" smooth="yes"/>
      <point x="150.35632183908046" y="369.98850574712645"/>
      <point x="115.19540229885058" y="396.7011494252873"/>
      <point x="127.27586206896552" y="455.1034482758621" type="curve" smooth="yes"/>
      <point x="137.72413793103448" y="504.1609195402299"/>
      <point x="183.9655172413793" y="514.7931034482758"/>
      <point x="234.65517241379308" y="525.2413793103448" type="curve" smooth="yes"/>
      <point x="318.7701149425287" y="542.3218390804598"/>
      <point x="335.2183908045977" y="548.1379310344827"/>
      <point x="354.2988505747127" y="556.1379310344828" type="curve"/>
      <point x="331.4022988505747" y="450.8390804597702" type="line"/>
      <point x="281.89655172413796" y="395.88505747126436"/>
      <point x="228.02298850574712" y="369.98850574712645"/>
    </contour>
  </outline>
</glyph>
<glyph name="logicalnot" format="2">
  <advance width="562.5263157894736"/>
  <unicode hex="00AC"/>
  <outline>
    <contour>
      <point x="409.14736842105265" y="63.23157894736842" type="curve"/>
      <point x="458.1368421052631" y="63.23157894736842" type="line"/>
      <point x="470.2210526315789" y="124.49473684210525"/>
      <point x="483.22105263157886" y="190.33684210526314"/>
      <point x="490.4736842105263" y="227.10526315789474" type="curve"/>
      <point x="510.7368421052631" y="320.4210526315789" type="line"/>
      <point x="451.30526315789473" y="319.2526315789474"/>
      <point x="382.5473684210526" y="318.08421052631576"/>
      <point x="345.69473684210527" y="317.9157894736842" type="curve"/>
      <point x="246.2" y="317.9157894736842" type="line"/>
      <point x="209.3473684210526" y="318.08421052631576"/>
      <point x="142.58947368421053" y="319.2526315789474"/>
      <point x="83.15789473684211" y="320.4210526315789" type="curve"/>
      <point x="73.04210526315791" y="271.93684210526317" type="line"/>
      <point x="132.55789473684212" y="273.1052631578947"/>
      <point x="200.39999999999998" y="274.2736842105263"/>
      <point x="237.25263157894736" y="274.4421052631579" type="curve"/>
      <point x="336.74736842105267" y="274.4421052631579" type="line"/>
      <point x="371.0947368421053" y="274.2736842105263"/>
      <point x="434.17894736842106" y="273.1052631578947"/>
      <point x="488.93684210526317" y="271.93684210526317" type="curve"/>
      <point x="462.91578947368424" y="304.2105263157895" type="line"/>
      <point x="446.4947368421053" y="227.18947368421053" type="line"/>
      <point x="437.9894736842105" y="189.50526315789472"/>
      <point x="422.6526315789473" y="122.74736842105263"/>
    </contour>
  </outline>
</glyph>
<glyph name="registered" format="2">
  <advance width="564.1894736842105"/>
  <unicode hex="00AE"/>
  <outline>
    <contour>
      <point x="338.7578947368421" y="262.5473684210526" type="curve" smooth="yes"/>
      <point x="488.2842105263158" y="262.5473684210526"/>
      <point x="580.0315789473684" y="365.38947368421054"/>
      <point x="580.0315789473684" y="503.5684210526316" type="curve" smooth="yes"/>
      <point x="580.0315789473684" y="637.4105263157895"/>
      <point x="492.53684210526313" y="744.421052631579"/>
      <point x="337.33684210526314" y="744.421052631579" type="curve" smooth="yes"/>
      <point x="183.38947368421051" y="744.421052631579"/>
      <point x="93.3157894736842" y="639.3263157894737"/>
      <point x="93.3157894736842" y="503.4842105263158" type="curve" smooth="yes"/>
      <point x="93.3157894736842" y="373.06315789473683"/>
      <point x="176.64210526315787" y="262.5473684210526"/>
    </contour>
    <contour>
      <point x="240.4" y="366.82105263157894" type="curve"/>
      <point x="278.2105263157894" y="366.82105263157894" type="line"/>
      <point x="277.04210526315785" y="408.06315789473683"/>
      <point x="276.8736842105263" y="416.66315789473686"/>
      <point x="275.7052631578947" y="460.82105263157894" type="curve"/>
      <point x="275.7052631578947" y="552.8210526315789" type="line"/>
      <point x="276.8736842105263" y="596.1473684210526"/>
      <point x="277.04210526315785" y="606.578947368421"/>
      <point x="278.12631578947367" y="646.978947368421" type="curve"/>
      <point x="240.14736842105262" y="651.8210526315789" type="line"/>
      <point x="241.31578947368422" y="610.4105263157894"/>
      <point x="241.4842105263158" y="600.0631578947368"/>
      <point x="242.65263157894736" y="556.8210526315789" type="curve"/>
      <point x="242.65263157894736" y="460.82105263157894" type="line"/>
      <point x="241.56842105263158" y="416.4947368421052"/>
      <point x="241.4842105263158" y="408.3157894736842"/>
    </contour>
    <contour>
      <point x="338.6736842105263" y="294.9894736842105" type="curve"/>
      <point x="205.2315789473684" y="297.2421052631579"/>
      <point x="126.34736842105264" y="375.0105263157895"/>
      <point x="126.34736842105264" y="503.4842105263158" type="curve" smooth="yes"/>
      <point x="126.34736842105264" y="630.221052631579"/>
      <point x="207.48421052631576" y="709.8105263157895"/>
      <point x="337.42105263157896" y="712.0631578947368" type="curve"/>
      <point x="467.5263157894737" y="709.8105263157895"/>
      <point x="546.0842105263157" y="631.8000000000001"/>
      <point x="546.0842105263157" y="503.5684210526316" type="curve" smooth="yes"/>
      <point x="546.0842105263157" y="375.66315789473686"/>
      <point x="466.85263157894735" y="297.2421052631579"/>
    </contour>
    <contour>
      <point x="415.46315789473687" y="366.82105263157894" type="curve"/>
      <point x="463.52631578947364" y="366.82105263157894" type="line"/>
      <point x="444.69473684210527" y="389.1578947368421"/>
      <point x="418.4526315789474" y="420.82105263157894"/>
      <point x="394.8736842105263" y="448.9894736842105" type="curve"/>
      <point x="349.88421052631577" y="505.1578947368421" type="line"/>
      <point x="337.69473684210527" y="489.06315789473683" type="line"/>
      <point x="407.9473684210526" y="489.06315789473683"/>
      <point x="434.69473684210527" y="527.1473684210526"/>
      <point x="434.69473684210527" y="573.4" type="curve" smooth="yes"/>
      <point x="434.69473684210527" y="629.6526315789474"/>
      <point x="395.69473684210527" y="652.9894736842106"/>
      <point x="337.7578947368421" y="652.9894736842106" type="curve"/>
      <point x="296.83157894736837" y="652.9894736842106"/>
      <point x="264.1578947368421" y="651.8210526315789"/>
      <point x="240.14736842105262" y="651.8210526315789" type="curve"/>
      <point x="265.1052631578947" y="621.4526315789474" type="line"/>
      <point x="336.5052631578947" y="621.4526315789474" type="line" smooth="yes"/>
      <point x="360.32631578947365" y="621.4526315789474"/>
      <point x="400.3894736842105" y="619.5368421052632"/>
      <point x="400.3894736842105" y="572.3894736842105" type="curve" smooth="yes"/>
      <point x="400.3894736842105" y="528.1578947368421"/>
      <point x="369.82105263157894" y="514.6631578947369"/>
      <point x="324.09473684210525" y="514.6631578947369" type="curve" smooth="yes"/>
      <point x="269.61052631578946" y="514.6631578947369" type="line"/>
      <point x="269.61052631578946" y="486.38947368421054" type="line"/>
      <point x="334.9473684210526" y="486.38947368421054" type="line"/>
      <point x="314.0" y="500.0736842105263" type="line"/>
      <point x="364.56842105263155" y="435.90526315789475" type="line"/>
      <point x="380.8947368421052" y="413.82105263157894"/>
      <point x="396.2210526315789" y="392.90526315789475"/>
    </contour>
  </outline>
</glyph>
<glyph name="degree" format="2">
  <advance width="461.4947368421053"/>
  <unicode hex="00B0"/>
  <outline>
    <contour>
      <point x="274.28421052631575" y="324.0421052631579" type="curve" smooth="yes"/>
      <point x="373.4" y="324.0421052631579"/>
      <point x="450.41052631578947" y="377.37894736842105"/>
      <point x="473.8315789473684" y="488.2315789473684" type="curve" smooth="yes"/>
      <point x="496.1684210526316" y="595.8315789473684"/>
      <point x="419.82105263157894" y="696.8421052631579"/>
      <point x="301.0315789473684" y="696.8421052631579" type="curve" smooth="yes"/>
      <point x="198.0" y="696.8421052631579"/>
      <point x="122.15789473684211" y="636.5894736842105"/>
      <point x="99.07368421052632" y="529.7473684210527" type="curve" smooth="yes"/>
      <point x="74.56842105263158" y="418.13684210526316"/>
      <point x="149.83157894736843" y="324.0421052631579"/>
    </contour>
    <contour>
      <point x="275.9578947368421" y="364.9789473684211" type="curve"/>
      <point x="174.26315789473682" y="367.14736842105265"/>
      <point x="123.12631578947368" y="434.94736842105266"/>
      <point x="141.1157894736842" y="523.8105263157895" type="curve" smooth="yes"/>
      <point x="158.18947368421053" y="609.9263157894736"/>
      <point x="215.90526315789475" y="653.5684210526316"/>
      <point x="299.4421052631579" y="655.9052631578948" type="curve"/>
      <point x="395.30526315789473" y="653.5684210526316"/>
      <point x="449.18947368421055" y="580.021052631579"/>
      <point x="431.2842105263158" y="494.32631578947365" type="curve" smooth="yes"/>
      <point x="412.2947368421053" y="405.0421052631579"/>
      <point x="358.90526315789475" y="367.2315789473684"/>
    </contour>
  </outline>
</glyph>
<glyph name="plusminus" format="2">
  <advance width="562.5263157894736"/>
  <unicode hex="00B1"/>
  <outline>
    <contour>
      <point x="14.305263157894736" y="-2.5052631578947366" type="line"/>
      <point x="73.82105263157895" y="-1.336842105263158"/>
      <point x="141.578947368421" y="-0.16842105263157894"/>
      <point x="178.5157894736842" y="0.0" type="curve"/>
      <point x="278.0105263157895" y="0.0" type="line"/>
      <point x="314.7789473684211" y="-0.16842105263157894"/>
      <point x="382.53684210526313" y="-1.336842105263158"/>
      <point x="441.88421052631577" y="-2.5052631578947366" type="curve"/>
      <point x="452.0" y="45.97894736842105" type="line"/>
      <point x="392.4842105263158" y="44.81052631578947"/>
      <point x="324.6421052631579" y="43.642105263157895"/>
      <point x="287.7894736842105" y="43.473684210526315" type="curve"/>
      <point x="188.29473684210527" y="43.473684210526315" type="line"/>
      <point x="151.44210526315788" y="43.642105263157895"/>
      <point x="83.76842105263158" y="44.81052631578947"/>
      <point x="24.42105263157895" y="45.97894736842105" type="curve"/>
    </contour>
    <contour>
      <point x="89.6421052631579" y="352.2631578947369" type="line"/>
      <point x="149.1578947368421" y="353.4315789473684"/>
      <point x="217.91578947368419" y="354.6"/>
      <point x="254.76842105263157" y="354.7684210526316" type="curve"/>
      <point x="354.2631578947369" y="354.7684210526316" type="line"/>
      <point x="391.11578947368423" y="354.6"/>
      <point x="457.87368421052633" y="353.4315789473684"/>
      <point x="517.2210526315788" y="352.2631578947369" type="curve"/>
      <point x="527.3368421052631" y="400.7473684210526" type="line"/>
      <point x="467.90526315789475" y="399.5789473684211"/>
      <point x="400.06315789473683" y="398.41052631578947"/>
      <point x="363.2105263157895" y="398.2421052631579" type="curve"/>
      <point x="263.7157894736842" y="398.2421052631579" type="line"/>
      <point x="226.86315789473682" y="398.41052631578947"/>
      <point x="159.18947368421053" y="399.5789473684211"/>
      <point x="99.7578947368421" y="400.7473684210526" type="curve"/>
    </contour>
    <contour>
      <point x="234.2" y="145.2421052631579" type="curve"/>
      <point x="284.1894736842105" y="145.2421052631579" type="line"/>
      <point x="296.27368421052637" y="206.50526315789475"/>
      <point x="309.27368421052626" y="272.4315789473684"/>
      <point x="316.5263157894737" y="309.2842105263158" type="curve"/>
      <point x="345.34736842105264" y="443.7263157894737" type="line"/>
      <point x="353.85263157894735" y="480.57894736842104"/>
      <point x="369.1894736842106" y="548.3368421052631"/>
      <point x="382.69473684210527" y="607.7684210526315" type="curve"/>
      <point x="332.70526315789476" y="607.7684210526315" type="line"/>
      <point x="321.5368421052632" y="549.2526315789473"/>
      <point x="307.62105263157895" y="479.6631578947368"/>
      <point x="300.36842105263156" y="443.7263157894737" type="curve"/>
      <point x="271.5473684210526" y="309.2842105263158" type="line"/>
      <point x="263.95789473684204" y="273.34736842105264"/>
      <point x="248.62105263157895" y="205.58947368421053"/>
    </contour>
  </outline>
</glyph>
